COMMENT @(#)37	1.3  src/bos/usr/lpp/kls/fonts/Hangul24.bdf, cmdkr, bos411, 9428A410j 2/24/94 11:38:58
COMMENT
COMMENT   COMPONENT_NAME: cmdkr
COMMENT
COMMENT   FUNCTIONS: none
COMMENT
COMMENT   ORIGINS: 27
COMMENT
COMMENT   IBM CONFIDENTIAL -- (IBM Confidential Restricted when
COMMENT   combined with the aggregated modules for this product)
COMMENT                    SOURCE MATERIALS
COMMENT
COMMENT   (C) COPYRIGHT International Business Machines Corp. 1992
COMMENT   All Rights Reserved
COMMENT   US Government Users Restricted Rights - Use, duplication or
COMMENT   disclosure restricted by GSA ADP Schedule Contract with IBM Corp.
COMMENT
STARTFONT 2.1  
COMMENT IBM Hangul & Hanja fonts 
FONT -IBM_AIX-Myungjo-Medium-R-Normal--27-170-100-100-M-260-ksc5601.1987-0
SIZE 27 100 100  
FONTBOUNDINGBOX 26 27 0 -1
STARTPROPERTIES 20 
FONTNAME_REGISTRY "-" 
FOUNDRY "IBM_AIX" 
FAMILY_NAME "Myungjo" 
WEIGHT_NAME "Medium" 
SLANT "R" 
SETWIDTH_NAME "Normal" 
ADD_STYLE_NAME "" 
PIXEL_SIZE 27 
POINT_SIZE 170 
RESOLUTION_X 100 
RESOLUTION_Y 100 
SPACING "M" 
AVERAGE_WIDTH 260 
CHARSET_REGISTRY "ksc5601.1987" 
CHARSET_ENCODING "0" 
FONT_ASCENT 26 
FONT_DESCENT 1 
DEFAULT_CHAR 41377 
CAP_HEIGHT 27
Copyright "Copyright (c) 1992 IBM Korea, Inc."
ENDPROPERTIES 
CHARS 8224
STARTCHAR a1a1
ENCODING 41377 
SWIDTH 96 0
DWIDTH 26 0
BBX 26 27 0 -1
BITMAP 
00000000
00000000
00000000
00000000
00000000
00000000
00000000
00000000
00000000
00000000
00000000
00000000
00000000
00000000
00000000
00000000
00000000
00000000
00000000
00000000
00000000
00000000
00000000
00000000
00000000
00000000
00000000
ENDCHAR
STARTCHAR a1a2
ENCODING 41378 
SWIDTH 96 0
DWIDTH 26 0
BBX 26 27 0 -1
BITMAP 
00000000
00000000
00000000
00000000
00000000
00000000
00000000
00000000
00000000
00000000
00000000
00000000
00000000
00000000
00000000
00000000
00000000
00000000
30000000
0c000000
06000000
03000000
03800000
01800000
01800000
00000000
00000000
ENDCHAR
STARTCHAR a1a3
ENCODING 41379 
SWIDTH 96 0
DWIDTH 26 0
BBX 26 27 0 -1
BITMAP 
00000000
00000000
00000000
00000000
00000000
00000000
00000000
00000000
00000000
00000000
00000000
00000000
00000000
00000000
00000000
00000000
00000000
07800000
08400000
10200000
10200000
10200000
10200000
08400000
07800000
00000000
00000000
ENDCHAR
STARTCHAR a1a4
ENCODING 41380 
SWIDTH 96 0
DWIDTH 26 0
BBX 26 27 0 -1
BITMAP 
00000000
00000000
00000000
00000000
00000000
00000000
00000000
00000000
00000000
00000000
000c0000
001e0000
003f0000
003f0000
001e0000
000c0000
00000000
00000000
00000000
00000000
00000000
00000000
00000000
00000000
00000000
00000000
00000000
ENDCHAR
STARTCHAR a1a5
ENCODING 41381 
SWIDTH 96 0
DWIDTH 26 0
BBX 26 27 0 -1
BITMAP 
00000000
00000000
00000000
00000000
00000000
00000000
00000000
00000000
00000000
00000000
01806000
03c0f000
01806000
00000000
00000000
00000000
00000000
00000000
00000000
00000000
00000000
00000000
00000000
00000000
00000000
00000000
00000000
ENDCHAR
STARTCHAR a1a6
ENCODING 41382 
SWIDTH 96 0
DWIDTH 26 0
BBX 26 27 0 -1
BITMAP 
00000000
00000000
00000000
00000000
00000000
00000000
00000000
00000000
00000000
00000000
180c0600
3c1e0f00
180c0600
00000000
00000000
00000000
00000000
00000000
00000000
00000000
00000000
00000000
00000000
00000000
00000000
00000000
00000000
ENDCHAR
STARTCHAR a1a7
ENCODING 41383 
SWIDTH 96 0
DWIDTH 26 0
BBX 26 27 0 -1
BITMAP 
00000000
00000000
01806000
03c0f000
03c0f000
01806000
00000000
00000000
00000000
00000000
00000000
00000000
00000000
00000000
00000000
00000000
00000000
00000000
00000000
00000000
00000000
00000000
00000000
00000000
00000000
00000000
00000000
ENDCHAR
STARTCHAR a1a8
ENCODING 41384 
SWIDTH 96 0
DWIDTH 26 0
BBX 26 27 0 -1
BITMAP 
00000000
00000000
00000000
00000000
00000000
00000000
00000000
0060c000
0070e000
0060c000
0060c000
0060c000
00c18000
00c18000
00810000
01830000
01020000
02040000
04080000
00000000
00000000
00000000
00000000
00000000
00000000
00000000
00000000
ENDCHAR
STARTCHAR a1a9
ENCODING 41385 
SWIDTH 96 0
DWIDTH 26 0
BBX 26 27 0 -1
BITMAP 
00000000
00000000
00000000
00000000
00000000
00000000
00000000
00000000
00000000
00000000
00000000
00000000
007f8000
007f8000
00000000
00000000
00000000
00000000
00000000
00000000
00000000
00000000
00000000
00000000
00000000
00000000
00000000
ENDCHAR
STARTCHAR a1aa
ENCODING 41386 
SWIDTH 96 0
DWIDTH 26 0
BBX 26 27 0 -1
BITMAP 
00000000
00000000
00000000
00000000
00000000
00000000
00000000
00000000
00000000
00000000
00000000
00000000
07fff800
07fff800
00000000
00000000
00000000
00000000
00000000
00000000
00000000
00000000
00000000
00000000
00000000
00000000
00000000
ENDCHAR
STARTCHAR a1ab
ENCODING 41387 
SWIDTH 96 0
DWIDTH 26 0
BBX 26 27 0 -1
BITMAP 
00000000
00330000
00330000
00330000
00330000
00330000
00330000
00330000
00330000
00330000
00330000
00330000
00330000
00330000
00330000
00330000
00330000
00330000
00330000
00330000
00330000
00330000
00330000
00330000
00330000
00000000
00000000
ENDCHAR
STARTCHAR a1ac
ENCODING 41388 
SWIDTH 96 0
DWIDTH 26 0
BBX 26 27 0 -1
BITMAP 
00000000
60000000
30000000
18000000
0c000000
06000000
03000000
01800000
00c00000
00600000
00300000
00180000
000c0000
00060000
00030000
00018000
0000c000
00006000
00003000
00001800
00000c00
00000600
00000300
00000180
00000080
00000000
00000000
ENDCHAR
STARTCHAR a1ad
ENCODING 41389 
SWIDTH 96 0
DWIDTH 26 0
BBX 26 27 0 -1
BITMAP 
00000000
00000000
00000000
00000000
00000000
00000000
00000000
00000000
00000000
00000000
07c00000
1ff00000
303c0180
600f0300
0003fe00
0000f800
00000000
00000000
00000000
00000000
00000000
00000000
00000000
00000000
00000000
00000000
00000000
ENDCHAR
STARTCHAR a1ae
ENCODING 41390 
SWIDTH 96 0
DWIDTH 26 0
BBX 26 27 0 -1
BITMAP 
00000000
00000600
00001800
00003000
00006000
00007800
00007c00
00007c00
00003800
00000000
00000000
00000000
00000000
00000000
00000000
00000000
00000000
00000000
00000000
00000000
00000000
00000000
00000000
00000000
00000000
00000000
00000000
ENDCHAR
STARTCHAR a1af
ENCODING 41391 
SWIDTH 96 0
DWIDTH 26 0
BBX 26 27 0 -1
BITMAP 
00000000
07000000
0f800000
0f800000
07800000
01800000
03000000
06000000
18000000
00000000
00000000
00000000
00000000
00000000
00000000
00000000
00000000
00000000
00000000
00000000
00000000
00000000
00000000
00000000
00000000
00000000
00000000
ENDCHAR
STARTCHAR a1b0
ENCODING 41392 
SWIDTH 96 0
DWIDTH 26 0
BBX 26 27 0 -1
BITMAP 
00000000
0000c300
00018600
00030c00
00071c00
00079e00
00079e00
00030c00
00000000
00000000
00000000
00000000
00000000
00000000
00000000
00000000
00000000
00000000
00000000
00000000
00000000
00000000
00000000
00000000
00000000
00000000
00000000
ENDCHAR
STARTCHAR a1b1
ENCODING 41393 
SWIDTH 96 0
DWIDTH 26 0
BBX 26 27 0 -1
BITMAP 
00000000
0c300000
1e780000
1e780000
0e380000
0c300000
18600000
30c00000
00000000
00000000
00000000
00000000
00000000
00000000
00000000
00000000
00000000
00000000
00000000
00000000
00000000
00000000
00000000
00000000
00000000
00000000
00000000
ENDCHAR
STARTCHAR a1b2
ENCODING 41394 
SWIDTH 96 0
DWIDTH 26 0
BBX 26 27 0 -1
BITMAP 
00000000
00000e00
00003800
0000e000
00008000
00008000
00008000
00008000
00008000
00008000
00008000
00008000
00008000
00008000
00008000
00008000
00008000
00008000
00008000
00008000
00008000
00008000
0000e000
00003800
00000e00
00000000
00000000
ENDCHAR
STARTCHAR a1b3
ENCODING 41395 
SWIDTH 96 0
DWIDTH 26 0
BBX 26 27 0 -1
BITMAP 
00000000
1c000000
07000000
01c00000
00400000
00400000
00400000
00400000
00400000
00400000
00400000
00400000
00400000
00400000
00400000
00400000
00400000
00400000
00400000
00400000
00400000
00400000
01c00000
07000000
1c000000
00000000
00000000
ENDCHAR
STARTCHAR a1b4
ENCODING 41396 
SWIDTH 96 0
DWIDTH 26 0
BBX 26 27 0 -1
BITMAP 
00000000
00000200
00000600
00000400
00000c00
00000800
00001800
00001000
00003000
00002000
00006000
00004000
00008000
00008000
00004000
00006000
00002000
00003000
00001000
00001800
00000800
00000c00
00000400
00000600
00000200
00000000
00000000
ENDCHAR
STARTCHAR a1b5
ENCODING 41397 
SWIDTH 96 0
DWIDTH 26 0
BBX 26 27 0 -1
BITMAP 
00000000
10000000
18000000
08000000
0c000000
04000000
06000000
02000000
03000000
01000000
01800000
00800000
00400000
00400000
00800000
01800000
01000000
03000000
02000000
06000000
04000000
0c000000
08000000
18000000
10000000
00000000
00000000
ENDCHAR
STARTCHAR a1b6
ENCODING 41398 
SWIDTH 96 0
DWIDTH 26 0
BBX 26 27 0 -1
BITMAP 
00000000
00002200
00006600
00004400
0000cc00
00008800
00019800
00011000
00033000
00022000
00066000
00044000
00088000
00088000
00044000
00066000
00022000
00033000
00011000
00019800
00008800
0000cc00
00004400
00006600
00002200
00000000
00000000
ENDCHAR
STARTCHAR a1b7
ENCODING 41399 
SWIDTH 96 0
DWIDTH 26 0
BBX 26 27 0 -1
BITMAP 
00000000
11000000
19800000
08800000
0cc00000
04400000
06600000
02200000
03300000
01100000
01980000
00880000
00440000
00440000
00880000
01980000
01100000
03300000
02200000
06600000
04400000
0cc00000
08800000
19800000
11000000
00000000
00000000
ENDCHAR
STARTCHAR a1b8
ENCODING 41400 
SWIDTH 96 0
DWIDTH 26 0
BBX 26 27 0 -1
BITMAP 
00000000
0003fe00
00020000
00020000
00020000
00020000
00020000
00020000
00020000
00020000
00020000
00020000
00020000
00020000
00020000
00020000
00000000
00000000
00000000
00000000
00000000
00000000
00000000
00000000
00000000
00000000
00000000
ENDCHAR
STARTCHAR a1b9
ENCODING 41401 
SWIDTH 96 0
DWIDTH 26 0
BBX 26 27 0 -1
BITMAP 
00000000
00000000
00000000
00000000
00000000
00000000
00000000
00000000
00000000
00000000
00100000
00100000
00100000
00100000
00100000
00100000
00100000
00100000
00100000
00100000
00100000
00100000
00100000
00100000
1ff00000
00000000
00000000
ENDCHAR
STARTCHAR a1ba
ENCODING 41402 
SWIDTH 96 0
DWIDTH 26 0
BBX 26 27 0 -1
BITMAP 
00000000
0003fe00
00020200
00020200
00027e00
00024000
00024000
00024000
00024000
00024000
00024000
00024000
00024000
00024000
00024000
00024000
00024000
0003c000
00000000
00000000
00000000
00000000
00000000
00000000
00000000
00000000
00000000
ENDCHAR
STARTCHAR a1bb
ENCODING 41403 
SWIDTH 96 0
DWIDTH 26 0
BBX 26 27 0 -1
BITMAP 
00000000
00000000
00000000
00000000
00000000
00000000
00000000
00000000
00f00000
00900000
00900000
00900000
00900000
00900000
00900000
00900000
00900000
00900000
00900000
00900000
00900000
1f900000
10100000
10100000
1ff00000
00000000
00000000
ENDCHAR
STARTCHAR a1bc
ENCODING 41404 
SWIDTH 96 0
DWIDTH 26 0
BBX 26 27 0 -1
BITMAP 
00000000
0001fe00
0001fc00
0001f800
0001f000
0001e000
0001e000
0001c000
0001c000
0001c000
00018000
00018000
00018000
00018000
00018000
00018000
0001c000
0001c000
0001c000
0001e000
0001e000
0001f000
0001f800
0001fc00
0001fe00
00000000
00000000
ENDCHAR
STARTCHAR a1bd
ENCODING 41405 
SWIDTH 96 0
DWIDTH 26 0
BBX 26 27 0 -1
BITMAP 
00000000
1fe00000
0fe00000
07e00000
03e00000
01e00000
01e00000
00e00000
00e00000
00e00000
00600000
00600000
00600000
00600000
00600000
00600000
00e00000
00e00000
00e00000
01e00000
01e00000
03e00000
07e00000
0fe00000
1fe00000
00000000
00000000
ENDCHAR
STARTCHAR a1be
ENCODING 41406 
SWIDTH 96 0
DWIDTH 26 0
BBX 26 27 0 -1
BITMAP 
00000000
00000000
00000000
000c0000
000c0000
000c0000
000c0000
000c0000
000c0000
000c0000
000c0000
0ffffc00
0ffffc00
000c0000
000c0000
000c0000
000c0000
000c0000
000c0000
000c0000
00000000
0ffffc00
0ffffc00
00000000
00000000
00000000
00000000
ENDCHAR
STARTCHAR a1bf
ENCODING 41407 
SWIDTH 96 0
DWIDTH 26 0
BBX 26 27 0 -1
BITMAP 
00000000
00000000
00000000
00000000
00000000
06001800
03003000
01806000
00c0c000
00618000
00330000
001e0000
000c0000
001e0000
00330000
00618000
00c0c000
01806000
03003000
06001800
00000000
00000000
00000000
00000000
00000000
00000000
00000000
ENDCHAR
STARTCHAR a1c0
ENCODING 41408 
SWIDTH 96 0
DWIDTH 26 0
BBX 26 27 0 -1
BITMAP 
00000000
00000000
00000000
00000000
000c0000
001e0000
001e0000
000c0000
00000000
00000000
00000000
00000000
1ffffe00
1ffffe00
00000000
00000000
00000000
00000000
000c0000
001e0000
001e0000
000c0000
00000000
00000000
00000000
00000000
00000000
ENDCHAR
STARTCHAR a1c4
ENCODING 41412 
SWIDTH 96 0
DWIDTH 26 0
BBX 26 27 0 -1
BITMAP 
00000000
00000000
00000000
00000000
00000000
00000000
00000000
00000000
07807800
08408400
10210200
20120100
200c0100
200c0100
20120100
10210200
08408400
07807800
00000000
00000000
00000000
00000000
00000000
00000000
00000000
00000000
00000000
ENDCHAR
STARTCHAR a1c5
ENCODING 41413 
SWIDTH 96 0
DWIDTH 26 0
BBX 26 27 0 -1
BITMAP 
00000000
00000000
00000000
00000000
000c0000
001e0000
001e0000
000c0000
00000000
00000000
00000000
00000000
00000000
00000000
00000000
00000000
00000000
0c000c00
1e001e00
1e001e00
0c000c00
00000000
00000000
00000000
00000000
00000000
00000000
ENDCHAR
STARTCHAR a1c6
ENCODING 41414 
SWIDTH 96 0
DWIDTH 26 0
BBX 26 27 0 -1
BITMAP 
00000000
00000000
0f000000
10800000
10800000
10800000
10800000
0f000000
00000000
00000000
00000000
00000000
00000000
00000000
00000000
00000000
00000000
00000000
00000000
00000000
00000000
00000000
00000000
00000000
00000000
00000000
00000000
ENDCHAR
STARTCHAR a1c7
ENCODING 41415 
SWIDTH 96 0
DWIDTH 26 0
BBX 26 27 0 -1
BITMAP 
00000000
00000000
0c000000
0c000000
0c000000
18000000
18000000
10000000
20000000
00000000
00000000
00000000
00000000
00000000
00000000
00000000
00000000
00000000
00000000
00000000
00000000
00000000
00000000
00000000
00000000
00000000
00000000
ENDCHAR
STARTCHAR a1c8
ENCODING 41416 
SWIDTH 96 0
DWIDTH 26 0
BBX 26 27 0 -1
BITMAP 
00000000
00000000
19800000
19800000
19800000
33000000
33000000
22000000
44000000
00000000
00000000
00000000
00000000
00000000
00000000
00000000
00000000
00000000
00000000
00000000
00000000
00000000
00000000
00000000
00000000
00000000
00000000
ENDCHAR
STARTCHAR a1c9
ENCODING 41417 
SWIDTH 96 0
DWIDTH 26 0
BBX 26 27 0 -1
BITMAP 
00000000
00000000
0f000000
10800000
1083c000
108c3200
10981a00
0f300e00
00600600
00600600
00e00200
00c00200
00c00000
00c00000
00c00000
00c00000
00c00000
00e00000
00600200
00600200
00300400
00180800
000c3000
0003c000
00000000
00000000
00000000
ENDCHAR
STARTCHAR a1cb
ENCODING 41419 
SWIDTH 96 0
DWIDTH 26 0
BBX 26 27 0 -1
BITMAP 
00000000
00004000
00004000
00004000
001fe000
00319000
00611800
00c13800
01833800
01821000
03020000
03060000
03040000
03040000
030c0000
03080000
03080000
03182000
01902000
01b04000
00e18000
007e0000
00400000
00c00000
00800000
00000000
00000000
ENDCHAR
STARTCHAR a1cc
ENCODING 41420 
SWIDTH 96 0
DWIDTH 26 0
BBX 26 27 0 -1
BITMAP 
00000000
00000000
00000000
000fc000
00386000
00607000
0060f000
00e0f000
00c06000
00c00000
00c00000
0fff0000
00c00000
00e00000
00600000
00600000
07e00000
0c700400
18780400
186c0800
18671800
0c63f000
07c0e000
00000000
00000000
00000000
00000000
ENDCHAR
STARTCHAR a1cd
ENCODING 41421 
SWIDTH 96 0
DWIDTH 26 0
BBX 26 27 0 -1
BITMAP 
00000000
00000000
00000000
1f807e00
06001800
06001800
03003000
01806000
01806000
00c0c000
00618000
00330000
0ffffc00
000c0000
000c0000
000c0000
0ffffc00
000c0000
000c0000
000c0000
000c0000
000c0000
007f8000
00000000
00000000
00000000
00000000
ENDCHAR
STARTCHAR a7a2
ENCODING 42914 
SWIDTH 96 0
DWIDTH 26 0
BBX 26 27 0 -1
BITMAP 
00000000
00000000
00000000
00003800
00006c00
0000cc00
0000c600
00018600
00018600
00018600
0cc18600
1fe18600
33318600
33318600
3330cc00
3330cc00
3330d800
33307000
33306000
3330c000
33333000
33301900
73300e00
00000000
00000000
00000000
00000000
ENDCHAR
STARTCHAR a7a3
ENCODING 42915 
SWIDTH 96 0
DWIDTH 26 0
BBX 26 27 0 -1
BITMAP 
00000000
00000000
00000000
00703800
00306c00
0030cc00
0030c600
00318600
00318600
00318600
07b18600
0cf18600
18318600
18318600
30318c00
3030cc00
3030cc00
3030d800
30307000
1830d800
18330c80
0cf00700
07b00000
00000000
00000000
00000000
00000000
ENDCHAR
STARTCHAR a7a4
ENCODING 42916 
SWIDTH 96 0
DWIDTH 26 0
BBX 26 27 0 -1
BITMAP 
00000000
00000000
00000000
000e0000
001b0000
00330000
00318000
00618000
00618000
00618000
00618000
00618000
00618000
00618000
00630000
00330000
00360000
00360000
001c0000
00300000
00cc2000
00064000
00038000
00000000
00000000
00000000
00000000
ENDCHAR
STARTCHAR a7a6
ENCODING 42918 
SWIDTH 96 0
DWIDTH 26 0
BBX 26 27 0 -1
BITMAP 
00000000
00000000
00000000
00000000
00000000
00000000
00000000
00000000
00000000
07c07c00
0c60c600
18718700
18318300
30030000
30030000
30030000
30030000
30030000
18018000
18318300
0c60c600
07c07c00
00000000
00000000
00000000
00000000
00000000
ENDCHAR
STARTCHAR a7ae
ENCODING 42926 
SWIDTH 96 0
DWIDTH 26 0
BBX 26 27 0 -1
BITMAP 
00000000
00000000
00000000
00000000
00000000
00000000
00000000
00000000
00000000
0cc0cc00
1fe1fe00
33333300
33333300
33333300
33333300
33333300
33333300
33333300
33333300
33333300
33333300
33333300
00000000
00000000
00000000
00000000
00000000
ENDCHAR
STARTCHAR a7af
ENCODING 42927 
SWIDTH 96 0
DWIDTH 26 0
BBX 26 27 0 -1
BITMAP 
00000000
00000000
00000000
00000000
00000000
00000000
00000000
00000000
00000000
07c0cc00
0c61fe00
18333300
18033300
30033300
30033300
30033300
30033300
30033300
18033300
18333300
0c633300
07c73300
00000000
00000000
00000000
00000000
00000000
ENDCHAR
STARTCHAR a7b0
ENCODING 42928 
SWIDTH 96 0
DWIDTH 26 0
BBX 26 27 0 -1
BITMAP 
00000000
00000000
00000000
70000000
30000000
30000000
30000000
30000000
30000000
30000000
3070cc00
3061fe00
30c33300
31833300
33033300
36033300
3c033300
36033300
33033300
31833300
30c33300
30633300
78733300
00000000
00000000
00000000
00000000
ENDCHAR
STARTCHAR a7b7
ENCODING 42935 
SWIDTH 96 0
DWIDTH 26 0
BBX 26 27 0 -1
BITMAP 
00000000
00000000
00000000
00000000
00000000
00000000
00000000
00000000
00000000
0cc0f980
1fe18f00
33330600
33330600
33330600
33318c00
3330f800
33318000
3331e000
33319c00
33330600
33330300
73330300
00018600
0000fc00
00000000
00000000
00000000
ENDCHAR
STARTCHAR a7b8
ENCODING 42936 
SWIDTH 96 0
DWIDTH 26 0
BBX 26 27 0 -1
BITMAP 
00000000
00000000
00000000
70000000
30000000
30000000
30000000
30000000
30000000
30000000
3070f980
30618f00
30c30600
31830600
33030600
36018c00
3c00f800
36018000
3301f000
31819c00
30c30600
30630300
70730300
00018600
0000fc00
00000000
00000000
ENDCHAR
STARTCHAR a1d7
ENCODING 41431 
SWIDTH 96 0
DWIDTH 26 0
BBX 26 27 0 -1
BITMAP 
00000000
00000000
001e0000
00210000
00418000
00438000
00430000
00600000
00380000
001c0000
00670000
00838000
0080c000
00c04000
00704000
00388000
000f0000
00070000
00018000
00008000
00208000
00708000
00708000
00310000
001e0000
00000000
00000000
ENDCHAR
STARTCHAR a1d8
ENCODING 41432 
SWIDTH 96 0
DWIDTH 26 0
BBX 26 27 0 -1
BITMAP 
00000000
00000000
00000000
00000000
00000000
0c0c0c00
061e1800
031e3000
018c6000
00c0c000
00618000
06331800
0f1e3c00
0f0c3c00
061e1800
00330000
00618000
00c0c000
018c6000
031e3000
061e1800
0c0c0c00
00000000
00000000
00000000
00000000
00000000
ENDCHAR
STARTCHAR a1d9
ENCODING 41433 
SWIDTH 96 0
DWIDTH 26 0
BBX 26 27 0 -1
BITMAP 
00000000
00080000
00080000
00080000
001c0000
00140000
00360000
00220000
00220000
00630000
7fe1ff80
30000300
1c000e00
06001800
03807000
00c0c000
01804000
01886000
011c2000
01362000
0363a000
03c0f000
03007000
06003000
04001000
00000000
00000000
ENDCHAR
STARTCHAR a1da
ENCODING 41434 
SWIDTH 96 0
DWIDTH 26 0
BBX 26 27 0 -1
BITMAP 
00000000
00080000
00080000
00080000
001c0000
001c0000
003e0000
003e0000
003e0000
007f0000
7fffff80
3fffff00
1ffffe00
07fff800
03fff000
00ffc000
01ffc000
01ffe000
01ffe000
01f7e000
03e3e000
03c0f000
03007000
06003000
04001000
00000000
00000000
ENDCHAR
STARTCHAR a1db
ENCODING 41435 
SWIDTH 96 0
DWIDTH 26 0
BBX 26 27 0 -1
BITMAP 
00000000
00000000
00000000
003f0000
00e1c000
03807000
06001800
04000800
0c000c00
08000400
18000600
10000200
10000200
10000200
10000200
18000600
08000400
0c000c00
04000800
06001800
03807000
00e1c000
003f0000
00000000
00000000
00000000
00000000
ENDCHAR
STARTCHAR a1dc
ENCODING 41436 
SWIDTH 96 0
DWIDTH 26 0
BBX 26 27 0 -1
BITMAP 
00000000
00000000
00000000
003f0000
00ffc000
03fff000
07fff800
07fff800
0ffffc00
0ffffc00
1ffffe00
1ffffe00
1ffffe00
1ffffe00
1ffffe00
1ffffe00
0ffffc00
0ffffc00
0ffff800
07fff800
03fff000
00ffc000
003f0000
00000000
00000000
00000000
00000000
ENDCHAR
STARTCHAR a1dd
ENCODING 41437 
SWIDTH 96 0
DWIDTH 26 0
BBX 26 27 0 -1
BITMAP 
00000000
00000000
00000000
003f0000
00e1c000
03807000
061e1800
04618800
0cc0cc00
09806400
19002600
12001200
12001200
12001200
12001200
19002600
09806400
0cc0cc00
04618800
061e1800
03807000
00e1c000
003f0000
00000000
00000000
00000000
00000000
ENDCHAR
STARTCHAR a1de
ENCODING 41438 
SWIDTH 96 0
DWIDTH 26 0
BBX 26 27 0 -1
BITMAP 
00000000
00040000
000e0000
001b0000
00318000
0060c000
00c06000
01803000
03001800
06000c00
0c000600
18000300
30000180
18000300
0c000600
06000c00
03001800
01803000
00c06000
0060c000
00318000
001b0000
000e0000
00040000
00000000
00000000
00000000
ENDCHAR
STARTCHAR a1df
ENCODING 41439 
SWIDTH 96 0
DWIDTH 26 0
BBX 26 27 0 -1
BITMAP 
00000000
00040000
000e0000
001f0000
003f8000
007fc000
00ffe000
01fff000
03fff800
07fffc00
0ffffe00
1fffff00
3fffff80
1fffff00
0ffffe00
07fffc00
03fff800
01fff000
00ffe000
007fc000
003f8000
001f0000
000e0000
00040000
00000000
00000000
00000000
ENDCHAR
STARTCHAR a1e0
ENCODING 41440 
SWIDTH 96 0
DWIDTH 26 0
BBX 26 27 0 -1
BITMAP 
00000000
00000000
00000000
1ffffe00
10000200
10000200
10000200
10000200
10000200
10000200
10000200
10000200
10000200
10000200
10000200
10000200
10000200
10000200
10000200
10000200
10000200
10000200
1ffffe00
00000000
00000000
00000000
00000000
ENDCHAR
STARTCHAR a1e1
ENCODING 41441 
SWIDTH 96 0
DWIDTH 26 0
BBX 26 27 0 -1
BITMAP 
00000000
00000000
00000000
1ffffe00
1ffffe00
1ffffe00
1ffffe00
1ffffe00
1ffffe00
1ffffe00
1ffffe00
1ffffe00
1ffffe00
1ffffe00
1ffffe00
1ffffe00
1ffffe00
1ffffe00
1ffffe00
1ffffe00
1ffffe00
1ffffe00
1ffffe00
00000000
00000000
00000000
00000000
ENDCHAR
STARTCHAR a1e2
ENCODING 41442 
SWIDTH 96 0
DWIDTH 26 0
BBX 26 27 0 -1
BITMAP 
00000000
00000000
00080000
001c0000
00360000
00220000
00630000
00410000
00c18000
0180c000
01004000
03006000
02002000
06003000
0c001800
08000800
18000c00
10000400
30000600
20000200
7fffff00
00000000
00000000
00000000
00000000
00000000
00000000
ENDCHAR
STARTCHAR a1e3
ENCODING 41443 
SWIDTH 96 0
DWIDTH 26 0
BBX 26 27 0 -1
BITMAP 
00000000
00000000
00080000
001c0000
003e0000
003e0000
007f0000
007f0000
00ff8000
01ffc000
01ffc000
03ffe000
03ffe000
07fff000
0ffff800
0ffff800
1ffffc00
1ffffc00
3ffffe00
3ffffe00
7fffff00
00000000
00000000
00000000
00000000
00000000
00000000
ENDCHAR
STARTCHAR a1e4
ENCODING 41444 
SWIDTH 96 0
DWIDTH 26 0
BBX 26 27 0 -1
BITMAP 
00000000
00000000
00000000
00000000
00000000
7fffff00
20000200
30000600
10000400
18000c00
08000800
0c001800
06003000
02002000
03006000
01004000
0180c000
00c18000
00410000
00630000
00220000
00360000
001c0000
00080000
00000000
00000000
00000000
ENDCHAR
STARTCHAR a1e5
ENCODING 41445 
SWIDTH 96 0
DWIDTH 26 0
BBX 26 27 0 -1
BITMAP 
00000000
00000000
00000000
00000000
00000000
7fffff00
3ffffe00
3ffffe00
1ffffc00
1ffffc00
0ffff800
0ffff800
07fff000
03ffe000
03ffe000
01ffc000
01ffc000
00ff8000
007f0000
007f0000
003e0000
003e0000
001c0000
00080000
00000000
00000000
00000000
ENDCHAR
STARTCHAR a1e6
ENCODING 41446 
SWIDTH 96 0
DWIDTH 26 0
BBX 26 27 0 -1
BITMAP 
00000000
00000000
00000000
00000000
00010000
00018000
0000c000
00006000
00003000
00001800
00000c00
00000600
3fffff00
3fffff00
00000600
00000c00
00001800
00003000
00006000
0000c000
00018000
00010000
00000000
00000000
00000000
00000000
00000000
ENDCHAR
STARTCHAR a1e7
ENCODING 41447 
SWIDTH 96 0
DWIDTH 26 0
BBX 26 27 0 -1
BITMAP 
00000000
00000000
00000000
00000000
00200000
00600000
00c00000
01800000
03000000
06000000
0c000000
18000000
3fffff00
3fffff00
18000000
0c000000
06000000
03000000
01800000
00c00000
00600000
00200000
00000000
00000000
00000000
00000000
00000000
ENDCHAR
STARTCHAR a1e8
ENCODING 41448 
SWIDTH 96 0
DWIDTH 26 0
BBX 26 27 0 -1
BITMAP 
00000000
00000000
000c0000
001e0000
003f0000
006d8000
00ccc000
018c6000
030c3000
060c1800
0c0c0c00
000c0000
000c0000
000c0000
000c0000
000c0000
000c0000
000c0000
000c0000
000c0000
000c0000
000c0000
000c0000
000c0000
00000000
00000000
00000000
ENDCHAR
STARTCHAR a1e9
ENCODING 41449 
SWIDTH 96 0
DWIDTH 26 0
BBX 26 27 0 -1
BITMAP 
00000000
00000000
000c0000
000c0000
000c0000
000c0000
000c0000
000c0000
000c0000
000c0000
000c0000
000c0000
000c0000
000c0000
000c0000
0c0c0c00
060c1800
030c3000
018c6000
00ccc000
006d8000
003f0000
001e0000
000c0000
00000000
00000000
00000000
ENDCHAR
STARTCHAR a1ea
ENCODING 41450 
SWIDTH 96 0
DWIDTH 26 0
BBX 26 27 0 -1
BITMAP 
00000000
00000000
00000000
00000000
00000000
00000000
01004000
03006000
06003000
0c001800
18000c00
30000600
7fffff00
7fffff00
30000600
18000c00
0c001800
06003000
03006000
01004000
00000000
00000000
00000000
00000000
00000000
00000000
00000000
ENDCHAR
STARTCHAR a1eb
ENCODING 41451 
SWIDTH 96 0
DWIDTH 26 0
BBX 26 27 0 -1
BITMAP 
00000000
00000000
00000000
00000000
00000000
00000000
3fffff00
3fffff00
3fffff00
3fffff00
3fffff00
00000000
00000000
00000000
00000000
3fffff00
3fffff00
3fffff00
3fffff00
3fffff00
00000000
00000000
00000000
00000000
00000000
00000000
00000000
ENDCHAR
STARTCHAR a1fe
ENCODING 41470 
SWIDTH 96 0
DWIDTH 26 0
BBX 26 27 0 -1
BITMAP 
00000000
00000000
00000000
3ffffe00
3ffffe00
00000600
00000600
00000600
00000600
00000600
00000600
00000600
00000000
00000000
00000000
00000000
00000000
00000000
00000000
00000000
00000000
00000000
00000000
00000000
00000000
00000000
00000000
ENDCHAR
STARTCHAR a1c1
ENCODING 41409 
SWIDTH 96 0
DWIDTH 26 0
BBX 26 27 0 -1
BITMAP 
00000000
00000000
00000000
08000000
04000000
02000000
01000000
00800000
00400000
1ffffc00
1ffffc00
00100000
00080000
00040000
00020000
1ffffc00
1ffffc00
00008000
00004000
00002000
00001000
00000800
00000000
00000000
00000000
00000000
00000000
ENDCHAR
STARTCHAR a1c2
ENCODING 41410 
SWIDTH 96 0
DWIDTH 26 0
BBX 26 27 0 -1
BITMAP 
00000000
00000000
00000000
00000000
00000000
00003800
0001c000
000e0000
00300000
00c00000
03000000
0c000000
30000000
0c000000
03000000
00c00000
00300000
000e0000
0001c000
00003800
00000000
00000000
00000000
3ffffe00
00000000
00000000
00000000
ENDCHAR
STARTCHAR a1c3
ENCODING 41411 
SWIDTH 96 0
DWIDTH 26 0
BBX 26 27 0 -1
BITMAP 
00000000
00000000
00000000
00000000
00000000
03800000
00700000
000e0000
00018000
00006000
00001800
00000600
00000180
00000600
00001800
00006000
00018000
000e0000
00700000
03800000
00000000
00000000
00000000
0fffff80
00000000
00000000
00000000
ENDCHAR
STARTCHAR a1ca
ENCODING 41418 
SWIDTH 96 0
DWIDTH 26 0
BBX 26 27 0 -1
BITMAP 
00000000
00180000
00240000
00420000
00420000
00240000
00180000
00000000
00000000
00080000
00140000
00360000
00220000
00630000
00c18000
00c18000
0180c000
01ffc000
03006000
03006000
06003000
04001000
0c001800
18000c00
3c001e00
00000000
00000000
ENDCHAR
STARTCHAR a1ce
ENCODING 41422 
SWIDTH 96 0
DWIDTH 26 0
BBX 26 27 0 -1
BITMAP 
00000000
00000000
000c0000
001e0000
003f0000
006d8000
00ccc000
018c6000
030c3000
060c1800
0c0c0c00
000c0000
000c0000
000c0000
001e0000
007f8000
00e1c000
00c0c000
01806000
01806000
01806000
00c0c000
00e1c000
007f8000
001e0000
00000000
00000000
ENDCHAR
STARTCHAR a1cf
ENCODING 41423 
SWIDTH 96 0
DWIDTH 26 0
BBX 26 27 0 -1
BITMAP 
00000000
00000000
001e0000
007f8000
00e1c000
00c0c000
01806000
01806000
01806000
01806000
00c0c000
00e1c000
007f8000
001e0000
000c0000
000c0000
1ffffe00
1ffffe00
000c0000
000c0000
000c0000
000c0000
000c0000
000c0000
000c0000
00000000
00000000
ENDCHAR
STARTCHAR a1d0
ENCODING 41424 
SWIDTH 96 0
DWIDTH 26 0
BBX 26 27 0 -1
BITMAP 
00000000
00000000
00000000
00000000
00000800
00001000
00002000
00004000
00008000
00010000
00020000
00040000
00080000
00100000
00200000
00400000
00800000
01000000
02000000
04000000
0ffffc00
00000000
00000000
00000000
00000000
00000000
00000000
ENDCHAR
STARTCHAR a1d1
ENCODING 41425 
SWIDTH 96 0
DWIDTH 26 0
BBX 26 27 0 -1
BITMAP 
00000000
00000000
00000000
00000000
00080000
00080000
00080000
00080000
00080000
00080000
00080000
00080000
00080000
00080000
00080000
00080000
00080000
00080000
00080000
00080000
1ffffc00
00000000
00000000
00000000
00000000
00000000
00000000
ENDCHAR
STARTCHAR a1d2
ENCODING 41426 
SWIDTH 96 0
DWIDTH 26 0
BBX 26 27 0 -1
BITMAP 
00000000
00000000
00000000
00000000
00000000
00000000
00000000
00000000
00ffc000
03fff000
0f003c00
18000600
20000100
40000080
00000000
00000000
00000000
00000000
00000000
00000000
00000000
00000000
00000000
00000000
00000000
00000000
00000000
ENDCHAR
STARTCHAR a1d3
ENCODING 41427 
SWIDTH 96 0
DWIDTH 26 0
BBX 26 27 0 -1
BITMAP 
00000000
00000000
00000000
000f8000
00304000
00402000
00002000
00002000
00002000
00002000
003c4000
00c24000
01014000
02008000
02008000
04010000
04010000
04020000
04040000
04080000
02300000
01c00000
00000000
00000000
00000000
00000000
00000000
ENDCHAR
STARTCHAR a1d4
ENCODING 41428 
SWIDTH 96 0
DWIDTH 26 0
BBX 26 27 0 -1
BITMAP 
00000000
00000000
00000000
1ffffe00
10000200
08000400
08000400
04000800
04000800
02001000
02001000
01002000
01002000
00804000
00804000
00408000
00408000
00210000
00210000
00120000
00120000
000c0000
000c0000
00000000
00000000
00000000
00000000
ENDCHAR
STARTCHAR a1d5
ENCODING 41429 
SWIDTH 96 0
DWIDTH 26 0
BBX 26 27 0 -1
BITMAP 
00000000
00000000
00000000
00000000
00000000
0ffffc00
00000000
00000000
00000000
00000000
00000000
00000000
0ffffc00
00000000
00000000
00000000
00000000
00000000
00000000
0ffffc00
00000000
00000000
00000000
00000000
00000000
00000000
00000000
ENDCHAR
STARTCHAR a1d6
ENCODING 41430 
SWIDTH 96 0
DWIDTH 26 0
BBX 26 27 0 -1
BITMAP 
00000000
00000000
00000000
00000000
03800000
07c00000
03800000
00000000
00000000
0ffffc00
00000000
00000000
00000000
00000000
00000000
00000000
0ffffc00
00000000
00000000
00007000
0000f800
00007000
00000000
00000000
00000000
00000000
00000000
ENDCHAR
STARTCHAR a1ec
ENCODING 41452 
SWIDTH 96 0
DWIDTH 26 0
BBX 26 27 0 -1
BITMAP 
00000000
00000000
00000000
00040200
00080400
00100800
00201000
00402000
00804000
01008000
02010000
04020000
180c0000
04020000
02010000
01008000
00804000
00402000
00201000
00100800
00080400
00040200
00000000
00000000
00000000
00000000
00000000
ENDCHAR
STARTCHAR a1ed
ENCODING 41453 
SWIDTH 96 0
DWIDTH 26 0
BBX 26 27 0 -1
BITMAP 
00000000
00000000
00000000
10080000
08040000
04020000
02010000
01008000
00804000
00402000
00201000
00100800
000c0600
00100800
00201000
00402000
00804000
01008000
02010000
04020000
08040000
10080000
00000000
00000000
00000000
00000000
00000000
ENDCHAR
STARTCHAR a1ee
ENCODING 41454 
SWIDTH 96 0
DWIDTH 26 0
BBX 26 27 0 -1
BITMAP 
00000000
0007ff80
00040000
00040000
00080000
00080000
00080000
00100000
00100000
00100000
00200000
00200000
00200000
00400000
00400000
00400000
10800000
10800000
28800000
49000000
05000000
05000000
02000000
02000000
02000000
00000000
00000000
ENDCHAR
STARTCHAR a1ef
ENCODING 41455 
SWIDTH 96 0
DWIDTH 26 0
BBX 26 27 0 -1
BITMAP 
00000000
00000000
00000000
00000000
00000000
00000000
00000000
01c0e000
06011800
08020400
10020200
10040200
10040200
10080200
10080200
10100200
08100400
06201800
01c0e000
00000000
00000000
00000000
00000000
00000000
00000000
00000000
00000000
ENDCHAR
STARTCHAR a3a1
ENCODING 41889 
SWIDTH 96 0
DWIDTH 26 0
BBX 26 27 0 -1
BITMAP 
00000000
00000000
00080000
001c0000
001c0000
001c0000
001c0000
001c0000
001c0000
001c0000
001c0000
00080000
00080000
00080000
00080000
00080000
00080000
00080000
00000000
00000000
00080000
001c0000
001c0000
00080000
00000000
00000000
00000000
ENDCHAR
STARTCHAR a3a3
ENCODING 41891 
SWIDTH 96 0
DWIDTH 26 0
BBX 26 27 0 -1
BITMAP 
00000000
00000000
0000c000
00c0c000
00c0c000
00c0c000
00c0c000
00c0f800
00ffc000
07c0c000
00c0c000
00c0c000
00c0c000
00c0c000
00c0c000
00c0c000
00c0f800
00ffc000
07c0c000
00c0c000
00c0c000
00c0c000
00c0c000
00c00000
00000000
00000000
00000000
ENDCHAR
STARTCHAR a3a4
ENCODING 41892 
SWIDTH 96 0
DWIDTH 26 0
BBX 26 27 0 -1
BITMAP 
00000000
000c0000
000c0000
007f8000
00ccc000
018c6000
018ce000
018ce000
018c4000
01cc0000
00ec0000
007e0000
001f8000
000dc000
000ce000
000c7000
010c3000
038c3000
038c3000
030c6000
018c6000
00ccc000
007f8000
000c0000
000c0000
00000000
00000000
ENDCHAR
STARTCHAR a3a5
ENCODING 41893 
SWIDTH 96 0
DWIDTH 26 0
BBX 26 27 0 -1
BITMAP 
00000000
00000180
03c00300
0c600600
18300c00
30301800
30303000
60306000
6030c000
60618000
60630000
60c60000
318c3c00
1e18c600
00318300
00630300
00c30300
01860300
03060300
06060600
0c060600
18060c00
30031800
6001e000
40000000
00000000
00000000
ENDCHAR
STARTCHAR a3a6
ENCODING 41894 
SWIDTH 96 0
DWIDTH 26 0
BBX 26 27 0 -1
BITMAP 
00000000
00000000
00000000
00f80000
018c0000
03060000
03060000
03060000
03060000
019c0000
00f00000
01c00000
03600000
0730f800
06382000
0e1c2000
0c0c6000
0c064000
0e07c000
06038000
0701c000
03c6e000
00fc3c00
00000000
00000000
00000000
00000000
ENDCHAR
STARTCHAR a3a7
ENCODING 41895 
SWIDTH 96 0
DWIDTH 26 0
BBX 26 27 0 -1
BITMAP 
00000000
00000000
00000000
001c0000
001c0000
001c0000
001c0000
00080000
00080000
00080000
00000000
00000000
00000000
00000000
00000000
00000000
00000000
00000000
00000000
00000000
00000000
00000000
00000000
00000000
00000000
00000000
00000000
ENDCHAR
STARTCHAR a3a8
ENCODING 41896 
SWIDTH 96 0
DWIDTH 26 0
BBX 26 27 0 -1
BITMAP 
00000000
00000100
00000200
00000400
00000c00
00000800
00001800
00001800
00003000
00003000
00003000
00003000
00003000
00003000
00003000
00003000
00003000
00003000
00001800
00001800
00000800
00000c00
00000400
00000200
00000100
00000000
00000000
ENDCHAR
STARTCHAR a3a9
ENCODING 41897 
SWIDTH 96 0
DWIDTH 26 0
BBX 26 27 0 -1
BITMAP 
00000000
20000000
10000000
08000000
0c000000
04000000
06000000
06000000
03000000
03000000
03000000
03000000
03000000
03000000
03000000
03000000
03000000
03000000
06000000
06000000
04000000
0c000000
08000000
10000000
20000000
00000000
00000000
ENDCHAR
STARTCHAR a3aa
ENCODING 41898 
SWIDTH 96 0
DWIDTH 26 0
BBX 26 27 0 -1
BITMAP 
00000000
00000000
00000000
00000000
00080000
001c0000
001c0000
061c3000
07087000
0388e000
0188c000
00410000
00000000
00000000
00410000
0188c000
0388e000
07087000
061c3000
001c0000
001c0000
00080000
00000000
00000000
00000000
00000000
00000000
ENDCHAR
STARTCHAR a3ab
ENCODING 41899 
SWIDTH 96 0
DWIDTH 26 0
BBX 26 27 0 -1
BITMAP 
00000000
00000000
00000000
00000000
000c0000
000c0000
000c0000
000c0000
000c0000
000c0000
000c0000
000c0000
0ffffc00
0ffffc00
000c0000
000c0000
000c0000
000c0000
000c0000
000c0000
000c0000
000c0000
00000000
00000000
00000000
00000000
00000000
ENDCHAR
STARTCHAR a3ac
ENCODING 41900 
SWIDTH 96 0
DWIDTH 26 0
BBX 26 27 0 -1
BITMAP 
00000000
00000000
00000000
00000000
00000000
00000000
00000000
00000000
00000000
00000000
00000000
00000000
00000000
00000000
00000000
00000000
00000000
00000000
03000000
07800000
07800000
03800000
01800000
03000000
06000000
00000000
00000000
ENDCHAR
STARTCHAR a3ad
ENCODING 41901 
SWIDTH 96 0
DWIDTH 26 0
BBX 26 27 0 -1
BITMAP 
00000000
00000000
00000000
00000000
00000000
00000000
00000000
00000000
00000000
00000000
00000000
00000000
0ffffc00
0ffffc00
00000000
00000000
00000000
00000000
00000000
00000000
00000000
00000000
00000000
00000000
00000000
00000000
00000000
ENDCHAR
STARTCHAR a3ae
ENCODING 41902 
SWIDTH 96 0
DWIDTH 26 0
BBX 26 27 0 -1
BITMAP 
00000000
00000000
00000000
00000000
00000000
00000000
00000000
00000000
00000000
00000000
00000000
00000000
00000000
00000000
00000000
00000000
00000000
00000000
00000000
03000000
07800000
07800000
03000000
00000000
00000000
00000000
00000000
ENDCHAR
STARTCHAR a3af
ENCODING 41903 
SWIDTH 96 0
DWIDTH 26 0
BBX 26 27 0 -1
BITMAP 
00000000
00000180
00000300
00000600
00000c00
00001800
00003000
00006000
0000c000
00018000
00030000
00060000
000c0000
00180000
00300000
00600000
00c00000
01800000
03000000
06000000
0c000000
18000000
30000000
60000000
40000000
00000000
00000000
ENDCHAR
STARTCHAR a3b0
ENCODING 41904 
SWIDTH 96 0
DWIDTH 26 0
BBX 26 27 0 -1
BITMAP 
00000000
00000000
00000000
007f8000
00c0c000
01806000
01806000
03003000
03003000
06001800
06001800
06001800
06001800
06001800
06001800
06001800
06001800
03003000
03003000
01806000
01806000
00c0c000
007f8000
00000000
00000000
00000000
00000000
ENDCHAR
STARTCHAR a3b1
ENCODING 41905 
SWIDTH 96 0
DWIDTH 26 0
BBX 26 27 0 -1
BITMAP 
00000000
00000000
00000000
000c0000
003c0000
00fc0000
000c0000
000c0000
000c0000
000c0000
000c0000
000c0000
000c0000
000c0000
000c0000
000c0000
000c0000
000c0000
000c0000
000c0000
000c0000
000c0000
00ffc000
00000000
00000000
00000000
00000000
ENDCHAR
STARTCHAR a3b2
ENCODING 41906 
SWIDTH 96 0
DWIDTH 26 0
BBX 26 27 0 -1
BITMAP 
00000000
00000000
00000000
00ffc000
03806000
07003000
07801800
07801800
03001800
00003000
00006000
0001c000
00070000
001c0000
00700000
00c00000
01800000
03000000
06000800
06000800
06000800
07fff800
07fff800
00000000
00000000
00000000
00000000
ENDCHAR
STARTCHAR a3b3
ENCODING 41907 
SWIDTH 96 0
DWIDTH 26 0
BBX 26 27 0 -1
BITMAP 
00000000
00000000
00000000
007f8000
01c0e000
03803000
03c01800
03c01800
01801800
00003000
00006000
0001c000
001f0000
0001c000
00007000
00003000
00001800
03001800
07801800
07803000
07003000
0380e000
00ff8000
00000000
00000000
00000000
00000000
ENDCHAR
STARTCHAR a3b4
ENCODING 41908 
SWIDTH 96 0
DWIDTH 26 0
BBX 26 27 0 -1
BITMAP 
00000000
00000000
00000000
00018000
00038000
00078000
000d8000
00198000
00318000
00618000
00c18000
01818000
03018000
06018000
0c018000
18018000
18018000
1ffffc00
00018000
00018000
00018000
00018000
000ff000
00000000
00000000
00000000
00000000
ENDCHAR
STARTCHAR a3b5
ENCODING 41909 
SWIDTH 96 0
DWIDTH 26 0
BBX 26 27 0 -1
BITMAP 
00000000
00000000
00000000
03fff000
03fff000
03000000
03000000
03000000
03000000
03000000
031f0000
0361c000
0380e000
03003000
00001800
00001800
00001800
03001800
07801800
07803000
03006000
0181c000
00ff0000
00000000
00000000
00000000
00000000
ENDCHAR
STARTCHAR a3b6
ENCODING 41910 
SWIDTH 96 0
DWIDTH 26 0
BBX 26 27 0 -1
BITMAP 
00000000
00000000
00000000
003fc000
00e06000
01c0f000
0300f000
03006000
06000000
06000000
06000000
063f8000
06e0e000
07807000
07003000
06001800
06001800
06001800
06001800
03003000
03807000
01c0e000
007f8000
00000000
00000000
00000000
00000000
ENDCHAR
STARTCHAR a3b7
ENCODING 41911 
SWIDTH 96 0
DWIDTH 26 0
BBX 26 27 0 -1
BITMAP 
00000000
00000000
00000000
03fff800
07fff800
04001800
04001800
04003000
00003000
00006000
0000c000
00018000
00030000
00060000
00060000
000c0000
000c0000
000c0000
000c0000
000c0000
000c0000
000c0000
000c0000
00000000
00000000
00000000
00000000
ENDCHAR
STARTCHAR a3b8
ENCODING 41912 
SWIDTH 96 0
DWIDTH 26 0
BBX 26 27 0 -1
BITMAP 
00000000
00000000
00000000
007f8000
00c0c000
01806000
03003000
03003000
03003000
01806000
00c0c000
00738000
003f0000
00e1c000
01806000
03003000
06001800
06001800
06001800
06001800
03003000
01806000
00ffc000
00000000
00000000
00000000
00000000
ENDCHAR
STARTCHAR a3b9
ENCODING 41913 
SWIDTH 96 0
DWIDTH 26 0
BBX 26 27 0 -1
BITMAP 
00000000
00000000
00000000
007f8000
01c0e000
03807000
03003000
06001800
06001800
06001800
06001800
03003800
03807800
01c1d800
007f1800
00001800
00001800
00001800
01803000
03c03000
03c0e000
0181c000
00ff0000
00000000
00000000
00000000
00000000
ENDCHAR
STARTCHAR a3ba
ENCODING 41914 
SWIDTH 96 0
DWIDTH 26 0
BBX 26 27 0 -1
BITMAP 
00000000
00000000
00000000
00000000
00000000
00000000
00000000
000c0000
001e0000
001e0000
000c0000
00000000
00000000
00000000
00000000
000c0000
001e0000
001e0000
000c0000
00000000
00000000
00000000
00000000
00000000
00000000
00000000
00000000
ENDCHAR
STARTCHAR a3bb
ENCODING 41915 
SWIDTH 96 0
DWIDTH 26 0
BBX 26 27 0 -1
BITMAP 
00000000
00000000
00000000
00000000
00000000
00000000
00000000
000c0000
001e0000
001e0000
000c0000
00000000
00000000
00000000
00000000
000c0000
001e0000
001e0000
000e0000
00060000
000c0000
00180000
00000000
00000000
00000000
00000000
00000000
ENDCHAR
STARTCHAR a3bc
ENCODING 41916 
SWIDTH 96 0
DWIDTH 26 0
BBX 26 27 0 -1
BITMAP 
00000000
00000000
00000000
00000000
00000c00
00003800
0000e000
00038000
000e0000
00380000
00e00000
03800000
0e000000
18000000
0e000000
03800000
00e00000
00380000
000e0000
00038000
0000e000
00003800
00000c00
00000000
00000000
00000000
00000000
ENDCHAR
STARTCHAR a3bd
ENCODING 41917 
SWIDTH 96 0
DWIDTH 26 0
BBX 26 27 0 -1
BITMAP 
00000000
00000000
00000000
00000000
00000000
00000000
00000000
00000000
00000000
0ffffc00
0ffffc00
00000000
00000000
00000000
00000000
0ffffc00
0ffffc00
00000000
00000000
00000000
00000000
00000000
00000000
00000000
00000000
00000000
00000000
ENDCHAR
STARTCHAR a3be
ENCODING 41918 
SWIDTH 96 0
DWIDTH 26 0
BBX 26 27 0 -1
BITMAP 
00000000
00000000
00000000
00000000
18000000
0e000000
03800000
00e00000
00380000
000e0000
00038000
0000e000
00003800
00000c00
00003800
0000e000
00038000
000e0000
00380000
00e00000
03800000
0e000000
18000000
00000000
00000000
00000000
00000000
ENDCHAR
STARTCHAR a3bf
ENCODING 41919 
SWIDTH 96 0
DWIDTH 26 0
BBX 26 27 0 -1
BITMAP 
00000000
00000000
003c0000
00c30000
01818000
0300c000
0380c000
0380c000
01018000
00018000
00030000
00060000
00060000
00040000
000c0000
00080000
00080000
00080000
00000000
00000000
00080000
001c0000
001c0000
00080000
00000000
00000000
00000000
ENDCHAR
STARTCHAR a3c0
ENCODING 41920 
SWIDTH 96 0
DWIDTH 26 0
BBX 26 27 0 -1
BITMAP 
00000000
00000000
00000000
007f8000
01c0e000
03003000
06001800
0c1ec800
0871cc00
18c0c400
10c0c400
1180c400
11818400
11818400
11818c00
11838800
18c59800
0878f000
0c000000
06000800
03003000
01c0e000
007f8000
00000000
00000000
00000000
00000000
ENDCHAR
STARTCHAR a3c1
ENCODING 41921 
SWIDTH 96 0
DWIDTH 26 0
BBX 26 27 0 -1
BITMAP 
00000000
00000000
00000000
000c0000
001e0000
001e0000
003f0000
00330000
00330000
00738000
00618000
00e1c000
00c0c000
00c0c000
01c0e000
01ffe000
03807000
03003000
03003000
07003800
07003800
06001800
1f807e00
00000000
00000000
00000000
00000000
ENDCHAR
STARTCHAR a3c2
ENCODING 41922 
SWIDTH 96 0
DWIDTH 26 0
BBX 26 27 0 -1
BITMAP 
00000000
00000000
00000000
07ff0000
0181c000
01806000
01803000
01803000
01803000
01803000
01806000
0180c000
01ff8000
0180e000
01803800
01801800
01800c00
01800c00
01800c00
01801800
01801800
01807000
07ffc000
00000000
00000000
00000000
00000000
ENDCHAR
STARTCHAR a3c3
ENCODING 41923 
SWIDTH 96 0
DWIDTH 26 0
BBX 26 27 0 -1
BITMAP 
00000000
00000000
00000000
007f8800
01c0f800
03007800
07003800
06001800
0e000800
0c000000
0c000000
0c000000
0c000000
0c000000
0c000000
0c000000
0e000000
06000000
06001800
03003000
01806000
00e0c000
003f8000
00000000
00000000
00000000
00000000
ENDCHAR
STARTCHAR a3c4
ENCODING 41924 
SWIDTH 96 0
DWIDTH 26 0
BBX 26 27 0 -1
BITMAP 
00000000
00000000
00000000
0fff0000
0301c000
03007000
03003000
03001800
03001800
03000c00
03000c00
03000c00
03000c00
03000c00
03000c00
03000c00
03000c00
03001800
03001800
03003000
03007000
0301c000
0fff0000
00000000
00000000
00000000
00000000
ENDCHAR
STARTCHAR a3c5
ENCODING 41925 
SWIDTH 96 0
DWIDTH 26 0
BBX 26 27 0 -1
BITMAP 
00000000
00000000
00000000
07fff000
01807000
01803000
01801000
01801000
01800000
01810000
01810000
01830000
01ff0000
01830000
01810000
01810000
01800000
01800000
01801000
01801000
01803000
01807000
07fff000
00000000
00000000
00000000
00000000
ENDCHAR
STARTCHAR a3c6
ENCODING 41926 
SWIDTH 96 0
DWIDTH 26 0
BBX 26 27 0 -1
BITMAP 
00000000
00000000
00000000
07fff000
01807000
01803000
01801000
01801000
01800000
01810000
01810000
01830000
01ff0000
01830000
01810000
01810000
01800000
01800000
01800000
01800000
01800000
01800000
07e00000
00000000
00000000
00000000
00000000
ENDCHAR
STARTCHAR a3c7
ENCODING 41927 
SWIDTH 96 0
DWIDTH 26 0
BBX 26 27 0 -1
BITMAP 
00000000
00000000
00000000
007f1000
01c0f000
03807000
03003000
06001000
06001000
0e000000
0c000000
0c000000
0c000000
0c00fc00
0c003000
0c003000
0e003000
06003000
06007000
03007000
0380f000
01c1b000
007f3000
00000000
00000000
00000000
00000000
ENDCHAR
STARTCHAR a3c8
ENCODING 41928 
SWIDTH 96 0
DWIDTH 26 0
BBX 26 27 0 -1
BITMAP 
00000000
00000000
00000000
0fc0fc00
03003000
03003000
03003000
03003000
03003000
03003000
03003000
03003000
03fff000
03003000
03003000
03003000
03003000
03003000
03003000
03003000
03003000
03003000
0fc0fc00
00000000
00000000
00000000
00000000
ENDCHAR
STARTCHAR a3c9
ENCODING 41929 
SWIDTH 96 0
DWIDTH 26 0
BBX 26 27 0 -1
BITMAP 
00000000
00000000
00000000
007f8000
000c0000
000c0000
000c0000
000c0000
000c0000
000c0000
000c0000
000c0000
000c0000
000c0000
000c0000
000c0000
000c0000
000c0000
000c0000
000c0000
000c0000
000c0000
007f8000
00000000
00000000
00000000
00000000
ENDCHAR
STARTCHAR a3ca
ENCODING 41930 
SWIDTH 96 0
DWIDTH 26 0
BBX 26 27 0 -1
BITMAP 
00000000
00000000
00000000
0003f000
0000c000
0000c000
0000c000
0000c000
0000c000
0000c000
0000c000
0000c000
0000c000
0000c000
0000c000
0000c000
0300c000
0780c000
0780c000
0701c000
03018000
01870000
00fc0000
00000000
00000000
00000000
00000000
ENDCHAR
STARTCHAR a3cb
ENCODING 41931 
SWIDTH 96 0
DWIDTH 26 0
BBX 26 27 0 -1
BITMAP 
00000000
00000000
00000000
0fc1fc00
03006000
0300c000
03018000
03030000
03060000
030c0000
03180000
03380000
037c0000
03ce0000
03860000
03070000
03030000
03018000
0301c000
0300e000
0300e000
03007000
0fc1fc00
00000000
00000000
00000000
00000000
ENDCHAR
STARTCHAR a3cc
ENCODING 41932 
SWIDTH 96 0
DWIDTH 26 0
BBX 26 27 0 -1
BITMAP 
00000000
00000000
00000000
07e00000
01800000
01800000
01800000
01800000
01800000
01800000
01800000
01800000
01800000
01800000
01800000
01800000
01800000
01800000
01800800
01800800
01801800
01803800
07fff800
00000000
00000000
00000000
00000000
ENDCHAR
STARTCHAR a3cd
ENCODING 41933 
SWIDTH 96 0
DWIDTH 26 0
BBX 26 27 0 -1
BITMAP 
00000000
00000000
00000000
1e001e00
0e001c00
0f003c00
0f003c00
0d806c00
0d806c00
0dc0ec00
0cc0cc00
0ce1cc00
0c618c00
0c738c00
0c330c00
0c3f0c00
0c1e0c00
0c1e0c00
0c0c0c00
0c0c0c00
0c000c00
0c000c00
3f003f00
00000000
00000000
00000000
00000000
ENDCHAR
STARTCHAR a3ce
ENCODING 41934 
SWIDTH 96 0
DWIDTH 26 0
BBX 26 27 0 -1
BITMAP 
00000000
00000000
00000000
1f807e00
07c01800
06c01800
06e01800
06701800
06301800
06381800
061c1800
060c1800
060e1800
06071800
06031800
06039800
0601d800
0600d800
0600f800
06007800
06003800
06003800
1f801800
00000000
00000000
00000000
00000000
ENDCHAR
STARTCHAR a3cf
ENCODING 41935 
SWIDTH 96 0
DWIDTH 26 0
BBX 26 27 0 -1
BITMAP 
00000000
00000000
00000000
007f8000
01c0e000
03003000
07003800
06001800
06001800
0e001c00
0c000c00
0c000c00
0c000c00
0c000c00
0c000c00
0c000c00
0e001c00
06001800
06001800
07003800
03003000
01c0e000
007f8000
00000000
00000000
00000000
00000000
ENDCHAR
STARTCHAR a3d0
ENCODING 41936 
SWIDTH 96 0
DWIDTH 26 0
BBX 26 27 0 -1
BITMAP 
00000000
00000000
00000000
07ff8000
0180e000
01803000
01803000
01801800
01801800
01801800
01803000
01803000
0180e000
01ff8000
01800000
01800000
01800000
01800000
01800000
01800000
01800000
01800000
07e00000
00000000
00000000
00000000
00000000
ENDCHAR
STARTCHAR a3d1
ENCODING 41937 
SWIDTH 96 0
DWIDTH 26 0
BBX 26 27 0 -1
BITMAP 
00000000
00000000
00000000
007f8000
01c0e000
03003000
07003800
06001800
06001800
0e001c00
0c000c00
0c000c00
0c000c00
0c000c00
0c000c00
0c000c00
0e001c00
060e1800
061b1800
07019800
0300f000
01c0e000
007fb180
00001f00
00000e00
00000000
00000000
ENDCHAR
STARTCHAR a3d2
ENCODING 41938 
SWIDTH 96 0
DWIDTH 26 0
BBX 26 27 0 -1
BITMAP 
00000000
00000000
00000000
07ff0000
0181c000
01806000
01806000
01803000
01803000
01803000
01806000
01804000
0181c000
01ff0000
01860000
01830000
01818000
01818000
0180c000
0180c000
01806000
01803000
07e0fc00
00000000
00000000
00000000
00000000
ENDCHAR
STARTCHAR a3d3
ENCODING 41939 
SWIDTH 96 0
DWIDTH 26 0
BBX 26 27 0 -1
BITMAP 
00000000
00000000
00000000
007f9000
00c0f000
01807000
03003000
03001000
03800000
01c00000
00f00000
003c0000
000f0000
0003c000
0000f000
00003800
02001800
02001800
03001800
03803800
03c03000
03606000
023fc000
00000000
00000000
00000000
00000000
ENDCHAR
STARTCHAR a3d4
ENCODING 41940 
SWIDTH 96 0
DWIDTH 26 0
BBX 26 27 0 -1
BITMAP 
00000000
00000000
00000000
07fff800
070c3800
060c1800
040c0800
040c0800
000c0000
000c0000
000c0000
000c0000
000c0000
000c0000
000c0000
000c0000
000c0000
000c0000
000c0000
000c0000
000c0000
000c0000
003f0000
00000000
00000000
00000000
00000000
ENDCHAR
STARTCHAR a3d5
ENCODING 41941 
SWIDTH 96 0
DWIDTH 26 0
BBX 26 27 0 -1
BITMAP 
00000000
00000000
00000000
0fc0fc00
03003000
03003000
03003000
03003000
03003000
03003000
03003000
03003000
03003000
03003000
03003000
03003000
03003000
03003000
03003000
01806000
01c0e000
00e1c000
007f8000
00000000
00000000
00000000
00000000
ENDCHAR
STARTCHAR a3d6
ENCODING 41942 
SWIDTH 96 0
DWIDTH 26 0
BBX 26 27 0 -1
BITMAP 
00000000
00000000
00000000
1f807e00
06001800
06001800
07003800
03003000
03003000
03807000
01806000
01806000
01c0e000
00c0c000
00e0c000
00618000
00618000
00330000
00330000
001e0000
001e0000
000c0000
000c0000
00000000
00000000
00000000
00000000
ENDCHAR
STARTCHAR a3d7
ENCODING 41943 
SWIDTH 96 0
DWIDTH 26 0
BBX 26 27 0 -1
BITMAP 
00000000
00000000
00000000
7e3f1f80
180c0600
180c0600
1c1e0e00
0c3f0c00
0c330c00
0c330c00
0e739c00
06619800
06619800
06619800
06619800
07c0f800
03c0f000
03c0f000
03c0f000
01806000
01806000
01806000
01806000
00000000
00000000
00000000
00000000
ENDCHAR
STARTCHAR a3d8
ENCODING 41944 
SWIDTH 96 0
DWIDTH 26 0
BBX 26 27 0 -1
BITMAP 
00000000
00000000
00000000
1f807e00
07003800
03803000
01806000
01c0c000
00e1c000
00718000
00730000
003f0000
001e0000
001e0000
003f0000
00338000
00638000
00e1c000
00c0e000
01806000
03007000
07003800
1f807e00
00000000
00000000
00000000
00000000
ENDCHAR
STARTCHAR a3d9
ENCODING 41945 
SWIDTH 96 0
DWIDTH 26 0
BBX 26 27 0 -1
BITMAP 
00000000
00000000
00000000
1fc0fe00
07003800
03003000
03807000
01c0e000
00e1c000
00618000
00738000
003f0000
001e0000
000c0000
000c0000
000c0000
000c0000
000c0000
000c0000
000c0000
000c0000
000c0000
003f0000
00000000
00000000
00000000
00000000
ENDCHAR
STARTCHAR a3da
ENCODING 41946 
SWIDTH 96 0
DWIDTH 26 0
BBX 26 27 0 -1
BITMAP 
00000000
00000000
00000000
07fff800
07003800
06007000
0400e000
0400e000
0001c000
00038000
00070000
00070000
000e0000
001c0000
00380000
00700000
00e00000
01c00000
01800400
03800400
07000c00
0e001c00
0ffffc00
00000000
00000000
00000000
00000000
ENDCHAR
STARTCHAR a3db
ENCODING 41947 
SWIDTH 96 0
DWIDTH 26 0
BBX 26 27 0 -1
BITMAP 
00000000
00007e00
00004000
00004000
00004000
00004000
00004000
00004000
00004000
00004000
00004000
00004000
00004000
00004000
00004000
00004000
00004000
00004000
00004000
00004000
00004000
00004000
00004000
00004000
00007e00
00000000
00000000
ENDCHAR
STARTCHAR a3dc
ENCODING 41948 
SWIDTH 96 0
DWIDTH 26 0
BBX 26 27 0 -1
BITMAP 
00000000
00000000
00000000
3c000f00
18000600
180c0600
0c0c0c00
0c0c0c00
0c0c0c00
060c1800
06331800
06331800
7fffff80
7fffff80
03333000
03333000
03333000
01e1e000
01e1e000
01e1e000
00c0c000
00c0c000
00c0c000
00000000
00000000
00000000
00000000
ENDCHAR
STARTCHAR a3dd
ENCODING 41949 
SWIDTH 96 0
DWIDTH 26 0
BBX 26 27 0 -1
BITMAP 
00000000
1f800000
00800000
00800000
00800000
00800000
00800000
00800000
00800000
00800000
00800000
00800000
00800000
00800000
00800000
00800000
00800000
00800000
00800000
00800000
00800000
00800000
00800000
00800000
1f800000
00000000
00000000
ENDCHAR
STARTCHAR a3de
ENCODING 41950 
SWIDTH 96 0
DWIDTH 26 0
BBX 26 27 0 -1
BITMAP 
00000000
00000000
000c0000
001e0000
00330000
00618000
00c0c000
00804000
00000000
00000000
00000000
00000000
00000000
00000000
00000000
00000000
00000000
00000000
00000000
00000000
00000000
00000000
00000000
00000000
00000000
00000000
00000000
ENDCHAR
STARTCHAR a3df
ENCODING 41951 
SWIDTH 96 0
DWIDTH 26 0
BBX 26 27 0 -1
BITMAP 
00000000
00000000
00000000
00000000
00000000
00000000
00000000
00000000
00000000
00000000
00000000
00000000
00000000
00000000
00000000
00000000
00000000
00000000
00000000
00000000
00000000
00000000
00000000
00000000
7fffff80
00000000
00000000
ENDCHAR
STARTCHAR a3e0
ENCODING 41952 
SWIDTH 96 0
DWIDTH 26 0
BBX 26 27 0 -1
BITMAP 
00000000
00300000
00780000
001e0000
00038000
00000000
00000000
00000000
00000000
00000000
00000000
00000000
00000000
00000000
00000000
00000000
00000000
00000000
00000000
00000000
00000000
00000000
00000000
00000000
00000000
00000000
00000000
ENDCHAR
STARTCHAR a3e1
ENCODING 41953 
SWIDTH 96 0
DWIDTH 26 0
BBX 26 27 0 -1
BITMAP 
00000000
00000000
00000000
00000000
00000000
00000000
00000000
00000000
00000000
00000000
00fe0000
01830000
03c18000
01018000
00018000
007f8000
01c18000
03018000
03018000
03018000
03018000
03879000
01fce000
00000000
00000000
00000000
00000000
ENDCHAR
STARTCHAR a3e2
ENCODING 41954 
SWIDTH 96 0
DWIDTH 26 0
BBX 26 27 0 -1
BITMAP 
00000000
00000000
00000000
07800000
01800000
01800000
01800000
01800000
01800000
01800000
01bf8000
01e0c000
01c06000
01806000
01803000
01803000
01803000
01803000
01803000
01806000
01c06000
01e0c000
07bf8000
00000000
00000000
00000000
00000000
ENDCHAR
STARTCHAR a3e3
ENCODING 41955 
SWIDTH 96 0
DWIDTH 26 0
BBX 26 27 0 -1
BITMAP 
00000000
00000000
00000000
00000000
00000000
00000000
00000000
00000000
00000000
00000000
007f8000
00c1c000
0180e000
0181e000
0300c000
03000000
03000000
03000000
03000000
01800000
01806000
00c0c000
007f8000
00000000
00000000
00000000
00000000
ENDCHAR
STARTCHAR a3e4
ENCODING 41956 
SWIDTH 96 0
DWIDTH 26 0
BBX 26 27 0 -1
BITMAP 
00000000
00000000
00000000
0001e000
00006000
00006000
00006000
00006000
00006000
00006000
007f6000
00c1e000
0180e000
01806000
03006000
03006000
03006000
03006000
03006000
01806000
0180e000
00c1e000
007f2000
00000000
00000000
00000000
00000000
ENDCHAR
STARTCHAR a3e5
ENCODING 41957 
SWIDTH 96 0
DWIDTH 26 0
BBX 26 27 0 -1
BITMAP 
00000000
00000000
00000000
00000000
00000000
00000000
00000000
00000000
00000000
00000000
007f8000
00c0c000
01806000
01806000
03003000
03003000
03fff000
03000000
03000000
01800000
01803000
00c06000
007fc000
00000000
00000000
00000000
00000000
ENDCHAR
STARTCHAR a3e6
ENCODING 41958 
SWIDTH 96 0
DWIDTH 26 0
BBX 26 27 0 -1
BITMAP 
00000000
00000000
00000000
000f8000
0019c000
0031c000
00308000
00300000
00300000
00300000
03ff8000
00300000
00300000
00300000
00300000
00300000
00300000
00300000
00300000
00300000
00300000
00300000
00fc0000
00000000
00000000
00000000
00000000
ENDCHAR
STARTCHAR a3e7
ENCODING 41959 
SWIDTH 96 0
DWIDTH 26 0
BBX 26 27 0 -1
BITMAP 
00000000
00000000
00000000
00000000
00000000
00000000
00000000
00000000
00000000
00000000
007e6000
00c3e000
0181c000
01818000
01818000
00c30000
007e0000
00c00000
00f80000
019f8000
0303c000
03006000
03006000
0180c000
00ff8000
00000000
00000000
ENDCHAR
STARTCHAR a3e8
ENCODING 41960 
SWIDTH 96 0
DWIDTH 26 0
BBX 26 27 0 -1
BITMAP 
00000000
00000000
00000000
07800000
01800000
01800000
01800000
01800000
01800000
01800000
019f8000
01b1c000
01e0e000
01c06000
01806000
01806000
01806000
01806000
01806000
01806000
01806000
01806000
07e1f800
00000000
00000000
00000000
00000000
ENDCHAR
STARTCHAR a3e9
ENCODING 41961 
SWIDTH 96 0
DWIDTH 26 0
BBX 26 27 0 -1
BITMAP 
00000000
00000000
00000000
000c0000
001e0000
001e0000
000c0000
00000000
00000000
00000000
003c0000
000c0000
000c0000
000c0000
000c0000
000c0000
000c0000
000c0000
000c0000
000c0000
000c0000
000c0000
003f0000
00000000
00000000
00000000
00000000
ENDCHAR
STARTCHAR a3ea
ENCODING 41962 
SWIDTH 96 0
DWIDTH 26 0
BBX 26 27 0 -1
BITMAP 
00000000
00000000
00000000
00060000
000f0000
000f0000
00060000
00000000
00000000
00000000
000f0000
00030000
00030000
00030000
00030000
00030000
00030000
00030000
00030000
00030000
00c30000
01e30000
01c30000
00c60000
007c0000
00000000
00000000
ENDCHAR
STARTCHAR a3eb
ENCODING 41963 
SWIDTH 96 0
DWIDTH 26 0
BBX 26 27 0 -1
BITMAP 
00000000
00000000
00000000
07800000
01800000
01800000
01800000
01800000
01800000
01800000
0187e000
01818000
01830000
01860000
018c0000
019c0000
01b60000
01e30000
01818000
0180c000
01806000
01803000
07e0fc00
00000000
00000000
00000000
00000000
ENDCHAR
STARTCHAR a3ec
ENCODING 41964 
SWIDTH 96 0
DWIDTH 26 0
BBX 26 27 0 -1
BITMAP 
00000000
00000000
00000000
003c0000
000c0000
000c0000
000c0000
000c0000
000c0000
000c0000
000c0000
000c0000
000c0000
000c0000
000c0000
000c0000
000c0000
000c0000
000c0000
000c0000
000c0000
000c0000
003f0000
00000000
00000000
00000000
00000000
ENDCHAR
STARTCHAR a3ed
ENCODING 41965 
SWIDTH 96 0
DWIDTH 26 0
BBX 26 27 0 -1
BITMAP 
00000000
00000000
00000000
00000000
00000000
00000000
00000000
00000000
00000000
00000000
3cf1f000
0f9b1800
0e0e0c00
0c0c0c00
0c0c0c00
0c0c0c00
0c0c0c00
0c0c0c00
0c0c0c00
0c0c0c00
0c0c0c00
0c0c0c00
3f1e1e00
00000000
00000000
00000000
00000000
ENDCHAR
STARTCHAR a3ee
ENCODING 41966 
SWIDTH 96 0
DWIDTH 26 0
BBX 26 27 0 -1
BITMAP 
00000000
00000000
00000000
00000000
00000000
00000000
00000000
00000000
00000000
00000000
079f8000
01b0c000
01e06000
01c06000
01806000
01806000
01806000
01806000
01806000
01806000
01806000
01806000
07e1f800
00000000
00000000
00000000
00000000
ENDCHAR
STARTCHAR a3ef
ENCODING 41967 
SWIDTH 96 0
DWIDTH 26 0
BBX 26 27 0 -1
BITMAP 
00000000
00000000
00000000
00000000
00000000
00000000
00000000
00000000
00000000
00000000
007f8000
00c0c000
01806000
01806000
03003000
03003000
03003000
03003000
03003000
01806000
01806000
00c0c000
007f8000
00000000
00000000
00000000
00000000
ENDCHAR
STARTCHAR a3f0
ENCODING 41968 
SWIDTH 96 0
DWIDTH 26 0
BBX 26 27 0 -1
BITMAP 
00000000
00000000
00000000
00000000
00000000
00000000
00000000
00000000
00000000
00000000
03df8000
00f0c000
00e06000
00c06000
00c03000
00c03000
00c03000
00c06000
00e06000
00f0c000
00df8000
00c00000
00c00000
00c00000
03f00000
00000000
00000000
ENDCHAR
STARTCHAR a3f1
ENCODING 41969 
SWIDTH 96 0
DWIDTH 26 0
BBX 26 27 0 -1
BITMAP 
00000000
00000000
00000000
00000000
00000000
00000000
00000000
00000000
00000000
00000000
007e4000
00c3c000
0181c000
0180c000
0300c000
0300c000
0300c000
0180c000
0181c000
00c3c000
007ec000
0000c000
0000c000
0000c000
0003f000
00000000
00000000
ENDCHAR
STARTCHAR a3f2
ENCODING 41970 
SWIDTH 96 0
DWIDTH 26 0
BBX 26 27 0 -1
BITMAP 
00000000
00000000
00000000
00000000
00000000
00000000
00000000
00000000
00000000
00000000
03cf8000
00d9c000
00f1e000
00e0c000
00c00000
00c00000
00c00000
00c00000
00c00000
00c00000
00c00000
00c00000
03f00000
00000000
00000000
00000000
00000000
ENDCHAR
STARTCHAR a3f3
ENCODING 41971 
SWIDTH 96 0
DWIDTH 26 0
BBX 26 27 0 -1
BITMAP 
00000000
00000000
00000000
00000000
00000000
00000000
00000000
00000000
00000000
00000000
007f0000
00c1c000
0180c000
01804000
01e00000
00f80000
001f0000
0007c000
0000e000
01006000
01806000
01c0c000
007f8000
00000000
00000000
00000000
00000000
ENDCHAR
STARTCHAR a3f4
ENCODING 41972 
SWIDTH 96 0
DWIDTH 26 0
BBX 26 27 0 -1
BITMAP 
00000000
00000000
00000000
00000000
00000000
00100000
00300000
00300000
00300000
00300000
01ff8000
00300000
00300000
00300000
00300000
00300000
00300000
00300000
00300000
0030c000
0030c000
00198000
000f0000
00000000
00000000
00000000
00000000
ENDCHAR
STARTCHAR a3f5
ENCODING 41973 
SWIDTH 96 0
DWIDTH 26 0
BBX 26 27 0 -1
BITMAP 
00000000
00000000
00000000
00000000
00000000
00000000
00000000
00000000
00000000
00000000
0781e000
01806000
01806000
01806000
01806000
01806000
01806000
01806000
01806000
0180e000
0181e000
00c36000
007e7800
00000000
00000000
00000000
00000000
ENDCHAR
STARTCHAR a3f6
ENCODING 41974 
SWIDTH 96 0
DWIDTH 26 0
BBX 26 27 0 -1
BITMAP 
00000000
00000000
00000000
00000000
00000000
00000000
00000000
00000000
00000000
00000000
07e1f800
01806000
01806000
00c0c000
00c0c000
00618000
00618000
00330000
00330000
001e0000
001e0000
000c0000
000c0000
00000000
00000000
00000000
00000000
ENDCHAR
STARTCHAR a3f7
ENCODING 41975 
SWIDTH 96 0
DWIDTH 26 0
BBX 26 27 0 -1
BITMAP 
00000000
00000000
00000000
00000000
00000000
00000000
00000000
00000000
00000000
00000000
1e3e3c00
0c1c1800
0c1c1800
0c3e1800
06363000
06633000
06633000
06633000
03c1e000
03c1e000
0180c000
0180c000
0180c000
00000000
00000000
00000000
00000000
ENDCHAR
STARTCHAR a3f8
ENCODING 41976 
SWIDTH 96 0
DWIDTH 26 0
BBX 26 27 0 -1
BITMAP 
00000000
00000000
00000000
00000000
00000000
00000000
00000000
00000000
00000000
00000000
07e1f800
01806000
00c0c000
00618000
00330000
001e0000
000c0000
001e0000
00330000
00618000
00c0c000
01806000
07e1f800
00000000
00000000
00000000
00000000
ENDCHAR
STARTCHAR a3f9
ENCODING 41977 
SWIDTH 96 0
DWIDTH 26 0
BBX 26 27 0 -1
BITMAP 
00000000
00000000
00000000
00000000
00000000
00000000
00000000
00000000
00000000
00000000
07e0fc00
01803000
00c06000
00606000
0030c000
0030c000
00198000
000f0000
000f0000
00060000
000c0000
018c0000
03980000
03300000
01e00000
00000000
00000000
ENDCHAR
STARTCHAR a3fa
ENCODING 41978 
SWIDTH 96 0
DWIDTH 26 0
BBX 26 27 0 -1
BITMAP 
00000000
00000000
00000000
00000000
00000000
00000000
00000000
00000000
00000000
00000000
01ffe000
01806000
0100c000
01018000
00030000
00060000
000c0000
00180000
00301000
00601000
00c01000
01803000
01fff000
00000000
00000000
00000000
00000000
ENDCHAR
STARTCHAR a3fb
ENCODING 41979 
SWIDTH 96 0
DWIDTH 26 0
BBX 26 27 0 -1
BITMAP 
00000000
00000f00
00001800
00003000
00003000
00003000
00003000
00003000
00003000
00003000
00003000
00006000
0000c000
0000c000
00006000
00003000
00003000
00003000
00003000
00003000
00003000
00003000
00003000
00001800
00000f00
00000000
00000000
ENDCHAR
STARTCHAR a3fc
ENCODING 41980 
SWIDTH 96 0
DWIDTH 26 0
BBX 26 27 0 -1
BITMAP 
00000000
000c0000
000c0000
000c0000
000c0000
000c0000
000c0000
000c0000
000c0000
000c0000
000c0000
000c0000
000c0000
000c0000
000c0000
000c0000
000c0000
000c0000
000c0000
000c0000
000c0000
000c0000
000c0000
000c0000
000c0000
00000000
00000000
ENDCHAR
STARTCHAR a3fd
ENCODING 41981 
SWIDTH 96 0
DWIDTH 26 0
BBX 26 27 0 -1
BITMAP 
00000000
3c000000
06000000
03000000
03000000
03000000
03000000
03000000
03000000
03000000
03000000
01800000
00c00000
00c00000
01800000
03000000
03000000
03000000
03000000
03000000
03000000
03000000
03000000
06000000
3c000000
00000000
00000000
ENDCHAR
STARTCHAR a3fe
ENCODING 41982 
SWIDTH 96 0
DWIDTH 26 0
BBX 26 27 0 -1
BITMAP 
00000000
7fffff80
00000000
00000000
00000000
00000000
00000000
00000000
00000000
00000000
00000000
00000000
00000000
00000000
00000000
00000000
00000000
00000000
00000000
00000000
00000000
00000000
00000000
00000000
00000000
00000000
00000000
ENDCHAR
STARTCHAR a4d5
ENCODING 42197 
SWIDTH 96 0
DWIDTH 26 0
BBX 26 27 0 -1
BITMAP 
00000000
00000000
00000000
00000000
00000000
00000000
701c0000
1c070000
0c030000
0c030000
0c030000
0c030000
0c030000
0c030000
0c030000
0c030000
0c070000
0c1b0000
0fe30300
0781ff80
00000000
00000000
00000000
00000000
00000000
00000000
00000000
ENDCHAR
STARTCHAR a4d6
ENCODING 42198 
SWIDTH 96 0
DWIDTH 26 0
BBX 26 27 0 -1
BITMAP 
00000000
00000000
00000000
00000000
00000000
00000000
70000600
381fff00
18070000
18030000
18030000
18030000
18030000
18030000
18030000
18030000
180b0000
18330000
1fc30300
0f01ff80
00000000
00000000
00000000
00000000
00000000
00000000
00000000
ENDCHAR
STARTCHAR a4d7
ENCODING 42199 
SWIDTH 96 0
DWIDTH 26 0
BBX 26 27 0 -1
BITMAP 
00000000
00000000
00000000
00000000
00000000
00000000
7001c000
18006000
18006000
18006000
18006000
18006000
18006000
18006000
1800f000
1800d800
18098c00
18330700
1fc60380
0f080100
00000000
00000000
00000000
00000000
00000000
00000000
00000000
ENDCHAR
STARTCHAR a4d8
ENCODING 42200 
SWIDTH 96 0
DWIDTH 26 0
BBX 26 27 0 -1
BITMAP 
00000000
00000000
00000000
00000000
00000000
00000000
70006000
18006000
1800f000
18009000
18019800
18010800
18030c00
18020400
18060600
18040200
181c0300
18780100
1f980180
0e1fff80
00000000
00000000
00000000
00000000
00000000
00000000
00000000
ENDCHAR
STARTCHAR a4d9
ENCODING 42201 
SWIDTH 96 0
DWIDTH 26 0
BBX 26 27 0 -1
BITMAP 
00000000
00000000
00000000
00000000
00000000
00000000
7ffe7000
03461800
03061800
03061800
03061800
02061800
7f061800
70061800
30063800
30063c00
30466600
3186c300
3e078180
18060080
00000000
00000000
00000000
00000000
00000000
00000000
00000000
ENDCHAR
STARTCHAR a4da
ENCODING 42202 
SWIDTH 96 0
DWIDTH 26 0
BBX 26 27 0 -1
BITMAP 
00000000
00000000
00000000
00000000
00000000
00000000
7fe00600
20cfff00
00c30000
00c30000
00c30000
00830000
7fc30000
30030000
30030000
30030000
30030000
30730000
3f830300
1c01ff80
00000000
00000000
00000000
00000000
00000000
00000000
00000000
ENDCHAR
STARTCHAR a4db
ENCODING 42203 
SWIDTH 96 0
DWIDTH 26 0
BBX 26 27 0 -1
BITMAP 
00000000
00000000
00000000
00000000
00000000
00000000
7fe31800
03318c00
03318c00
03318c00
03318c00
02318c00
7f3f8c00
70318c00
30319c00
30319e00
30b1b300
3331e180
3c3fc180
18210080
00000000
00000000
00000000
00000000
00000000
00000000
00000000
ENDCHAR
STARTCHAR a4dc
ENCODING 42204 
SWIDTH 96 0
DWIDTH 26 0
BBX 26 27 0 -1
BITMAP 
00000000
00000000
00000000
00000000
00000000
00000000
7ff06000
00c0f000
00c09000
00c19800
00c10800
00830c00
7fc20400
30060600
30040200
300c0300
30280100
30d80180
3f1fff80
1c000000
00000000
00000000
00000000
00000000
00000000
00000000
00000000
ENDCHAR
STARTCHAR a4dd
ENCODING 42205 
SWIDTH 96 0
DWIDTH 26 0
BBX 26 27 0 -1
BITMAP 
00000000
00000000
00000000
00000000
00000000
00000000
7fe00600
00dfff00
00cc0000
00c04000
00c0e000
00831800
7fc60c00
300c0600
300c0600
300c0600
300c0600
30e60c00
3f031800
1c01f000
00000000
00000000
00000000
00000000
00000000
00000000
00000000
ENDCHAR
STARTCHAR a4de
ENCODING 42206 
SWIDTH 96 0
DWIDTH 26 0
BBX 26 27 0 -1
BITMAP 
00000000
00000000
00000000
00000000
00000000
00000000
7fec0c00
30660600
30660600
30660600
30660600
30660600
3067fe00
30660600
30660600
30660600
30660600
30660600
3fe7fe00
20440400
00000000
00000000
00000000
00000000
00000000
00000000
00000000
ENDCHAR
STARTCHAR a4df
ENCODING 42207 
SWIDTH 96 0
DWIDTH 26 0
BBX 26 27 0 -1
BITMAP 
00000000
00000000
00000000
00000000
00000000
00000000
7ff0e000
30603000
30603000
30603000
30603000
30603000
30603000
30603000
30607000
30607800
3060cc00
30618700
3fe30380
20440180
00000000
00000000
00000000
00000000
00000000
00000000
00000000
ENDCHAR
STARTCHAR a4e0
ENCODING 42208 
SWIDTH 96 0
DWIDTH 26 0
BBX 26 27 0 -1
BITMAP 
00000000
00000000
00000000
00000000
00000000
00000000
7ff06000
3060f000
30609000
30619800
30610800
30630c00
30620400
30660600
30640200
306c0300
30680100
30780180
3fffff80
20400000
00000000
00000000
00000000
00000000
00000000
00000000
00000000
ENDCHAR
STARTCHAR a4e1
ENCODING 42209 
SWIDTH 96 0
DWIDTH 26 0
BBX 26 27 0 -1
BITMAP 
00000000
00000000
00000000
00000000
00000000
00000000
0ffff800
03003000
03003000
03003000
03002000
03fff000
02000000
00040000
003f8000
00c06000
01803000
03001800
01803000
00c06000
003f8000
00000000
00000000
00000000
00000000
00000000
00000000
ENDCHAR
STARTCHAR a4e2
ENCODING 42210 
SWIDTH 96 0
DWIDTH 26 0
BBX 26 27 0 -1
BITMAP 
00000000
00000000
00000000
00000000
00000000
00000000
6067ff00
30330300
30300300
30300300
30300300
30300300
3ff00300
30300300
30300300
30300300
30300300
30300300
3ff00300
20200200
00000000
00000000
00000000
00000000
00000000
00000000
00000000
ENDCHAR
STARTCHAR a4e3
ENCODING 42211 
SWIDTH 96 0
DWIDTH 26 0
BBX 26 27 0 -1
BITMAP 
00000000
00000000
00000000
00000000
00000000
00000000
606fff00
30330000
30330000
30330000
30330000
30330000
3ff30000
30330000
30330000
30330000
30330000
30330300
3ff1ff80
20200000
00000000
00000000
00000000
00000000
00000000
00000000
00000000
ENDCHAR
STARTCHAR a4e4
ENCODING 42212 
SWIDTH 96 0
DWIDTH 26 0
BBX 26 27 0 -1
BITMAP 
00000000
00000000
00000000
00000000
00000000
00000000
6319fc00
318c8c00
318c0c00
318c0c00
318c0c00
318c0c00
3f8c0c00
318c0c00
318c0c00
319e0c00
31b30c00
31e18c00
3fc0cc00
20804800
00000000
00000000
00000000
00000000
00000000
00000000
00000000
ENDCHAR
STARTCHAR a4e5
ENCODING 42213 
SWIDTH 96 0
DWIDTH 26 0
BBX 26 27 0 -1
BITMAP 
00000000
00000000
00000000
00000000
00000000
00000000
6318ff00
318c6000
318c6000
318c6000
318c6000
318c6000
3f8c6000
318c6000
319c6000
31b66000
31e36000
31c3e000
3f81e300
21003f80
00000000
00000000
00000000
00000000
00000000
00000000
00000000
ENDCHAR
STARTCHAR a4e6
ENCODING 42214 
SWIDTH 96 0
DWIDTH 26 0
BBX 26 27 0 -1
BITMAP 
00000000
00000000
00000000
00000000
00000000
00000300
6067ff80
30333000
30303000
30303000
30303000
30303000
3ff03000
30307000
3030d800
30318c00
30330700
30360380
3ffc0180
20300000
00000000
00000000
00000000
00000000
00000000
00000000
00000000
ENDCHAR
STARTCHAR a4e7
ENCODING 42215 
SWIDTH 96 0
DWIDTH 26 0
BBX 26 27 0 -1
BITMAP 
00000000
00000000
00000000
00000000
00000000
00000000
606fff00
30330000
30330000
30330000
30330000
30330200
3ff3ff00
30330000
30330000
30330000
30330000
30330100
3ff3ff80
20200000
00000000
00000000
00000000
00000000
00000000
00000000
00000000
ENDCHAR
STARTCHAR a4e8
ENCODING 42216 
SWIDTH 96 0
DWIDTH 26 0
BBX 26 27 0 -1
BITMAP 
00000000
00000000
00000000
00000000
00000000
07007000
01801800
01801800
01fff800
01801800
01801800
01fff800
01001000
00000000
00040000
007fc000
01803000
03001800
03001800
03001800
01803000
007fc000
00000000
00000000
00000000
00000000
00000000
ENDCHAR
STARTCHAR a4e9
ENCODING 42217 
SWIDTH 96 0
DWIDTH 26 0
BBX 26 27 0 -1
BITMAP 
00000000
00000000
00000000
00000000
00000000
18661800
0c330c00
0c330c00
0ff3fc00
0c330c00
0c330c00
0ff3fc00
08220800
00080000
00ffc000
03003000
06001800
06001800
06001800
03003000
00ffc000
00000000
00000000
00000000
00000000
00000000
00000000
ENDCHAR
STARTCHAR a4ea
ENCODING 42218 
SWIDTH 96 0
DWIDTH 26 0
BBX 26 27 0 -1
BITMAP 
00000000
00000000
00000000
00000000
00000000
00000000
0e07fe00
03030600
03000600
03000600
03000600
03000600
03000600
03000600
07000600
06800600
0c600600
18380600
301c0600
40080400
00000000
00000000
00000000
00000000
00000000
00000000
00000000
ENDCHAR
STARTCHAR a4eb
ENCODING 42219 
SWIDTH 96 0
DWIDTH 26 0
BBX 26 27 0 -1
BITMAP 
00000000
00000000
00000000
00000000
00000000
00000000
0e0e0000
03070000
03030000
03030000
03030000
03030000
03030000
03030000
07030000
07830000
0cc30000
18730000
303b0300
4009ff80
00000000
00000000
00000000
00000000
00000000
00000000
00000000
ENDCHAR
STARTCHAR a4ec
ENCODING 42220 
SWIDTH 96 0
DWIDTH 26 0
BBX 26 27 0 -1
BITMAP 
00000000
00000000
00000000
00000000
00000000
00000000
0e000600
030fff00
03030000
03030000
03030000
03030000
03030000
03030000
07030000
07830000
0cc30000
18730000
303b0600
4009ff00
00000000
00000000
00000000
00000000
00000000
00000000
00000000
ENDCHAR
STARTCHAR a4ed
ENCODING 42221 
SWIDTH 96 0
DWIDTH 26 0
BBX 26 27 0 -1
BITMAP 
00000000
00000000
00000000
00000000
00000000
00000000
0e060600
03030300
03030300
03030300
03030300
03030300
0303ff00
03030300
07030300
07830300
0c630300
183b0300
301fff00
400a0200
00000000
00000000
00000000
00000000
00000000
00000000
00000000
ENDCHAR
STARTCHAR a4ee
ENCODING 42222 
SWIDTH 96 0
DWIDTH 26 0
BBX 26 27 0 -1
BITMAP 
00000000
00000000
00000000
00000000
00000000
00000300
0e07ff80
03033000
03003000
03003000
03003000
03003000
03007000
03007800
0700cc00
06818600
0c630300
18360380
301c0180
40080000
00000000
00000000
00000000
00000000
00000000
00000000
00000000
ENDCHAR
STARTCHAR a4ef
ENCODING 42223 
SWIDTH 96 0
DWIDTH 26 0
BBX 26 27 0 -1
BITMAP 
00000000
00000000
00000000
00000000
00000000
00000000
00080000
00080000
001c0000
00360000
00630000
00c18000
0180c000
03006000
06003000
0c001800
18000c00
30000600
7fffff00
00000000
00000000
00000000
00000000
00000000
00000000
00000000
00000000
ENDCHAR
STARTCHAR a4f0
ENCODING 42224 
SWIDTH 96 0
DWIDTH 26 0
BBX 26 27 0 -1
BITMAP 
00000000
00000000
00000000
00000000
00000000
00000000
0701c000
18c63000
306c1800
306c1800
306c1800
306c1800
306c1800
306c1800
306c1800
306c1800
306c1800
306c1800
18c63000
0701c000
00000000
00000000
00000000
00000000
00000000
00000000
00000000
ENDCHAR
STARTCHAR a4f1
ENCODING 42225 
SWIDTH 96 0
DWIDTH 26 0
BBX 26 27 0 -1
BITMAP 
00000000
00000000
00000000
00000000
00000000
000c0000
000c0000
000c0000
001e0000
00618000
00c0c000
01806000
03003000
03003000
03003000
03003000
01806000
00c0c000
00618000
001e0000
00000000
00000000
00000000
00000000
00000000
00000000
00000000
ENDCHAR
STARTCHAR a4f2
ENCODING 42226 
SWIDTH 96 0
DWIDTH 26 0
BBX 26 27 0 -1
BITMAP 
00000000
00000000
00000000
00000000
00000000
06000000
06038000
0600c000
0f80c000
19c0c000
3060c000
6030c000
6030c000
6031c000
6031e000
60333000
30661c00
18cc0f00
0f980600
07200000
00000000
00000000
00000000
00000000
00000000
00000000
00000000
ENDCHAR
STARTCHAR a4f3
ENCODING 42227 
SWIDTH 96 0
DWIDTH 26 0
BBX 26 27 0 -1
BITMAP 
00000000
00000000
00000000
00000000
00000000
00000000
06000000
06006000
0600f000
0f009000
19819800
30c10800
60630c00
60620400
60660600
60640200
606c0300
30c80100
19980180
0f1fff80
00000000
00000000
00000000
00000000
00000000
00000000
00000000
ENDCHAR
STARTCHAR a4d4
ENCODING 42196 
SWIDTH 96 0
DWIDTH 26 0
BBX 26 27 0 -1
BITMAP 
00000000
00000000
00000000
00000000
00000000
00000000
00000000
00000000
00000000
00000000
00000000
00000000
00000000
00000000
00000000
00000000
00000000
00000000
00000000
00000000
00000000
00000000
00000000
00000000
00000000
00000000
00000000
ENDCHAR
STARTCHAR a4a1
ENCODING 42145 
SWIDTH 96 0
DWIDTH 26 0
BBX 26 27 0 -1
BITMAP 
00000000
00000000
00000000
00000000
00000000
00000000
07fff800
03001800
00001800
00001800
00001800
00001800
00001800
00001800
00001800
00001800
00001800
00001800
00001800
00001000
00000000
00000000
00000000
00000000
00000000
00000000
00000000
ENDCHAR
STARTCHAR a4a2
ENCODING 42146 
SWIDTH 96 0
DWIDTH 26 0
BBX 26 27 0 -1
BITMAP 
00000000
00000000
00000000
00000000
00000000
00000000
3ff3ff00
10310300
00300300
00300300
00300300
00300300
00300300
00300300
00300300
00300300
00300300
00300300
00300300
00200200
00000000
00000000
00000000
00000000
00000000
00000000
00000000
ENDCHAR
STARTCHAR a4a3
ENCODING 42147 
SWIDTH 96 0
DWIDTH 26 0
BBX 26 27 0 -1
BITMAP 
00000000
00000000
00000000
00000000
00000000
00000000
3ff1c000
1060e000
00607000
00607000
00606000
00606000
00606000
0060e000
0060d000
00618c00
00630700
00660380
006c0100
00500000
00000000
00000000
00000000
00000000
00000000
00000000
00000000
ENDCHAR
STARTCHAR a4a4
ENCODING 42148 
SWIDTH 96 0
DWIDTH 26 0
BBX 26 27 0 -1
BITMAP 
00000000
00000000
00000000
00000000
00000000
00000000
0c000000
06000000
06000000
06000000
06000000
06000000
06000000
06000000
06000000
06000000
06000000
06000000
06003000
03fff800
00000000
00000000
00000000
00000000
00000000
00000000
00000000
ENDCHAR
STARTCHAR a4a5
ENCODING 42149 
SWIDTH 96 0
DWIDTH 26 0
BBX 26 27 0 -1
BITMAP 
00000000
00000000
00000000
00000000
00000000
00000000
3007fe00
18010e00
18000e00
18000c00
18001c00
18001800
18003800
18003000
18007800
1800cc00
18018700
18130380
0ffe0180
00080000
00000000
00000000
00000000
00000000
00000000
00000000
00000000
ENDCHAR
STARTCHAR a4a6
ENCODING 42150 
SWIDTH 96 0
DWIDTH 26 0
BBX 26 27 0 -1
BITMAP 
00000000
00000000
00000000
00000000
00000000
0001c000
3000e000
18000200
180fff00
18040000
1800f000
18019800
18030c00
18060600
18060600
18060600
18060600
18130c00
0ff99800
0000f000
00000000
00000000
00000000
00000000
00000000
00000000
00000000
ENDCHAR
STARTCHAR a4a7
ENCODING 42151 
SWIDTH 96 0
DWIDTH 26 0
BBX 26 27 0 -1
BITMAP 
00000000
00000000
00000000
00000000
00000000
00006000
07fff000
03000000
03000000
03000000
03000000
03000000
03000000
03000000
03000000
03000000
03000000
03000000
03003000
01fff800
00000000
00000000
00000000
00000000
00000000
00000000
00000000
ENDCHAR
STARTCHAR a4a8
ENCODING 42152 
SWIDTH 96 0
DWIDTH 26 0
BBX 26 27 0 -1
BITMAP 
00000000
00000000
00000000
00000000
00000000
00000000
7fe7fe00
30030000
30030000
30030000
30030000
30030000
30030000
30030000
30030000
30030000
30030000
30030000
30230200
1ff1ff00
00000000
00000000
00000000
00000000
00000000
00000000
00000000
ENDCHAR
STARTCHAR a4a9
ENCODING 42153 
SWIDTH 96 0
DWIDTH 26 0
BBX 26 27 0 -1
BITMAP 
00000000
00000000
00000000
00000000
00000000
00000000
0ffff800
06003000
00003000
00003000
00003000
00002000
0ffff000
06000000
06000000
06000000
06000000
06000000
06003000
03fff800
00000000
00000000
00000000
00000000
00000000
00000000
00000000
ENDCHAR
STARTCHAR a4aa
ENCODING 42154 
SWIDTH 96 0
DWIDTH 26 0
BBX 26 27 0 -1
BITMAP 
00000000
00000000
00000000
00000000
00000000
00000000
3ff3ff00
10310300
00300300
00300300
00300300
00200300
3ff00300
18000300
18000300
18000300
18000300
18000300
18100300
0ff80200
00000000
00000000
00000000
00000000
00000000
00000000
00000000
ENDCHAR
STARTCHAR a4ab
ENCODING 42155 
SWIDTH 96 0
DWIDTH 26 0
BBX 26 27 0 -1
BITMAP 
00000000
00000000
00000000
00000000
00000000
00000000
3ff7ff00
10330600
00330600
00330600
00330600
00230600
3ff30600
18030600
18030600
18030600
18030600
18030600
18130400
0ffbfe00
00020000
00000000
00000000
00000000
00000000
00000000
00000000
ENDCHAR
STARTCHAR a4ac
ENCODING 42156 
SWIDTH 96 0
DWIDTH 26 0
BBX 26 27 0 -1
BITMAP 
00000000
00000000
00000000
00000000
00000000
00000600
3ff30300
10318180
00318180
00318180
00318180
00218180
3ff1ff80
18018180
18018180
18018180
18018180
18018180
18098180
0ffdff80
00010100
00000000
00000000
00000000
00000000
00000000
00000000
ENDCHAR
STARTCHAR a4ad
ENCODING 42157 
SWIDTH 96 0
DWIDTH 26 0
BBX 26 27 0 -1
BITMAP 
00000000
00000000
00000000
00000000
00000000
00000000
3ff1c000
1030e000
00307000
00307000
00306000
00206000
3ff07000
1800d800
1800cc00
18018700
18030380
18060380
180c0180
0ff00080
00200000
00000000
00000000
00000000
00000000
00000000
00000000
ENDCHAR
STARTCHAR a4ae
ENCODING 42158 
SWIDTH 96 0
DWIDTH 26 0
BBX 26 27 0 -1
BITMAP 
00000000
00000000
00000000
00000000
00000000
00000000
3ff7fe00
10330000
00330000
00330000
00330000
00230000
3ff3fe00
18030000
18030000
18030000
18030000
18030000
18130000
0ff9ff00
00000000
00000000
00000000
00000000
00000000
00000000
00000000
ENDCHAR
STARTCHAR a4af
ENCODING 42159 
SWIDTH 96 0
DWIDTH 26 0
BBX 26 27 0 -1
BITMAP 
00000000
00000000
00000000
00000000
00000000
00000400
3ff3fe00
10300000
00319800
0030cc00
0030cc00
0020cc00
3ff0cc00
1800cc00
1800cc00
1800cc00
1800cc00
1800cc00
18208800
0ff7ff00
00000000
00000000
00000000
00000000
00000000
00000000
00000000
ENDCHAR
STARTCHAR a4b0
ENCODING 42160 
SWIDTH 96 0
DWIDTH 26 0
BBX 26 27 0 -1
BITMAP 
00000000
00000000
00000000
00000000
00000000
0000e000
3ff07000
10300200
0033ff00
00310000
00307800
0020cc00
3ff18600
18030300
18030300
18030300
18030300
18018600
1810cc00
0ff87800
00000000
00000000
00000000
00000000
00000000
00000000
00000000
ENDCHAR
STARTCHAR a4b1
ENCODING 42161 
SWIDTH 96 0
DWIDTH 26 0
BBX 26 27 0 -1
BITMAP 
00000000
00000000
00000000
00000000
00000000
00000000
0ffff800
07003000
03003000
03003000
03003000
03003000
03003000
03003000
03003000
03003000
03003000
03003000
03002000
03fff000
02000000
00000000
00000000
00000000
00000000
00000000
00000000
ENDCHAR
STARTCHAR a4b2
ENCODING 42162 
SWIDTH 96 0
DWIDTH 26 0
BBX 26 27 0 -1
BITMAP 
00000000
00000000
00000000
00000000
00000000
00003000
06001800
03001800
03001800
03001800
03001800
03001800
03fff800
03001800
03001800
03001800
03001800
03001800
03001800
03fff800
02001000
00000000
00000000
00000000
00000000
00000000
00000000
ENDCHAR
STARTCHAR a4b3
ENCODING 42163 
SWIDTH 96 0
DWIDTH 26 0
BBX 26 27 0 -1
BITMAP 
00000000
00000000
00000000
00000000
00000000
00600600
60360300
30330300
30330300
30330300
30330300
30330300
3ff3ff00
30330300
30330300
30330300
30330300
30330300
30330300
3ff3ff00
20220200
00000000
00000000
00000000
00000000
00000000
00000000
ENDCHAR
STARTCHAR a4b4
ENCODING 42164 
SWIDTH 96 0
DWIDTH 26 0
BBX 26 27 0 -1
BITMAP 
00000000
00000000
00000000
00000000
00000000
0061c000
3030e000
18307000
18307000
18307000
18306000
18306000
1ff06000
1830d000
1830cc00
18318600
18330700
18360380
183c0380
1ff00180
10200000
00000000
00000000
00000000
00000000
00000000
00000000
ENDCHAR
STARTCHAR a4b5
ENCODING 42165 
SWIDTH 96 0
DWIDTH 26 0
BBX 26 27 0 -1
BITMAP 
00000000
00000000
00000000
00000000
00000000
00000000
000e0000
00070000
00038000
00038000
00038000
00038000
00030000
00078000
000e6000
001c3800
00301c00
00600f00
01c00700
03000200
0c000000
00000000
00000000
00000000
00000000
00000000
00000000
ENDCHAR
STARTCHAR a4b6
ENCODING 42166 
SWIDTH 96 0
DWIDTH 26 0
BBX 26 27 0 -1
BITMAP 
00000000
00000000
00000000
00000000
00000000
00000000
0381c000
01c0e000
00e07000
00e07000
00e07000
00c06000
00c06000
01b0d800
019cce00
030d8700
06070380
0c060180
180c0000
20180000
00200000
00000000
00000000
00000000
00000000
00000000
00000000
ENDCHAR
STARTCHAR a4b7
ENCODING 42167 
SWIDTH 96 0
DWIDTH 26 0
BBX 26 27 0 -1
BITMAP 
00000000
00000000
00000000
00000000
00000000
00040000
007fc000
00c06000
01803000
03001800
06000c00
06000c00
06000c00
06000c00
06000c00
06000c00
03001800
01803000
00c06000
007fc000
00000000
00000000
00000000
00000000
00000000
00000000
00000000
ENDCHAR
STARTCHAR a4b8
ENCODING 42168 
SWIDTH 96 0
DWIDTH 26 0
BBX 26 27 0 -1
BITMAP 
00000000
00000000
00000000
00000000
00000000
00000000
07fffe00
03003800
00007000
0000e000
0001c000
00030000
00060000
000f0000
00198000
0030e000
00603800
00c01c00
01800c00
06000000
00000000
00000000
00000000
00000000
00000000
00000000
00000000
ENDCHAR
STARTCHAR a4b9
ENCODING 42169 
SWIDTH 96 0
DWIDTH 26 0
BBX 26 27 0 -1
BITMAP 
00000000
00000000
00000000
00000000
00000000
00000000
3ff7fe00
10720e00
00700e00
00600c00
00600c00
00600c00
00c01800
00c01800
01b03400
031c6600
060cc300
0c058380
18030180
30060080
40080000
00000000
00000000
00000000
00000000
00000000
00000000
ENDCHAR
STARTCHAR a4ba
ENCODING 42170 
SWIDTH 96 0
DWIDTH 26 0
BBX 26 27 0 -1
BITMAP 
00000000
00000000
00000000
00000000
00000000
007c0000
003e0000
00000000
0ffffe00
06001c00
00003800
00007000
0000e000
00018000
00030000
0006c000
00186000
00303800
00c01e00
03000f00
0c000600
00000000
00000000
00000000
00000000
00000000
00000000
ENDCHAR
STARTCHAR a4bb
ENCODING 42171 
SWIDTH 96 0
DWIDTH 26 0
BBX 26 27 0 -1
BITMAP 
00000000
00000000
00000000
00000000
00000000
00000000
07fffe00
03000e00
00000e00
00000e00
0000fc00
07ff9c00
03801800
00001800
00003000
00003000
00006000
00004000
00008000
00010000
00000000
00000000
00000000
00000000
00000000
00000000
00000000
ENDCHAR
STARTCHAR a4bc
ENCODING 42172 
SWIDTH 96 0
DWIDTH 26 0
BBX 26 27 0 -1
BITMAP 
00000000
00000000
00000000
00000000
00000000
00000000
1ffff800
0e003000
06000000
06000000
06000000
06000000
07fff000
06002000
06000000
06000000
06000000
06000000
06001c00
03fffe00
00000000
00000000
00000000
00000000
00000000
00000000
00000000
ENDCHAR
STARTCHAR a4bd
ENCODING 42173 
SWIDTH 96 0
DWIDTH 26 0
BBX 26 27 0 -1
BITMAP 
00000000
00000000
00000000
00000000
00000000
00003000
0ffff800
00000000
00060000
01838000
00c3c000
00e1c000
0061c000
0061c000
0061c000
00618000
00618000
00630000
00221800
0ffffc00
06000000
00000000
00000000
00000000
00000000
00000000
00000000
ENDCHAR
STARTCHAR a4be
ENCODING 42174 
SWIDTH 96 0
DWIDTH 26 0
BBX 26 27 0 -1
BITMAP 
00000000
00000000
00000000
00000000
00000000
007e0000
003f0000
00000000
00000c00
0ffffe00
06000000
003f8000
0060c000
00c06000
01803000
01803000
01803000
01803000
00c06000
0060c000
003f8000
00000000
00000000
00000000
00000000
00000000
00000000
ENDCHAR
STARTCHAR a4f4
ENCODING 42228 
SWIDTH 96 0
DWIDTH 26 0
BBX 26 27 0 -1
BITMAP 
00000000
00000000
00000000
00000000
00000000
00006000
0ffff000
06010000
00418000
00438000
00630000
00623800
1ffffc00
0e000000
00000000
00ff8000
03006000
06003000
06003000
06003000
03006000
00ff8000
00000000
00000000
00000000
00000000
00000000
ENDCHAR
STARTCHAR a4f5
ENCODING 42229 
SWIDTH 96 0
DWIDTH 26 0
BBX 26 27 0 -1
BITMAP 
00000000
00000000
00000000
00000000
00000000
00000000
0e00e000
07007000
00200200
7ff7ff00
30030000
00000000
02002000
0f80f800
18c18c00
30630600
30630600
30630600
30630600
18c18c00
0f80f800
00000000
00000000
00000000
00000000
00000000
00000000
ENDCHAR
STARTCHAR a4f6
ENCODING 42230 
SWIDTH 96 0
DWIDTH 26 0
BBX 26 27 0 -1
BITMAP 
00000000
00000000
00000000
00000000
00000000
00000000
00003800
0ffffc00
07000000
000c0000
000e0000
003f8000
0060c000
00c06000
01803000
01803000
01803000
00c06000
0060c000
001f0000
00000000
00000000
00000000
00000000
00000000
00000000
00000000
ENDCHAR
STARTCHAR a4bf
ENCODING 42175 
SWIDTH 96 0
DWIDTH 26 0
BBX 26 27 0 -1
BITMAP 
00000000
00380000
001c0000
000c0000
000c0000
000c0000
000c0000
000c0000
000c0000
000c0000
000c0000
000c6000
000ff000
000c0000
000c0000
000c0000
000c0000
000c0000
000c0000
000c0000
000c0000
000c0000
000c0000
000c0000
00080000
00000000
00000000
ENDCHAR
STARTCHAR a4c0
ENCODING 42176 
SWIDTH 96 0
DWIDTH 26 0
BBX 26 27 0 -1
BITMAP 
00000000
00038000
0001c000
0000c000
0060c000
0030c000
0030c000
0030c000
0030c000
0030c000
0030c000
0030c000
003fc000
0030c000
0030c000
0030c000
0030c000
0030c000
0030c000
0030c000
0030c000
0030c000
0020c000
0000c000
00008000
00000000
00000000
ENDCHAR
STARTCHAR a4c1
ENCODING 42177 
SWIDTH 96 0
DWIDTH 26 0
BBX 26 27 0 -1
BITMAP 
00000000
00380000
001c0000
000c0000
000c0000
000c0000
000c0000
000c0000
000c0000
000c6000
000ff000
000c0000
000c0000
000c0000
000c0000
000c6000
000ff000
000c0000
000c0000
000c0000
000c0000
000c0000
000c0000
000c0000
00080000
00000000
00000000
ENDCHAR
STARTCHAR a4c2
ENCODING 42178 
SWIDTH 96 0
DWIDTH 26 0
BBX 26 27 0 -1
BITMAP 
00000000
00038000
0001c000
0000c000
0060c000
0030c000
0030c000
0030c000
0030c000
0030c000
0030c000
003fc000
0030c000
0030c000
0030c000
003fc000
0030c000
0030c000
0030c000
0030c000
0030c000
0030c000
0020c000
0000c000
00008000
00000000
00000000
ENDCHAR
STARTCHAR a4c3
ENCODING 42179 
SWIDTH 96 0
DWIDTH 26 0
BBX 26 27 0 -1
BITMAP 
00000000
00038000
0001c000
0000c000
0000c000
0000c000
0000c000
0000c000
0000c000
0000c000
0000c000
0000c000
007fc000
0030c000
0000c000
0000c000
0000c000
0000c000
0000c000
0000c000
0000c000
0000c000
0000c000
0000c000
00008000
00000000
00000000
ENDCHAR
STARTCHAR a4c4
ENCODING 42180 
SWIDTH 96 0
DWIDTH 26 0
BBX 26 27 0 -1
BITMAP 
00000000
00038000
0001c000
0000c000
0030c000
0018c000
0018c000
0018c000
0018c000
0018c000
0018c000
0018c000
03f8c000
0118c000
0018c000
0018c000
0018c000
0018c000
0018c000
0018c000
0018c000
0018c000
0010c000
0000c000
00008000
00000000
00000000
ENDCHAR
STARTCHAR a4f7
ENCODING 42231 
SWIDTH 96 0
DWIDTH 26 0
BBX 26 27 0 -1
BITMAP 
00000000
0000e000
00007000
00003000
00003000
00003000
00003000
00003000
00003000
00003300
00003f80
00183000
000c3000
000c3000
030c3300
018c3f80
018c7000
0188f000
01933000
0ffc3000
07003000
00003000
00003000
00003000
00002000
00000000
00000000
ENDCHAR
STARTCHAR a4f8
ENCODING 42232 
SWIDTH 96 0
DWIDTH 26 0
BBX 26 27 0 -1
BITMAP 
00000000
00001c00
00000e00
00000600
00000600
00030600
00018600
00018600
00018600
00018600
0001fe00
00018600
00018600
00618600
0031fe00
0c318600
06318600
06318600
06238600
064d8600
3ff10600
18000600
00000600
00000600
00000400
00000000
00000000
ENDCHAR
STARTCHAR a4c5
ENCODING 42181 
SWIDTH 96 0
DWIDTH 26 0
BBX 26 27 0 -1
BITMAP 
00000000
00038000
0001c000
0000c000
0000c000
0000c000
0000c000
0000c000
0000c000
007fc000
0030c000
0000c000
0000c000
0000c000
0000c000
007fc000
0030c000
0000c000
0000c000
0000c000
0000c000
0000c000
0000c000
0000c000
00008000
00000000
00000000
ENDCHAR
STARTCHAR a4c6
ENCODING 42182 
SWIDTH 96 0
DWIDTH 26 0
BBX 26 27 0 -1
BITMAP 
00000000
00038000
0001c000
0000c000
0030c000
0018c000
0018c000
0018c000
0018c000
0018c000
0018c000
03f8c000
0118c000
0018c000
0018c000
03f8c000
0118c000
0018c000
0018c000
0018c000
0018c000
0018c000
0010c000
0000c000
00008000
00000000
00000000
ENDCHAR
STARTCHAR a4c7
ENCODING 42183 
SWIDTH 96 0
DWIDTH 26 0
BBX 26 27 0 -1
BITMAP 
00000000
00000000
00000000
00000000
00000000
00000000
00000000
00180000
000c0000
000c0000
000c0000
000c0000
000c0000
000c0000
000c0000
000c0000
000c0000
000c0000
000c0f00
7fffff80
38000000
00000000
00000000
00000000
00000000
00000000
00000000
ENDCHAR
STARTCHAR a4c8
ENCODING 42184 
SWIDTH 96 0
DWIDTH 26 0
BBX 26 27 0 -1
BITMAP 
00000000
0001c000
0000e000
00006000
00006000
00006000
00006000
00006000
00006000
00006000
00006000
00006000
01806300
00c07f80
00c06000
00c1e000
00c66000
7ff86000
38006000
00006000
00006000
00006000
00006000
00006000
00004000
00000000
00000000
ENDCHAR
STARTCHAR a4c9
ENCODING 42185 
SWIDTH 96 0
DWIDTH 26 0
BBX 26 27 0 -1
BITMAP 
00000000
00001c00
00000e00
00018600
0000c600
0000c600
0000c600
0000c600
0000c600
0000c600
0000c600
0000c600
0180c600
00c0fe00
00c0c600
00c1c600
00c6c600
1ff8c600
0c00c600
0000c600
0000c600
00008600
00000600
00000600
00000400
00000000
00000000
ENDCHAR
STARTCHAR a4ca
ENCODING 42186 
SWIDTH 96 0
DWIDTH 26 0
BBX 26 27 0 -1
BITMAP 
00000000
00001c00
00000e00
00000600
00000600
00000600
00000600
00000600
00000600
00000600
00000600
00000600
00300600
00180600
00180600
00181e00
0018e600
1fff0600
0e000600
00000600
00000600
00000600
00000600
00000600
00000400
00000000
00000000
ENDCHAR
STARTCHAR a4f9
ENCODING 42233 
SWIDTH 96 0
DWIDTH 26 0
BBX 26 27 0 -1
BITMAP 
00000000
0000e000
00007000
00003000
00003000
00003000
00003000
00003000
00003000
00003000
00003000
00003000
00183000
000c3000
018c3000
00ccf000
00cf3000
00dc3000
1ff03000
0f003000
00003000
00003000
00003000
00003000
00002000
00000000
00000000
ENDCHAR
STARTCHAR a4fa
ENCODING 42234 
SWIDTH 96 0
DWIDTH 26 0
BBX 26 27 0 -1
BITMAP 
00000000
00001c00
00000e00
00000600
00000600
00000600
00000600
00000600
0000fe00
00038600
0ffe0600
04cc0600
00cc0600
00ccfe00
008c4600
008c0600
010c0600
000c0600
000c0600
00080600
00000600
00000600
00000600
00000600
00000400
00000000
00000000
ENDCHAR
STARTCHAR a4cb
ENCODING 42187 
SWIDTH 96 0
DWIDTH 26 0
BBX 26 27 0 -1
BITMAP 
00000000
00000000
00000000
00000000
00000000
00000000
00000000
00000000
00018000
00c0c000
0060c000
0060c000
0060c000
0060c000
0060c000
0060c000
0060c000
0060c000
0060cf00
7fffff80
38000000
00000000
00000000
00000000
00000000
00000000
00000000
ENDCHAR
STARTCHAR a4cc
ENCODING 42188 
SWIDTH 96 0
DWIDTH 26 0
BBX 26 27 0 -1
BITMAP 
00000000
00000000
00000000
00000000
00000000
00000000
00000000
00000000
00000f00
7fffff80
380c0000
000c0000
000c0000
000c0000
000c0000
000c0000
000c0000
000c0000
000c0000
000c0000
000c0000
000c0000
000c0000
00080000
00000000
00000000
00000000
ENDCHAR
STARTCHAR a4cd
ENCODING 42189 
SWIDTH 96 0
DWIDTH 26 0
BBX 26 27 0 -1
BITMAP 
00000000
00001c00
00000e00
00000600
00000600
00000600
00000600
00000600
00000600
00000600
00000600
00000600
00001e00
0000e600
1fff0600
0e180600
0018fe00
00184600
00180600
00180600
00180600
00180600
00100600
00000600
00000400
00000000
00000000
ENDCHAR
STARTCHAR a4ce
ENCODING 42190 
SWIDTH 96 0
DWIDTH 26 0
BBX 26 27 0 -1
BITMAP 
00000000
00001c00
00000e00
00018600
0000c600
0000c600
0000c600
0000c600
0000c600
0000c600
0000c600
0000c600
0001c600
0006c600
1ff8c600
0c60c600
006fc600
0060c600
0060c600
0060c600
0060c600
0040c600
00008600
00000600
00000400
00000000
00000000
ENDCHAR
STARTCHAR a4cf
ENCODING 42191 
SWIDTH 96 0
DWIDTH 26 0
BBX 26 27 0 -1
BITMAP 
00000000
00001c00
00000e00
00000600
00000600
00000600
00000600
00000600
00000600
00000600
00000600
00000600
00000600
00001e00
0000e600
1fff0600
0e180600
00180600
00180600
00180600
00180600
00180600
00100600
00000600
00000400
00000000
00000000
ENDCHAR
STARTCHAR a4d0
ENCODING 42192 
SWIDTH 96 0
DWIDTH 26 0
BBX 26 27 0 -1
BITMAP 
00000000
00000000
00000000
00000000
00000000
00000000
00000000
00000000
00000f00
7fffff80
3860c000
0060c000
0060c000
0060c000
0060c000
0060c000
0060c000
0060c000
0060c000
0060c000
0060c000
0060c000
0060c000
00408000
00000000
00000000
00000000
ENDCHAR
STARTCHAR a4fb
ENCODING 42235 
SWIDTH 96 0
DWIDTH 26 0
BBX 26 27 0 -1
BITMAP 
00000000
00001c00
0001ce00
0000e600
00006600
00006600
00006600
00006600
00016600
00066600
3ff86600
1b33e600
03316600
03306600
03306600
0233e600
04316600
00306600
00306600
00206600
00206600
00004600
00004600
00000600
00000400
00000000
00000000
ENDCHAR
STARTCHAR a4fc
ENCODING 42236 
SWIDTH 96 0
DWIDTH 26 0
BBX 26 27 0 -1
BITMAP 
00000000
00003800
00001c00
00000c00
00000c00
00000c00
00000c00
00001c00
00006c00
00018c00
0ffe0c00
07660c00
00660c00
00660c00
00660c00
00460c00
00860c00
00060c00
00060c00
00040c00
00000c00
00000c00
00000c00
00000c00
00000800
00000000
00000000
ENDCHAR
STARTCHAR a4d1
ENCODING 42193 
SWIDTH 96 0
DWIDTH 26 0
BBX 26 27 0 -1
BITMAP 
00000000
00000000
00000000
00000000
00000000
00000000
00000000
00000000
00000000
00000000
00000000
00000000
00000f00
7fffff80
38000000
00000000
00000000
00000000
00000000
00000000
00000000
00000000
00000000
00000000
00000000
00000000
00000000
ENDCHAR
STARTCHAR a4d2
ENCODING 42194 
SWIDTH 96 0
DWIDTH 26 0
BBX 26 27 0 -1
BITMAP 
00000000
00001c00
00000e00
00000600
00000600
00000600
00000600
00000600
00000600
00000600
00000600
00000600
00000600
00000600
00000e00
00003600
0001c600
1ffe0600
0e000600
00000600
00000600
00000600
00000600
00000600
00000400
00000000
00000000
ENDCHAR
STARTCHAR a4d3
ENCODING 42195 
SWIDTH 96 0
DWIDTH 26 0
BBX 26 27 0 -1
BITMAP 
00000000
000e0000
00070000
00030000
00030000
00030000
00030000
00030000
00030000
00030000
00030000
00030000
00030000
00030000
00030000
00030000
00030000
00030000
00030000
00030000
00030000
00030000
00030000
00030000
00020000
00000000
00000000
ENDCHAR
STARTCHAR a4fd
ENCODING 42237 
SWIDTH 96 0
DWIDTH 26 0
BBX 26 27 0 -1
BITMAP 
00000000
00000000
00000000
00000000
00000000
00000000
00000000
00000000
00000000
000c0000
001e0000
003f0000
003f0000
003f0000
001e0000
000c0000
00000000
00000000
00000000
00000000
00000000
00000000
00000000
00000000
00000000
00000000
00000000
ENDCHAR
STARTCHAR a4fe
ENCODING 42238 
SWIDTH 96 0
DWIDTH 26 0
BBX 26 27 0 -1
BITMAP 
00000000
00000000
00018000
00018000
00018000
00018000
00018000
00018000
00018000
00018000
00018000
00018000
00018000
00018000
01c18000
03e18000
03e18000
03e18000
01c18000
00018000
00018000
00018000
00018000
00018000
00000000
00000000
00000000
ENDCHAR
STARTCHAR aaa1
ENCODING 43681 
SWIDTH 96 0
DWIDTH 26 0
BBX 26 27 0 -1
BITMAP 
00000000
00000000
00000000
00000000
00000000
00000000
00000000
00000000
00300000
00180000
00108000
021fc000
01f80000
00100000
00100000
003fc000
00f13000
01121800
02141800
04181800
06301800
07d01000
03006000
00018000
00000000
00000000
00000000
ENDCHAR
STARTCHAR aaa2
ENCODING 43682 
SWIDTH 96 0
DWIDTH 26 0
BBX 26 27 0 -1
BITMAP 
00000000
00000000
00000000
00300000
00180000
00180000
0010c000
061fe000
03f80000
00100000
00100000
001ff000
00711800
01910c00
03130600
06120600
04160600
0c1c0600
0c180600
0c700c00
0fd01800
07807000
0003c000
00000000
00000000
00000000
00000000
ENDCHAR
STARTCHAR aaa3
ENCODING 43683 
SWIDTH 96 0
DWIDTH 26 0
BBX 26 27 0 -1
BITMAP 
00000000
00000000
00000000
00000000
00000000
00000000
00000000
00000000
00000000
00000000
02000000
01000000
01808000
01804000
03003000
03001000
02001800
02001800
02201800
03201800
01400000
01c00000
00c00000
00000000
00000000
00000000
00000000
ENDCHAR
STARTCHAR aaa4
ENCODING 43684 
SWIDTH 96 0
DWIDTH 26 0
BBX 26 27 0 -1
BITMAP 
00000000
00000000
00000000
00000000
00000000
00000000
18000000
0c000000
0e00c000
0c003000
0c001800
0c000c00
08000c00
08000e00
08000600
08200600
08400600
0c400600
0cc00000
06800000
07800000
01800000
00000000
00000000
00000000
00000000
00000000
ENDCHAR
STARTCHAR aaa5
ENCODING 43685 
SWIDTH 96 0
DWIDTH 26 0
BBX 26 27 0 -1
BITMAP 
00000000
00000000
00000000
00000000
00000000
00000000
00000000
00200000
001e0000
000f0000
00100000
00000000
000f8000
02704000
01c06000
00806000
00006000
00006000
0000c000
0000c000
00018000
00010000
00060000
00180000
00000000
00000000
00000000
ENDCHAR
STARTCHAR aaa6
ENCODING 43686 
SWIDTH 96 0
DWIDTH 26 0
BBX 26 27 0 -1
BITMAP 
00000000
00000000
00400000
003f0000
00078000
000c0000
00100000
00000000
00000000
000f8000
02386000
03e03000
01803000
00003000
00003000
00003000
00003000
00006000
00006000
0000c000
00018000
00030000
000c0000
00300000
00000000
00000000
00000000
ENDCHAR
STARTCHAR aaa7
ENCODING 43687 
SWIDTH 96 0
DWIDTH 26 0
BBX 26 27 0 -1
BITMAP 
00000000
00000000
00000000
00000000
00000000
00000000
00000000
00200000
001e0000
000f0000
00100000
00000000
01078000
00fb0000
00460000
00040000
00180000
00200000
007c0000
00c20000
01820000
0303f000
0301f000
00000000
00000000
00000000
00000000
ENDCHAR
STARTCHAR aaa8
ENCODING 43688 
SWIDTH 96 0
DWIDTH 26 0
BBX 26 27 0 -1
BITMAP 
00000000
00000000
00000000
00400000
003e0000
000f0000
00300000
00000000
00038000
043fc000
07e70000
030c0000
00180000
00100000
00200000
004c0000
00f20000
01c20000
03020000
06020000
06030000
0c03fc00
0c00fc00
00000000
00000000
00000000
00000000
ENDCHAR
STARTCHAR aaa9
ENCODING 43689 
SWIDTH 96 0
DWIDTH 26 0
BBX 26 27 0 -1
BITMAP 
00000000
00000000
00000000
00000000
00000000
00000000
00000000
00000000
00c00000
00600000
00480000
047c7000
03c01800
01401000
00400000
004f8000
00786000
01c03000
02403000
06403000
06403000
03406000
00c18000
00000000
00000000
00000000
00000000
ENDCHAR
STARTCHAR aaaa
ENCODING 43690 
SWIDTH 96 0
DWIDTH 26 0
BBX 26 27 0 -1
BITMAP 
00000000
00000000
00000000
01800000
00c00000
00c00000
00c00000
00807c00
00b80600
19f00e00
0f800000
00800000
0083e000
008e1800
00b80c00
01e00600
03800600
16800600
1c800c00
18800c00
06801800
01803000
0081c000
00000000
00000000
00000000
00000000
ENDCHAR
STARTCHAR aaab
ENCODING 43691 
SWIDTH 96 0
DWIDTH 26 0
BBX 26 27 0 -1
BITMAP 
00000000
00000000
00000000
00c00000
00600000
00600000
00600000
00400000
00400000
20fc2000
1fc61800
0cc30c00
00810600
01810700
01010300
03030300
03030c00
06030000
06030000
0c060000
0c460000
183c0000
18180000
00000000
00000000
00000000
00000000
ENDCHAR
STARTCHAR aaac
ENCODING 43692 
SWIDTH 96 0
DWIDTH 26 0
BBX 26 27 0 -1
BITMAP 
00000000
00000000
00000000
00c00600
00600300
00603180
00601800
00600c00
00400000
20fc2000
1fc61800
0cc30c00
00810600
01810700
01010300
03030300
03030c00
06030000
06030000
0c060000
0c460000
183c0000
18180000
00000000
00000000
00000000
00000000
ENDCHAR
STARTCHAR aaad
ENCODING 43693 
SWIDTH 96 0
DWIDTH 26 0
BBX 26 27 0 -1
BITMAP 
00000000
00000000
00000000
01c00000
00600000
00604000
0031e000
063f8000
01fc0000
000c0800
00063c00
0e07f000
01ff0000
00030000
00018000
0001c000
00ffe000
0100e000
02004000
02000000
03000000
01800000
00ff0000
003f0000
00000000
00000000
00000000
ENDCHAR
STARTCHAR aaae
ENCODING 43694 
SWIDTH 96 0
DWIDTH 26 0
BBX 26 27 0 -1
BITMAP 
00000000
00000000
00000000
01c00c00
00600600
00603300
00339800
063f0c00
01fc0000
000c0000
00067000
0e07e000
01ff0000
00030000
00018000
0001c000
00ffe000
0100e000
02004000
02000000
03000000
01800000
00ff0000
003f0000
00000000
00000000
00000000
ENDCHAR
STARTCHAR aaaf
ENCODING 43695 
SWIDTH 96 0
DWIDTH 26 0
BBX 26 27 0 -1
BITMAP 
00000000
00000000
00000000
00060000
00070000
00070000
000e0000
001c0000
00300000
00600000
00c00000
00800000
01000000
02000000
02000000
01800000
00600000
00300000
00180000
000e0000
00070000
00038000
0001c000
00018000
00000000
00000000
00000000
ENDCHAR
STARTCHAR aab0
ENCODING 43696 
SWIDTH 96 0
DWIDTH 26 0
BBX 26 27 0 -1
BITMAP 
00000000
00000000
00000000
000c0000
00061800
000e0c00
000cc600
00186000
00303000
00600000
00c00000
00800000
01000000
02000000
02000000
01800000
00600000
00300000
00180000
000c0000
00060000
00070000
00038000
00030000
00000000
00000000
00000000
ENDCHAR
STARTCHAR aab1
ENCODING 43697 
SWIDTH 96 0
DWIDTH 26 0
BBX 26 27 0 -1
BITMAP 
00000000
00000000
00000000
00038000
1800c000
0c00c000
0c00c000
0c00cc00
0c00de00
0863f000
183cc000
1800c000
1000c000
1000c000
1000c000
1100c000
1100c000
1a018000
1a018000
0a030000
0e030000
06060000
020c0000
00100000
00000000
00000000
00000000
ENDCHAR
STARTCHAR aab2
ENCODING 43698 
SWIDTH 96 0
DWIDTH 26 0
BBX 26 27 0 -1
BITMAP 
00000000
00000000
00000600
00033300
18019980
0c00cc00
0c00c000
0c00c000
0c00cc00
0863fe00
183cc000
1800c000
1000c000
1000c000
1000c000
1100c000
1100c000
1a018000
1a018000
0e030000
0e030000
06060000
020c0000
00100000
00000000
00000000
00000000
ENDCHAR
STARTCHAR aab3
ENCODING 43699 
SWIDTH 96 0
DWIDTH 26 0
BBX 26 27 0 -1
BITMAP 
00000000
00000000
00000000
00000000
00000000
0101c000
00ffe000
00018000
00070000
00180000
00000000
00000000
00000000
00000000
00000000
04000000
04000000
06000000
06000000
03800000
01fff800
007ff000
00000000
00000000
00000000
00000000
00000000
ENDCHAR
STARTCHAR aab4
ENCODING 43700 
SWIDTH 96 0
DWIDTH 26 0
BBX 26 27 0 -1
BITMAP 
00000000
00000000
00000000
00000000
00000000
01818c00
00ffc600
00030300
00063000
00181800
00000c00
00000000
00000000
00000000
00000000
04000000
04000000
04000000
06000000
03800000
01fff800
007ff000
00000000
00000000
00000000
00000000
00000000
ENDCHAR
STARTCHAR aab5
ENCODING 43701 
SWIDTH 96 0
DWIDTH 26 0
BBX 26 27 0 -1
BITMAP 
00000000
00000000
00000000
00e00000
00300000
00300000
00180000
00183800
040c7c00
03ffc000
00060000
00030000
00030000
00018000
0000c000
007fe000
0180e000
02004000
02000000
02000000
03000000
01c00000
00ff8000
003f0000
00000000
00000000
00000000
ENDCHAR
STARTCHAR aab6
ENCODING 43702 
SWIDTH 96 0
DWIDTH 26 0
BBX 26 27 0 -1
BITMAP 
00000000
00000000
00000c00
01c00600
00603300
00601800
00300c00
0030c000
0819e000
07ff0000
000c0000
00060000
00060000
00030000
00018000
00ffc000
0301c000
04008000
04000000
04000000
06000000
03800000
01ff0000
007e0000
00000000
00000000
00000000
ENDCHAR
STARTCHAR aab7
ENCODING 43703 
SWIDTH 96 0
DWIDTH 26 0
BBX 26 27 0 -1
BITMAP 
00000000
00000000
00000000
07000000
01800000
01c00000
01800000
01800000
01800000
01800000
03000000
03000000
03000000
03000000
03000800
03000800
03001000
03003000
03006000
0300c000
01838000
01ff0000
00fc0000
00000000
00000000
00000000
00000000
ENDCHAR
STARTCHAR aab8
ENCODING 43704 
SWIDTH 96 0
DWIDTH 26 0
BBX 26 27 0 -1
BITMAP 
00000000
00000000
00000000
07030000
01818000
01c0c000
018c0000
01860000
01830000
01800000
03000000
03000000
03000000
03000000
03000800
03000800
03001000
03003000
03006000
0300c000
01838000
01ff0000
00fc0000
00000000
00000000
00000000
00000000
ENDCHAR
STARTCHAR aab9
ENCODING 43705 
SWIDTH 96 0
DWIDTH 26 0
BBX 26 27 0 -1
BITMAP 
00000000
00000000
00000000
000e0000
00070000
00030000
00030c00
2003fe00
1fff0100
0c030000
00030000
001f0000
00260000
00430000
00430000
00430000
00270000
001b0000
00030000
00060000
00060000
000c0000
00180000
00600000
00000000
00000000
00000000
ENDCHAR
STARTCHAR aaba
ENCODING 43706 
SWIDTH 96 0
DWIDTH 26 0
BBX 26 27 0 -1
BITMAP 
00000000
00000600
00003300
000e1980
00070c00
00030000
00030c00
200ffe00
1fff0100
0c030000
00030000
001f0000
00260000
00430000
00430000
00430000
00270000
001b0000
00030000
00070000
00060000
000c0000
00180000
00600000
00000000
00000000
00000000
ENDCHAR
STARTCHAR aabb
ENCODING 43707 
SWIDTH 96 0
DWIDTH 26 0
BBX 26 27 0 -1
BITMAP 
00000000
00000000
00000000
00000000
00038000
0700c000
0180c000
0180c000
0180c000
0180cc00
418ffe00
3ff8c100
1980c000
0180c000
0180c000
0188c000
01858000
01838000
01810000
01800000
00c00000
007ff000
001fe000
00000000
00000000
00000000
00000000
ENDCHAR
STARTCHAR aabc
ENCODING 43708 
SWIDTH 96 0
DWIDTH 26 0
BBX 26 27 0 -1
BITMAP 
00000000
00000000
00000600
00000300
00038180
0700cc00
0180c600
0180c300
0180c000
0180cc00
418ffe00
3ff8c100
1980c000
0180c000
0180c000
0188c000
01858000
01838000
01810000
01800000
00c00000
007ff000
001fe000
00000000
00000000
00000000
00000000
ENDCHAR
STARTCHAR aabd
ENCODING 43709 
SWIDTH 96 0
DWIDTH 26 0
BBX 26 27 0 -1
BITMAP 
00000000
00000000
00000000
00008000
0207c000
01fce000
00c18000
00070000
000c0000
00300000
00401800
0181fc00
031e3800
1ff0e000
0f030000
04040000
00080000
00180000
00100000
00100000
00180000
000e0000
0007f000
0001f000
00000000
00000000
00000000
ENDCHAR
STARTCHAR aabe
ENCODING 43710 
SWIDTH 96 0
DWIDTH 26 0
BBX 26 27 0 -1
BITMAP 
00000000
00000000
00000600
00010300
040f9980
03f9cc00
01838600
000e0000
00180000
00600000
00803000
0303f800
063c7000
3fe1c000
1e060000
08080000
00100000
00300000
00200000
00200000
00300000
001c0000
000fe000
0003e000
00000000
00000000
00000000
ENDCHAR
STARTCHAR aabf
ENCODING 43711 
SWIDTH 96 0
DWIDTH 26 0
BBX 26 27 0 -1
BITMAP 
00000000
00000000
00000000
01800000
00c00000
00c00000
00c00000
00cc0000
10fe0000
0fc03c00
0180c600
01800000
01800000
01000000
03000000
03000000
03000000
06000000
06040000
06040000
0e020000
0c01ff00
0c007e00
00000000
00000000
00000000
00000000
ENDCHAR
STARTCHAR aac0
ENCODING 43712 
SWIDTH 96 0
DWIDTH 26 0
BBX 26 27 0 -1
BITMAP 
00000000
00000000
00000c00
01806600
00c03300
00c01800
00c00000
00cc0000
10fe0000
0fc03c00
0180c600
01800000
01800000
01000000
03000000
03000000
03000000
06000000
06040000
06040000
0e020000
0c01ff00
0c007e00
00000000
00000000
00000000
00000000
ENDCHAR
STARTCHAR aac1
ENCODING 43713 
SWIDTH 96 0
DWIDTH 26 0
BBX 26 27 0 -1
BITMAP 
00000000
00000000
00000000
00e00000
00300000
00300000
0030e000
083ff000
07e00000
00600000
00c00000
00c00000
0183f000
018c1800
03300c00
07c00c00
03000c00
00000c00
00001800
00001800
00003000
0000c000
001f0000
00000000
00000000
00000000
00000000
ENDCHAR
STARTCHAR aac2
ENCODING 43714 
SWIDTH 96 0
DWIDTH 26 0
BBX 26 27 0 -1
BITMAP 
00000000
00000000
00000000
01c00600
00600300
00601980
00618c00
107fc600
0fc00000
00c00000
01800000
01800000
0187e000
03183000
07601800
0f801800
02001800
00001800
00003000
00003000
00006000
00018000
003e0000
00000000
00000000
00000000
00000000
ENDCHAR
STARTCHAR aac3
ENCODING 43715 
SWIDTH 96 0
DWIDTH 26 0
BBX 26 27 0 -1
BITMAP 
00000000
00000000
00000000
00000000
00000000
00000000
00000000
00000000
00000000
00000000
00000000
00000000
0003c000
087c3000
07c01800
03001800
00001800
00001800
00001800
00003000
00006000
0001c000
000e0000
00000000
00000000
00000000
00000000
ENDCHAR
STARTCHAR aac4
ENCODING 43716 
SWIDTH 96 0
DWIDTH 26 0
BBX 26 27 0 -1
BITMAP 
00000000
00000000
00000000
00000000
00000000
00000000
00000000
00000000
0007f000
007c1800
23e00c00
3f000600
1c000600
00000600
00000600
00000600
00000c00
00000c00
00001800
00003000
0001e000
001f0000
00000000
00000000
00000000
00000000
00000000
ENDCHAR
STARTCHAR aac5
ENCODING 43717 
SWIDTH 96 0
DWIDTH 26 0
BBX 26 27 0 -1
BITMAP 
00000000
00000000
00000c00
00000600
00003300
00001800
00000c00
00000000
0007f000
007c1800
23e00c00
3f000600
1c000600
00000600
00000600
00000600
00000c00
00000c00
00001800
00003000
0001e000
001f0000
00000000
00000000
00000000
00000000
00000000
ENDCHAR
STARTCHAR aac6
ENCODING 43718 
SWIDTH 96 0
DWIDTH 26 0
BBX 26 27 0 -1
BITMAP 
00000000
00000000
00000000
00000000
00000000
00003800
201ffc00
1ff18000
0f020000
00040000
00080000
00100000
00300000
00200000
00600000
00600000
00600000
00600000
00300000
00300000
00180000
000fc000
0003e000
00000000
00000000
00000000
00000000
ENDCHAR
STARTCHAR aac7
ENCODING 43719 
SWIDTH 96 0
DWIDTH 26 0
BBX 26 27 0 -1
BITMAP 
00000000
00000000
00000000
00000000
00000000
00003800
201ffc00
1ff18000
0f020000
00040c00
00080600
00106300
00303000
00201800
00200000
00600000
00600000
00600000
00300000
00300000
001c0000
000fc000
0003e000
00000000
00000000
00000000
00000000
ENDCHAR
STARTCHAR aac8
ENCODING 43720 
SWIDTH 96 0
DWIDTH 26 0
BBX 26 27 0 -1
BITMAP 
00000000
00000000
00000000
01c00000
00600000
00600000
00600000
00604000
00602000
00603000
0030f000
0037c000
001c0000
00600000
00c00000
01800000
01000000
03000000
02000000
03000000
03000000
01fff000
00ffe000
00000000
00000000
00000000
00000000
ENDCHAR
STARTCHAR aac9
ENCODING 43721 
SWIDTH 96 0
DWIDTH 26 0
BBX 26 27 0 -1
BITMAP 
00000000
00000000
00001800
01c00c00
00606600
00603000
00601800
00600000
00600000
00607000
0031f000
00378000
001c0000
00700000
00c00000
01800000
01000000
02000000
02000000
02000000
03000000
01fff000
007fe000
00000000
00000000
00000000
00000000
ENDCHAR
STARTCHAR aaca
ENCODING 43722 
SWIDTH 96 0
DWIDTH 26 0
BBX 26 27 0 -1
BITMAP 
00000000
00000000
00000000
01800000
00c00000
00d80000
10f9e000
0f803800
01801c00
0100e400
03010000
03010000
02010000
06010000
06018000
0c008000
0c00c000
1800c000
183fc000
0040f800
0040dc00
00418c00
003f0000
00000000
00000000
00000000
00000000
ENDCHAR
STARTCHAR aacb
ENCODING 43723 
SWIDTH 96 0
DWIDTH 26 0
BBX 26 27 0 -1
BITMAP 
00000000
00000000
00000000
00000000
18000000
0c000000
0c187800
0c07fc00
0c000000
08000000
18000000
18000000
10000000
10000000
10000000
11100000
11200000
1a200000
1a300000
0c1ffc00
0c07fe00
04000000
00000000
00000000
00000000
00000000
00000000
ENDCHAR
STARTCHAR aacc
ENCODING 43724 
SWIDTH 96 0
DWIDTH 26 0
BBX 26 27 0 -1
BITMAP 
00000000
00000000
00200000
00100000
00180000
00180000
003fc000
20583000
11981800
1a180c00
0c300400
0c300600
0c300600
0c600600
16600600
13400600
11800c00
11c3ec00
11e41800
1a441c00
1e043700
0c03e200
00000000
00000000
00000000
00000000
00000000
ENDCHAR
STARTCHAR aacd
ENCODING 43725 
SWIDTH 96 0
DWIDTH 26 0
BBX 26 27 0 -1
BITMAP 
00000000
00000000
00000000
03800000
00c00000
00c00000
00800000
20e1f000
1fc61800
0cd80800
00a00c00
00c00c00
01800c00
02800c00
06800c00
04800c00
0c800c00
1887ec00
38881c00
12880e00
01841b00
0183f300
00800000
00000000
00000000
00000000
00000000
ENDCHAR
STARTCHAR aace
ENCODING 43726 
SWIDTH 96 0
DWIDTH 26 0
BBX 26 27 0 -1
BITMAP 
00000000
00000000
00000000
00000000
00000000
001fc000
00687800
01880c00
02080600
06080600
0c080300
0c180300
18100300
18100300
18300300
18300300
18600600
18600600
0cc00c00
0f801800
07007000
0003c000
00000000
00000000
00000000
00000000
00000000
ENDCHAR
STARTCHAR aacf
ENCODING 43727 
SWIDTH 96 0
DWIDTH 26 0
BBX 26 27 0 -1
BITMAP 
00000000
00000000
00000000
18038000
0c00c000
0c00c000
0c00c000
0c00cc00
0c60fe00
081fc000
1800c000
1800c000
1000c000
1000c000
1000c000
1100c000
1100c000
1a3fc000
1a40e000
0c40f800
0c20dc00
041f8c00
00000000
00000000
00000000
00000000
00000000
ENDCHAR
STARTCHAR aad0
ENCODING 43728 
SWIDTH 96 0
DWIDTH 26 0
BBX 26 27 0 -1
BITMAP 
00000000
00000300
00001980
00038c80
1800c600
0c00c000
0c00c000
0c00cc00
0c60fe00
081fc000
1800c000
1800c000
1000c000
1000c000
1000c000
1100c000
1100c000
1a3fc000
1a40e000
0c40f800
0c20dc00
041f8c00
00000000
00000000
00000000
00000000
00000000
ENDCHAR
STARTCHAR aad1
ENCODING 43729 
SWIDTH 96 0
DWIDTH 26 0
BBX 26 27 0 -1
BITMAP 
00000000
00000e00
00001100
18039100
0c00d100
0c00ce00
0c00c000
0c00cc00
0c60fe00
081fc000
1800c000
1800c000
1000c000
1000c000
1000c000
1100c000
1100c000
1a3fc000
1a40e000
0c40f800
0c20dc00
041f8c00
00000000
00000000
00000000
00000000
00000000
ENDCHAR
STARTCHAR aad2
ENCODING 43730 
SWIDTH 96 0
DWIDTH 26 0
BBX 26 27 0 -1
BITMAP 
00000000
00000000
00000000
00000000
00000000
20308000
1ff8c000
0e70c000
00c0c000
0180a000
0300a000
06009000
04009800
0c008800
0c008c00
18018e00
18010600
18010000
18030000
1c020000
0e060000
07fc0000
01f00000
00000000
00000000
00000000
00000000
ENDCHAR
STARTCHAR aad3
ENCODING 43731 
SWIDTH 96 0
DWIDTH 26 0
BBX 26 27 0 -1
BITMAP 
00000000
00000000
00000c00
00000600
00003300
10309800
0ff8cc00
0670c000
00c0c000
0180a000
0300a000
06009000
04009800
0c008c00
0c008e00
18018600
18010000
18010000
18030000
1c020000
0e060000
07fc0000
01f00000
00000000
00000000
00000000
00000000
ENDCHAR
STARTCHAR aad4
ENCODING 43732 
SWIDTH 96 0
DWIDTH 26 0
BBX 26 27 0 -1
BITMAP 
00000000
00000000
00000000
00000e00
00001100
10309100
0ff8d100
0670ce00
00c0c000
0180a000
0300a000
06009000
04009800
0c008c00
0c008e00
18018600
18010000
18010000
18030000
1c020000
0e060000
07fc0000
01f00000
00000000
00000000
00000000
00000000
ENDCHAR
STARTCHAR aad5
ENCODING 43733 
SWIDTH 96 0
DWIDTH 26 0
BBX 26 27 0 -1
BITMAP 
00000000
00000000
00000000
00000000
00380000
000e0000
00070000
00070000
000c0000
00100000
00200000
00200000
00100000
00180000
000fc000
007e3000
00c31800
01810c00
23018600
26018300
3c018300
18430000
003e0000
000c0000
00000000
00000000
00000000
ENDCHAR
STARTCHAR aad6
ENCODING 43734 
SWIDTH 96 0
DWIDTH 26 0
BBX 26 27 0 -1
BITMAP 
00000000
00000000
00000000
00000000
00380000
000e0000
00070c00
00070600
000c3300
00101800
00200c00
00200000
00100000
00180000
000fc000
003e3000
00e31800
01830c00
23018600
26018300
3c018300
18430000
003e0000
000c0000
00000000
00000000
00000000
ENDCHAR
STARTCHAR aad7
ENCODING 43735 
SWIDTH 96 0
DWIDTH 26 0
BBX 26 27 0 -1
BITMAP 
00000000
00000000
00000000
00000000
00380000
000e0000
00070000
00070000
000c1c00
00102200
00202200
00202200
00101c00
00180000
000fc000
003e3000
00e31800
01830c00
23018600
26018300
3c018300
18430000
003e0000
000c0000
00000000
00000000
00000000
ENDCHAR
STARTCHAR aad8
ENCODING 43736 
SWIDTH 96 0
DWIDTH 26 0
BBX 26 27 0 -1
BITMAP 
00000000
00000000
00000000
00000000
00000000
00000000
00600000
00900000
00900000
01880000
030c0000
06060000
4c030000
78018000
3000c000
00006000
00003000
00001c00
00000f00
00000300
00000000
00000000
00000000
00000000
00000000
00000000
00000000
ENDCHAR
STARTCHAR aad9
ENCODING 43737 
SWIDTH 96 0
DWIDTH 26 0
BBX 26 27 0 -1
BITMAP 
00000000
00000000
00000000
00000000
00003000
00001800
00618c00
0090c000
00906000
01880000
030c0000
06060000
4c030000
78018000
3000c000
00006000
00003000
00001c00
00000f00
00000300
00000000
00000000
00000000
00000000
00000000
00000000
00000000
ENDCHAR
STARTCHAR aada
ENCODING 43738 
SWIDTH 96 0
DWIDTH 26 0
BBX 26 27 0 -1
BITMAP 
00000000
00000000
00000000
00000000
00003800
00004400
00604400
00904400
00903800
01880000
030c0000
06060000
4c030000
78018000
3000c000
00006000
00003000
00001c00
00000f00
00000300
00000000
00000000
00000000
00000000
00000000
00000000
00000000
ENDCHAR
STARTCHAR aadb
ENCODING 43739 
SWIDTH 96 0
DWIDTH 26 0
BBX 26 27 0 -1
BITMAP 
00000000
00000000
00000000
18001000
0c10f800
0c0f8000
0c00c000
0c00c000
0c00c000
0800cc00
1860fe00
183fc000
1000c000
1000c000
1000c000
1100c000
1100c000
1a1fc000
1a20f800
0c20dc00
0c10cc00
040f8000
00000000
00000000
00000000
00000000
00000000
ENDCHAR
STARTCHAR aadc
ENCODING 43740 
SWIDTH 96 0
DWIDTH 26 0
BBX 26 27 0 -1
BITMAP 
00000000
00000000
00000300
00001180
3010f880
180f8600
1800c300
1800c300
1800c000
1000d800
3060fc00
303fc000
2000c000
2000c000
2000c000
2200c000
2200c000
341fc000
3420f800
1820dc00
1810cc00
080f8000
00000000
00000000
00000000
00000000
00000000
ENDCHAR
STARTCHAR aadd
ENCODING 43741 
SWIDTH 96 0
DWIDTH 26 0
BBX 26 27 0 -1
BITMAP 
00000000
00000700
00000880
30004880
1821e880
181f0700
18018000
18018000
18018000
1001b000
30c1f800
307f8000
20018000
20018000
20018000
22018000
22018000
343f8000
3441f000
1841b800
18219800
081f0000
00000000
00000000
00000000
00000000
00000000
ENDCHAR
STARTCHAR aade
ENCODING 43742 
SWIDTH 96 0
DWIDTH 26 0
BBX 26 27 0 -1
BITMAP 
00000000
00000000
001c0000
00060000
00060000
00066000
0207c000
01fe0000
00060000
00060000
00061c00
0c07f800
03fe0000
00060000
00060000
00060000
00060000
03fe0000
040fc000
0406f000
02063000
01fc0000
00000000
00000000
00000000
00000000
00000000
ENDCHAR
STARTCHAR aadf
ENCODING 43743 
SWIDTH 96 0
DWIDTH 26 0
BBX 26 27 0 -1
BITMAP 
00000000
00000000
00000000
00000000
00060000
023f0000
03e60000
018c0000
00080000
00180000
00103000
00301800
01f81800
06671800
0840f000
10803800
20802e00
21002700
33002300
1e006000
0c004000
00008000
00030000
00000000
00000000
00000000
00000000
ENDCHAR
STARTCHAR aae0
ENCODING 43744 
SWIDTH 96 0
DWIDTH 26 0
BBX 26 27 0 -1
BITMAP 
00000000
00000000
03000000
00c00000
00c00000
00c80000
08fc0000
07e00000
01801800
01802400
01804600
07804200
08c04300
08c04f00
08804200
09804000
0d004000
07002000
03003000
03003000
03003000
01ffe000
00ffc000
00000000
00000000
00000000
00000000
ENDCHAR
STARTCHAR aae1
ENCODING 43745 
SWIDTH 96 0
DWIDTH 26 0
BBX 26 27 0 -1
BITMAP 
00000000
00000000
00000000
00040000
00020000
08030000
04030000
06030000
063fe000
02c61800
03060c00
07040400
0d8c0600
08880600
10d80600
10700600
10300600
18580c00
18d80c00
0f801800
06003000
0000c000
000f0000
00000000
00000000
00000000
00000000
ENDCHAR
STARTCHAR aae2
ENCODING 43746 
SWIDTH 96 0
DWIDTH 26 0
BBX 26 27 0 -1
BITMAP 
00000000
00000000
00300000
00180000
00180000
00300000
08300000
06300000
03ff0000
00660000
00600000
00400000
20c02000
18c01000
07d80800
00fc0800
01800c00
01800c00
01800c00
01800c00
00801800
00c07000
007fe000
001f8000
00000000
00000000
00000000
ENDCHAR
STARTCHAR aae3
ENCODING 43747 
SWIDTH 96 0
DWIDTH 26 0
BBX 26 27 0 -1
BITMAP 
00000000
00000000
00000000
00000000
00000000
00000000
00000000
00000000
00020000
00e18000
00d18000
00860000
0041f000
00660800
08f81800
07201800
03321000
0031e000
00180000
00080000
000c0000
000c0000
00060000
00060000
00000000
00000000
00000000
ENDCHAR
STARTCHAR aae4
ENCODING 43748 
SWIDTH 96 0
DWIDTH 26 0
BBX 26 27 0 -1
BITMAP 
00000000
00000000
00000000
00080000
00060000
01c30000
02330000
020e7c00
03038600
013e0300
01f00300
27800300
3e800300
18c40600
00430c00
0060f800
00200000
00300000
00300000
00180000
00180000
000c0000
000c0000
000c0000
00000000
00000000
00000000
ENDCHAR
STARTCHAR aae5
ENCODING 43749 
SWIDTH 96 0
DWIDTH 26 0
BBX 26 27 0 -1
BITMAP 
00000000
00000000
00000000
00000000
00000000
00000000
00000000
00000000
00040000
00030000
02030000
0107e000
011b1000
01331800
02431800
02831800
02a31800
02921000
038a6000
01078000
01020000
00040000
00080000
00000000
00000000
00000000
00000000
ENDCHAR
STARTCHAR aae6
ENCODING 43750 
SWIDTH 96 0
DWIDTH 26 0
BBX 26 27 0 -1
BITMAP 
00000000
00000000
00060000
00010000
18018000
0c018000
0c07e000
08399800
08418c00
10818600
11018600
12018600
12018600
14418600
14418c00
1c218c00
0c311800
0c1b3000
0407c000
00030000
00030000
00060000
000c0000
00300000
00000000
00000000
00000000
ENDCHAR
STARTCHAR aae7
ENCODING 43751 
SWIDTH 96 0
DWIDTH 26 0
BBX 26 27 0 -1
BITMAP 
00000000
00000000
00000000
00000000
00000000
00000000
00000000
00000000
00000000
00180000
000c0000
000e0000
000c0000
000cc000
000fe000
000c0000
00080000
00080000
00080000
01ff0000
020cc000
020c7000
01f81000
00000000
00000000
00000000
00000000
ENDCHAR
STARTCHAR aae8
ENCODING 43752 
SWIDTH 96 0
DWIDTH 26 0
BBX 26 27 0 -1
BITMAP 
00000000
00000000
00000000
001c0000
00060000
00070000
00060000
00060000
00063800
0007fc00
00060000
00060000
00060000
00060000
00040000
00040000
00040000
00040000
03fe0000
0407c000
04067000
02061c00
01fc0c00
00000000
00000000
00000000
00000000
ENDCHAR
STARTCHAR aae9
ENCODING 43753 
SWIDTH 96 0
DWIDTH 26 0
BBX 26 27 0 -1
BITMAP 
00000000
00000000
00300000
000e0000
00038000
000f8000
00300000
00400000
00800000
01000000
01800000
01800000
01800000
0187f000
019c1800
01f00c00
01800c00
03000c00
01000c00
00001800
00003800
00007000
0001c000
001e0000
00000000
00000000
00000000
ENDCHAR
STARTCHAR aaea
ENCODING 43754 
SWIDTH 96 0
DWIDTH 26 0
BBX 26 27 0 -1
BITMAP 
00000000
00000000
01000000
00c00000
00800000
00800000
008f8000
0198c000
01106000
03106000
03206000
03206000
03606000
03c06000
01c06000
01806000
00006000
0000c000
0000c000
00018000
00018000
00030000
00060000
00180000
00000000
00000000
00000000
ENDCHAR
STARTCHAR aaeb
ENCODING 43755 
SWIDTH 96 0
DWIDTH 26 0
BBX 26 27 0 -1
BITMAP 
00000000
00000000
00000000
00000000
00018000
043fc000
03e18000
01830000
00060000
000c0000
00300000
00600000
00c7c000
01986000
07e03000
0f001800
0e001800
00001800
007c1800
00863000
00836000
0081c000
007f0000
00000000
00000000
00000000
00000000
ENDCHAR
STARTCHAR aaec
ENCODING 43756 
SWIDTH 96 0
DWIDTH 26 0
BBX 26 27 0 -1
BITMAP 
00000000
00000000
00000000
01800000
00c00000
00c00000
0081e000
00871000
00cc1000
27d81000
1c901000
08a03000
00c03000
01803000
02803000
06803000
04803000
0c803100
1a803100
39803200
11801e00
00c00000
00800000
00000000
00000000
00000000
00000000
ENDCHAR
STARTCHAR aaed
ENCODING 43757 
SWIDTH 96 0
DWIDTH 26 0
BBX 26 27 0 -1
BITMAP 
00000000
00000000
00000000
00000000
0001c000
043fe000
03e1c000
01830000
00060000
000c0000
00180000
00300000
00600000
018fc000
03303000
06c01800
0f000c00
0c000c00
00000c00
00001800
00001800
00003000
0000c000
000f0000
00000000
00000000
00000000
ENDCHAR
STARTCHAR aaee
ENCODING 43758 
SWIDTH 96 0
DWIDTH 26 0
BBX 26 27 0 -1
BITMAP 
00000000
00000000
00000000
00000000
00000000
00000000
00000000
00000000
00c00000
00600000
00600000
00700000
05e1c000
034e3000
00701800
00c01800
01401800
02401800
06401800
0c401000
09406000
00e0c000
00430000
00000000
00000000
00000000
00000000
ENDCHAR
STARTCHAR aaef
ENCODING 43759 
SWIDTH 96 0
DWIDTH 26 0
BBX 26 27 0 -1
BITMAP 
00000000
00000000
00000000
00c00000
00600000
00600000
00400000
10700000
0fe1f000
06460c00
00580600
00600300
00c00300
01400300
03400300
02400300
06400300
0c400600
1d400600
08c00c00
00c03000
0063c000
00400000
00000000
00000000
00000000
00000000
ENDCHAR
STARTCHAR aaf0
ENCODING 43760 
SWIDTH 96 0
DWIDTH 26 0
BBX 26 27 0 -1
BITMAP 
00000000
00000000
00000000
00000000
00060000
023f0000
01c60000
00040000
000c0000
00080000
001fe000
00701800
01a00c00
02200600
04400600
04400600
08800600
09800600
09000c00
0b0f0c00
0e109800
0410b000
000fc000
00000000
00000000
00000000
00000000
ENDCHAR
STARTCHAR aaf1
ENCODING 43761 
SWIDTH 96 0
DWIDTH 26 0
BBX 26 27 0 -1
BITMAP 
00000000
00000000
00030000
011f8000
00e30000
00060000
00080000
00100000
0023c000
005c6000
00e03000
01803000
03183000
00246000
001fc000
00600000
00800000
01000000
0201e000
04c21800
0b240c00
1c3c0600
18180600
18180000
00000000
00000000
00000000
ENDCHAR
STARTCHAR aaf2
ENCODING 43762 
SWIDTH 96 0
DWIDTH 26 0
BBX 26 27 0 -1
BITMAP 
00000000
00000000
00000000
00300000
00180000
00198000
041fc000
03f80000
00300000
00600000
00c07000
00808800
01310800
03ca1800
070e3000
0c0c6000
180f8000
007c0000
008c0000
010c0000
01000000
01000000
00fff000
007ff000
00000000
00000000
00000000
ENDCHAR
STARTCHAR aaf3
ENCODING 43763 
SWIDTH 96 0
DWIDTH 26 0
BBX 26 27 0 -1
BITMAP 
00000000
00000000
00000000
00300000
00180000
00180000
00300000
00300000
00600000
00600000
00c00000
00800000
019c0000
03620000
02810000
06010000
06010000
0c030200
0c030200
18030400
18030800
3001b000
1000e000
00000000
00000000
00000000
00000000
ENDCHAR
STARTCHAR aba1
ENCODING 43937 
SWIDTH 96 0
DWIDTH 26 0
BBX 26 27 0 -1
BITMAP 
00000000
00000000
00000000
00000000
00000000
00000000
00000000
00000000
00001000
0403f800
03fe3000
01803000
00106000
00086000
000cc000
000c8000
000f0000
00180000
00180000
00100000
00300000
00600000
00c00000
00000000
00000000
00000000
00000000
ENDCHAR
STARTCHAR aba2
ENCODING 43938 
SWIDTH 96 0
DWIDTH 26 0
BBX 26 27 0 -1
BITMAP 
00000000
00000000
00000000
00000000
00001800
0807fc00
0ffc0e00
07000c00
00000c00
00181800
000c1800
000c3000
000c6000
000cc000
001f0000
00180000
00180000
00300000
00300000
00600000
00c00000
01800000
06000000
00000000
00000000
00000000
00000000
ENDCHAR
STARTCHAR aba3
ENCODING 43939 
SWIDTH 96 0
DWIDTH 26 0
BBX 26 27 0 -1
BITMAP 
00000000
00000000
00000000
00000000
00000000
00000000
00000000
00000000
00004000
00006000
0000c000
00018000
00030000
00060000
001f0000
00360000
00c60000
07060000
00060000
00060000
00060000
00060000
00060000
00000000
00000000
00000000
00000000
ENDCHAR
STARTCHAR aba4
ENCODING 43940 
SWIDTH 96 0
DWIDTH 26 0
BBX 26 27 0 -1
BITMAP 
00000000
00000000
00000000
00003000
00001800
00003800
00003000
00007000
0000c000
00018000
00070000
000f0000
003b8000
00e30000
03830000
1e030000
00030000
00030000
00030000
00030000
00030000
00038000
00030000
00000000
00000000
00000000
00000000
ENDCHAR
STARTCHAR aba5
ENCODING 43941 
SWIDTH 96 0
DWIDTH 26 0
BBX 26 27 0 -1
BITMAP 
00000000
00000000
00000000
00000000
00000000
00000000
00000000
00000000
00180000
000c0000
000c2000
040ff000
03f83800
03003000
03003000
03006000
03006000
0000c000
0000c000
00018000
00030000
000e0000
00780000
00000000
00000000
00000000
00000000
ENDCHAR
STARTCHAR aba6
ENCODING 43942 
SWIDTH 96 0
DWIDTH 26 0
BBX 26 27 0 -1
BITMAP 
00000000
00000000
00000000
00180000
000e0000
000c0000
000c0800
080ffc00
07fc0e00
04000c00
06000c00
06001c00
06001800
06001800
07001800
06003000
00003000
00006000
0000c000
00018000
00030000
000e0000
00780000
00000000
00000000
00000000
00000000
ENDCHAR
STARTCHAR aba7
ENCODING 43943 
SWIDTH 96 0
DWIDTH 26 0
BBX 26 27 0 -1
BITMAP 
00000000
00000000
00000000
00000000
00000000
00000000
00000000
00000000
00000000
00004000
0207e000
01f83000
00880000
000c0000
000c0000
000c0000
000c0000
000c0000
000c0000
000c2000
040ff000
03fc1800
01000000
00000000
00000000
00000000
00000000
ENDCHAR
STARTCHAR aba8
ENCODING 43944 
SWIDTH 96 0
DWIDTH 26 0
BBX 26 27 0 -1
BITMAP 
00000000
00000000
00000000
00000000
00000000
00000000
00006000
0807f000
07fc1800
03080000
000e0000
000c0000
000c0000
000c0000
000c0000
000c0000
000c0000
000c0000
000c1800
300ffc00
1ffe0600
0e000000
00000000
00000000
00000000
00000000
00000000
ENDCHAR
STARTCHAR aba9
ENCODING 43945 
SWIDTH 96 0
DWIDTH 26 0
BBX 26 27 0 -1
BITMAP 
00000000
00000000
00000000
00000000
00000000
00000000
00000000
00000000
00030000
00018000
00018000
0401f000
03ff9800
01038000
00078000
00058000
000d8000
00198000
00318000
00c18000
07018000
000fc000
00018000
00000000
00000000
00000000
00000000
ENDCHAR
STARTCHAR abaa
ENCODING 43946 
SWIDTH 96 0
DWIDTH 26 0
BBX 26 27 0 -1
BITMAP 
00000000
00000000
00000000
00018000
0000e000
0000c000
0000c000
0000c400
0400fe00
07ffc100
0381c000
0003c000
0002c000
0006c000
000cc000
0018c000
0030c000
0060c000
00c0c000
0380c000
0e08c000
0007c000
00018000
00000000
00000000
00000000
00000000
ENDCHAR
STARTCHAR abab
ENCODING 43947 
SWIDTH 96 0
DWIDTH 26 0
BBX 26 27 0 -1
BITMAP 
00000000
00000000
00000000
00180000
000e0000
000c0000
000c0000
000c1c00
080ffe00
0ffc0e00
070c0c00
00180c00
00180c00
00180c00
00180c00
00300c00
00300c00
00601c00
00601800
00c01800
01843800
0303f000
1c006000
00000000
00000000
00000000
00000000
ENDCHAR
STARTCHAR abac
ENCODING 43948 
SWIDTH 96 0
DWIDTH 26 0
BBX 26 27 0 -1
BITMAP 
00000000
00000000
00000c00
00306600
001c3300
00181800
00180000
00182000
101ff000
1ff83800
0e183800
00303000
00303000
00303000
00303000
00603000
00603000
00c07000
00c06000
01806000
0308e000
0607c000
38018000
00000000
00000000
00000000
00000000
ENDCHAR
STARTCHAR abad
ENCODING 43949 
SWIDTH 96 0
DWIDTH 26 0
BBX 26 27 0 -1
BITMAP 
00000000
00000000
00000000
00300000
00780000
00180000
00182000
081bf000
0ffe1800
060c0000
000c0000
000c0000
000c0800
000c7c00
181fc600
0ff60000
06060000
00060000
00060000
00060000
00060000
00070000
00060000
00000000
00000000
00000000
00000000
ENDCHAR
STARTCHAR abae
ENCODING 43950 
SWIDTH 96 0
DWIDTH 26 0
BBX 26 27 0 -1
BITMAP 
00000000
00000000
00000c00
00606600
00f03300
00301800
00304000
0837e000
0ffc3000
06180000
00180000
00180000
00181000
0018f800
303f8c00
1fec0000
0c0c0000
000c0000
000c0000
000c0000
000c0000
000e0000
000c0000
00000000
00000000
00000000
00000000
ENDCHAR
STARTCHAR abaf
ENCODING 43951 
SWIDTH 96 0
DWIDTH 26 0
BBX 26 27 0 -1
BITMAP 
00000000
00000000
00000000
00600000
00300000
00300000
00602000
0063f000
00fe3800
00c03000
01803000
03007000
06006000
1800c000
0000c000
00018000
00030000
00060000
000c0000
00180000
00300000
00e00000
0f800000
00000000
00000000
00000000
00000000
ENDCHAR
STARTCHAR abb0
ENCODING 43952 
SWIDTH 96 0
DWIDTH 26 0
BBX 26 27 0 -1
BITMAP 
00000000
00000000
00000c00
00c00600
00603300
00601800
00c04c00
00c7e000
01fc7000
01806000
03006000
0600e000
0c00c000
3001c000
00018000
00030000
00070000
000e0000
001c0000
00380000
00600000
01c00000
0f000000
00000000
00000000
00000000
00000000
ENDCHAR
STARTCHAR abb1
ENCODING 43953 
SWIDTH 96 0
DWIDTH 26 0
BBX 26 27 0 -1
BITMAP 
00000000
00000000
00000000
00c00000
00700000
00600000
00600000
00c00400
00c1fe00
00ff0300
01818000
0181c000
03018000
06018000
18038000
00030000
00030000
00060000
00060000
000c0000
00180000
00700000
03c00000
00000000
00000000
00000000
00000000
ENDCHAR
STARTCHAR abb2
ENCODING 43954 
SWIDTH 96 0
DWIDTH 26 0
BBX 26 27 0 -1
BITMAP 
00000000
00000000
00000c00
00c06600
00703300
00601800
00600000
00c00800
00c1fc00
00ff0600
0181c000
01818000
03018000
06018000
18030000
00030000
00030000
00060000
00060000
000c0000
00180000
00700000
03c00000
00000000
00000000
00000000
00000000
ENDCHAR
STARTCHAR abb3
ENCODING 43955 
SWIDTH 96 0
DWIDTH 26 0
BBX 26 27 0 -1
BITMAP 
00000000
00000000
00000000
00000000
00000000
00000000
00004000
040fe000
07f87000
03007000
00006000
00006000
00006000
00006000
00006000
0000e000
0000c000
0000c000
0000c000
0800e000
0ffff000
07800000
00000000
00000000
00000000
00000000
00000000
ENDCHAR
STARTCHAR abb4
ENCODING 43956 
SWIDTH 96 0
DWIDTH 26 0
BBX 26 27 0 -1
BITMAP 
00000000
00000000
00000c00
00000600
00003300
00001800
00008c00
081fc000
0ff0e000
0600e000
0000c000
0000c000
0000c000
0000c000
0000c000
0001c000
00018000
00018000
00018000
1001c000
1fffe000
0e000000
00000000
00000000
00000000
00000000
00000000
ENDCHAR
STARTCHAR abb5
ENCODING 43957 
SWIDTH 96 0
DWIDTH 26 0
BBX 26 27 0 -1
BITMAP 
00000000
00000000
00000000
00018000
0300e000
01c0c000
0180c000
0180c000
0180c400
2187fe00
3ffcc300
1980c000
0180c000
0180c000
01818000
03818000
01818000
00030000
00030000
00060000
000c0000
00380000
00e00000
00000000
00000000
00000000
00000000
ENDCHAR
STARTCHAR abb6
ENCODING 43958 
SWIDTH 96 0
DWIDTH 26 0
BBX 26 27 0 -1
BITMAP 
00000000
00000000
00000c00
00030600
0601c300
03819800
03018c00
03018600
03019000
230ff800
3ff98400
1b018000
03018000
03018000
03030000
07030000
03070000
00060000
000c0000
00180000
00300000
00600000
01c00000
00000000
00000000
00000000
00000000
ENDCHAR
STARTCHAR abb7
ENCODING 43959 
SWIDTH 96 0
DWIDTH 26 0
BBX 26 27 0 -1
BITMAP 
00000000
00000000
00000000
01800000
00e00000
00380000
001c0000
000c0000
00000400
1c000400
07000400
01c00c00
00c01800
00001800
00003000
00006000
0000c000
00018000
00070000
043e0000
07f80000
03e00000
01800000
00000000
00000000
00000000
00000000
ENDCHAR
STARTCHAR abb8
ENCODING 43960 
SWIDTH 96 0
DWIDTH 26 0
BBX 26 27 0 -1
BITMAP 
00000000
00000000
00000c00
01800600
00e03300
00381800
001c0c00
000c0000
00000000
1c000400
07000400
01c00c00
00c00800
00001800
00001000
00003000
00006000
0000c000
00038000
000f0000
043c0000
03f00000
01800000
00000000
00000000
00000000
00000000
ENDCHAR
STARTCHAR abb9
ENCODING 43961 
SWIDTH 96 0
DWIDTH 26 0
BBX 26 27 0 -1
BITMAP 
00000000
00000000
00000000
00000000
00002000
0607f000
03fc3800
01c03000
00007000
00006000
0000c000
0000c000
00018000
00018000
00030000
00070000
000cc000
00186000
00303000
00601800
00c00c00
03800e00
1e000600
00000000
00000000
00000000
00000000
ENDCHAR
STARTCHAR abba
ENCODING 43962 
SWIDTH 96 0
DWIDTH 26 0
BBX 26 27 0 -1
BITMAP 
00000000
00000000
00000600
00000300
00004180
0c0fec00
07f87600
03806300
0000e000
0000c000
0000c000
00018000
00038000
00030000
00060000
000e0000
001d8000
0030c000
00606000
00c03000
03803800
0e001c00
38001800
00000000
00000000
00000000
00000000
ENDCHAR
STARTCHAR abbb
ENCODING 43963 
SWIDTH 96 0
DWIDTH 26 0
BBX 26 27 0 -1
BITMAP 
00000000
00000000
00000000
01800000
00e00000
00c00000
00c00000
00c01000
00c1f800
10df1c00
1ff03800
0cc03000
00c06000
00c0c000
00c30000
00c00000
00c00000
00c00000
00c00000
00e01000
007ff000
003fe000
00000000
00000000
00000000
00000000
00000000
ENDCHAR
STARTCHAR abbc
ENCODING 43964 
SWIDTH 96 0
DWIDTH 26 0
BBX 26 27 0 -1
BITMAP 
00000000
00000000
00000c00
03000600
01c03300
01801800
01800c00
01802000
0183f000
21be3800
3fe07000
19806000
0180c000
01818000
01860000
01800000
01800000
01800000
01800000
01c02000
00ffe000
007fc000
00000000
00000000
00000000
00000000
00000000
ENDCHAR
STARTCHAR abbd
ENCODING 43965 
SWIDTH 96 0
DWIDTH 26 0
BBX 26 27 0 -1
BITMAP 
00000000
00000000
00000000
00000000
08007000
04001800
06001c00
03001800
03801800
01803800
01c03000
01803000
00006000
00006000
00006000
0000c000
0000c000
00018000
00030000
00060000
000c0000
00380000
01e00000
00000000
00000000
00000000
00000000
ENDCHAR
STARTCHAR abbe
ENCODING 43966 
SWIDTH 96 0
DWIDTH 26 0
BBX 26 27 0 -1
BITMAP 
00000000
00000000
00000600
00000300
2001c180
10006c00
18007600
0c006300
0e006000
06006000
0700e000
0600c000
0000c000
0001c000
00018000
00030000
00030000
00060000
000c0000
00180000
00300000
00e00000
07800000
00000000
00000000
00000000
00000000
ENDCHAR
STARTCHAR abbf
ENCODING 43967 
SWIDTH 96 0
DWIDTH 26 0
BBX 26 27 0 -1
BITMAP 
00000000
00000000
00000000
00600000
00300000
00700000
00602000
00c3f000
00fe3800
01803000
03003000
07006000
0ce06000
1838c000
000dc000
00078000
00078000
000cc000
0018e000
00304000
00e00000
01800000
0e000000
00000000
00000000
00000000
00000000
ENDCHAR
STARTCHAR abc0
ENCODING 43968 
SWIDTH 96 0
DWIDTH 26 0
BBX 26 27 0 -1
BITMAP 
00000000
00000000
00000600
00c00300
00601980
00e00c00
00c04600
0187e000
01fc7000
03006000
06006000
0e00e000
19c0c000
3071c000
00198000
000f8000
00070000
000f8000
001dc000
00308000
00e00000
03800000
1e000000
00000000
00000000
00000000
00000000
ENDCHAR
STARTCHAR abc1
ENCODING 43969 
SWIDTH 96 0
DWIDTH 26 0
BBX 26 27 0 -1
BITMAP 
00000000
00000000
00000000
00006000
00003800
0003f000
001fc000
07f40000
00060000
00060000
00061800
3007fc00
1ffe0600
0e060000
000e0000
000c0000
000c0000
001c0000
00180000
00380000
00700000
00c00000
03800000
00000000
00000000
00000000
00000000
ENDCHAR
STARTCHAR abc2
ENCODING 43970 
SWIDTH 96 0
DWIDTH 26 0
BBX 26 27 0 -1
BITMAP 
00000000
00000000
00000600
0000c300
00006180
0007ec00
003f8600
0fe80300
000c0000
000c0000
000c3000
200ff800
3ffc0c00
1c0c0000
001c0000
00180000
00180000
00180000
00300000
00700000
00c00000
01800000
07000000
00000000
00000000
00000000
00000000
ENDCHAR
STARTCHAR abc3
ENCODING 43971 
SWIDTH 96 0
DWIDTH 26 0
BBX 26 27 0 -1
BITMAP 
00000000
00000000
00000000
00000000
00000000
00000000
00000000
00000000
00200000
00106000
04183000
02183800
030c3000
018c3000
01806000
01806000
00006000
0000c000
00018000
00030000
00060000
001c0000
00f00000
00000000
00000000
00000000
00000000
ENDCHAR
STARTCHAR abc4
ENCODING 43972 
SWIDTH 96 0
DWIDTH 26 0
BBX 26 27 0 -1
BITMAP 
00000000
00000000
00000000
00000000
00400000
00207000
10301800
08301c00
0c181800
061c1800
06181800
03003800
03003000
00003000
00006000
00006000
0000c000
00018000
00030000
00060000
001c0000
00700000
01c00000
00000000
00000000
00000000
00000000
ENDCHAR
STARTCHAR abc5
ENCODING 43973 
SWIDTH 96 0
DWIDTH 26 0
BBX 26 27 0 -1
BITMAP 
00000000
00000000
00000600
00000300
00800180
00400c00
20600600
1060e300
18303000
0c303800
0c303000
06007000
06006000
00006000
0000c000
0000c000
00018000
00030000
00060000
000c0000
00380000
00e00000
03800000
00000000
00000000
00000000
00000000
ENDCHAR
STARTCHAR abc6
ENCODING 43974 
SWIDTH 96 0
DWIDTH 26 0
BBX 26 27 0 -1
BITMAP 
00000000
00000000
00000000
00004000
0207e000
03fc3000
01800000
00000000
00000000
00001800
3007fc00
1ffc0600
0e070000
00060000
00060000
00060000
000c0000
000c0000
00180000
00180000
00300000
00e00000
03800000
00000000
00000000
00000000
00000000
ENDCHAR
STARTCHAR abc7
ENCODING 43975 
SWIDTH 96 0
DWIDTH 26 0
BBX 26 27 0 -1
BITMAP 
00000000
00000000
00000600
00008300
040fc180
07f80c00
03000600
00000300
00000000
00003000
200ff800
3ff80000
1c0e0000
000c0000
000c0000
000c0000
00180000
00180000
00300000
00300000
00600000
01c00000
07000000
00000000
00000000
00000000
00000000
ENDCHAR
STARTCHAR abc8
ENCODING 43976 
SWIDTH 96 0
DWIDTH 26 0
BBX 26 27 0 -1
BITMAP 
00000000
00000000
00000000
00c00000
00600000
00700000
00600000
00600000
00600000
00600000
007c0000
00670000
0061c000
0060e000
00607000
00602000
00600000
00600000
00600000
00600000
00600000
00e00000
00600000
00000000
00000000
00000000
00000000
ENDCHAR
STARTCHAR abc9
ENCODING 43977 
SWIDTH 96 0
DWIDTH 26 0
BBX 26 27 0 -1
BITMAP 
00000000
00000000
00000000
00c01800
00600c00
0070c600
00606000
00603000
00600000
00600000
007c0000
00670000
0061c000
0060e000
00607000
00602000
00600000
00600000
00600000
00600000
00600000
00e00000
00600000
00000000
00000000
00000000
00000000
ENDCHAR
STARTCHAR abca
ENCODING 43978 
SWIDTH 96 0
DWIDTH 26 0
BBX 26 27 0 -1
BITMAP 
00000000
00000000
00000000
000c0000
00060000
00070000
00060000
00060000
00060c00
3007fe00
1ffe0300
0e060000
00060000
000e0000
000c0000
000c0000
000c0000
00180000
00180000
00300000
00600000
01c00000
07000000
00000000
00000000
00000000
00000000
ENDCHAR
STARTCHAR abcb
ENCODING 43979 
SWIDTH 96 0
DWIDTH 26 0
BBX 26 27 0 -1
BITMAP 
00000000
00000000
00000000
00000000
00000000
00000000
00002000
0403f000
07fe1800
03800000
00000000
00000000
00000000
00000000
00000000
00000000
00000000
00003000
1803fc00
0ffe0600
07000000
00000000
00000000
00000000
00000000
00000000
00000000
ENDCHAR
STARTCHAR abcc
ENCODING 43980 
SWIDTH 96 0
DWIDTH 26 0
BBX 26 27 0 -1
BITMAP 
00000000
00000000
00000000
00000000
00004000
0607e000
03fc7000
01806000
0000e000
0000c000
0000c000
01c1c000
00718000
001d0000
00070000
00078000
000ee000
00187000
00303800
00601000
01c00000
03800000
1e000000
00000000
00000000
00000000
00000000
ENDCHAR
STARTCHAR abcd
ENCODING 43981 
SWIDTH 96 0
DWIDTH 26 0
BBX 26 27 0 -1
BITMAP 
00000000
00000000
00000000
00780000
000f0000
00030000
00000000
00006000
060ff000
03f86000
0180c000
00018000
00030000
00060000
000c6000
003e3000
00e61800
03860c00
1e060600
00060000
00060000
000e0000
00060000
00000000
00000000
00000000
00000000
ENDCHAR
STARTCHAR abce
ENCODING 43982 
SWIDTH 96 0
DWIDTH 26 0
BBX 26 27 0 -1
BITMAP 
00000000
00000000
00000000
00000000
0001c000
00006000
00007000
00006000
0000e000
0000c000
0000c000
00018000
00018000
00030000
00060000
00060000
000c0000
00180000
00300000
00e00000
01800000
1f000000
00000000
00000000
00000000
00000000
00000000
ENDCHAR
STARTCHAR abcf
ENCODING 43983 
SWIDTH 96 0
DWIDTH 26 0
BBX 26 27 0 -1
BITMAP 
00000000
00000000
00000000
00000000
00000000
00000000
00c20000
00610000
00708000
0060c000
00606000
00e06000
00c03000
00c01800
01801800
01801c00
03000c00
03000e00
06000600
0c000600
10000000
00000000
00000000
00000000
00000000
00000000
00000000
ENDCHAR
STARTCHAR abd0
ENCODING 43984 
SWIDTH 96 0
DWIDTH 26 0
BBX 26 27 0 -1
BITMAP 
00000000
00000000
00000000
00001800
00000c00
00000600
00c23000
00611800
00708c00
0060c000
00604000
00e06000
00c03000
00c03000
01801800
01801800
03001800
03000c00
06000c00
0c000c00
10000000
00000000
00000000
00000000
00000000
00000000
00000000
ENDCHAR
STARTCHAR abd1
ENCODING 43985 
SWIDTH 96 0
DWIDTH 26 0
BBX 26 27 0 -1
BITMAP 
00000000
00000000
00000000
00001c00
00002200
00002200
01842200
00c21c00
00e10000
00c18000
00c08000
01c0c000
01806000
01806000
03003000
03003000
06003000
06001800
0c001800
18001800
20000000
00000000
00000000
00000000
00000000
00000000
00000000
ENDCHAR
STARTCHAR abd2
ENCODING 43986 
SWIDTH 96 0
DWIDTH 26 0
BBX 26 27 0 -1
BITMAP 
00000000
00000000
00000000
06000000
03000000
03800000
03000000
03002000
03007000
0300e000
03038000
031e0000
03f00000
03000000
03000000
03000000
03000000
03000000
03000000
03002000
01fff000
00ffe000
00000000
00000000
00000000
00000000
00000000
ENDCHAR
STARTCHAR abd3
ENCODING 43987 
SWIDTH 96 0
DWIDTH 26 0
BBX 26 27 0 -1
BITMAP 
00000000
00000000
00000000
06000c00
03000600
03803300
03001800
03010c00
0301c000
03038000
030f0000
033c0000
03e00000
03000000
03000000
03000000
03000000
03000000
03000000
03002000
01fff000
00ffe000
00000000
00000000
00000000
00000000
00000000
ENDCHAR
STARTCHAR abd4
ENCODING 43988 
SWIDTH 96 0
DWIDTH 26 0
BBX 26 27 0 -1
BITMAP 
00000000
00000000
00000000
06001c00
03002200
03802200
03002200
03011c00
0301c000
03038000
030f0000
033c0000
03e00000
03000000
03000000
03000000
03000000
03000000
03000000
03002000
01fff000
00ffe000
00000000
00000000
00000000
00000000
00000000
ENDCHAR
STARTCHAR abd5
ENCODING 43989 
SWIDTH 96 0
DWIDTH 26 0
BBX 26 27 0 -1
BITMAP 
00000000
00000000
00000000
00000000
00000000
00001800
1807fc00
0ffc1c00
07001800
00001800
00003800
00003000
00003000
00006000
0000c000
0000c000
00018000
00030000
00060000
000c0000
00380000
00600000
03c00000
00000000
00000000
00000000
00000000
ENDCHAR
STARTCHAR abd6
ENCODING 43990 
SWIDTH 96 0
DWIDTH 26 0
BBX 26 27 0 -1
BITMAP 
00000000
00000000
00000600
00000300
00000180
00004c00
201fe600
3ff07300
1c006000
00006000
0000e000
0000c000
0000c000
00018000
00018000
00030000
00060000
000c0000
00180000
00300000
00e00000
03800000
0e000000
00000000
00000000
00000000
00000000
ENDCHAR
STARTCHAR abd7
ENCODING 43991 
SWIDTH 96 0
DWIDTH 26 0
BBX 26 27 0 -1
BITMAP 
00000000
00000000
00000700
00000880
00000880
00004880
201fe700
3ff07000
1c006000
00006000
0000e000
0000c000
0001c000
00018000
00038000
00030000
00060000
000c0000
00180000
00300000
00600000
01c00000
07000000
00000000
00000000
00000000
00000000
ENDCHAR
STARTCHAR abd8
ENCODING 43992 
SWIDTH 96 0
DWIDTH 26 0
BBX 26 27 0 -1
BITMAP 
00000000
00000000
00000000
00000000
00000000
00000000
00300000
00480000
00cc0000
00840000
01860000
03020000
03030000
26018000
3c00c000
18006000
00003000
00001800
00001e00
00000e00
00000400
00000000
00000000
00000000
00000000
00000000
00000000
ENDCHAR
STARTCHAR abd9
ENCODING 43993 
SWIDTH 96 0
DWIDTH 26 0
BBX 26 27 0 -1
BITMAP 
00000000
00000000
00000000
00000000
00001800
00000c00
0030c600
00486000
00cc3000
00840000
01860000
03020000
03030000
26018000
3c00c000
18006000
00003000
00001800
00001e00
00000e00
00000400
00000000
00000000
00000000
00000000
00000000
00000000
ENDCHAR
STARTCHAR abda
ENCODING 43994 
SWIDTH 96 0
DWIDTH 26 0
BBX 26 27 0 -1
BITMAP 
00000000
00000000
00000000
00000000
00001c00
00002200
00302200
00482200
00cc1c00
00840000
01860000
01020000
03030000
26018000
3c00c000
18006000
00003000
00001800
00001e00
00000e00
00000400
00000000
00000000
00000000
00000000
00000000
00000000
ENDCHAR
STARTCHAR abdb
ENCODING 43995 
SWIDTH 96 0
DWIDTH 26 0
BBX 26 27 0 -1
BITMAP 
00000000
00000000
00000000
000c0000
00070000
00060000
00060000
00060800
0807fc00
0ffe0600
07060000
00060000
00060000
00062000
00863000
01861800
03060c00
06060c00
1c060600
18460600
00260000
001e0000
000c0000
00000000
00000000
00000000
00000000
ENDCHAR
STARTCHAR abdc
ENCODING 43996 
SWIDTH 96 0
DWIDTH 26 0
BBX 26 27 0 -1
BITMAP 
00000000
00000000
00000600
00180300
000e1980
000c0c00
000c0600
000c2000
100ff000
1ffc1800
0e0c0000
000c0000
000c0000
000c4000
010c6000
030c3000
060c3000
0c0c1800
380c1c00
308c0800
004c0000
003c0000
00180000
00000000
00000000
00000000
00000000
ENDCHAR
STARTCHAR abdd
ENCODING 43997 
SWIDTH 96 0
DWIDTH 26 0
BBX 26 27 0 -1
BITMAP 
00000000
00000000
00000e00
00181100
000e1100
000c1100
000c0e00
000c2000
100ff000
1ffc1800
0e0c0000
000c0000
000c0000
000c4000
010c6000
030c3000
060c1800
0c0c1800
380c0c00
308c0c00
004c0000
003c0000
00180000
00000000
00000000
00000000
00000000
ENDCHAR
STARTCHAR abde
ENCODING 43998 
SWIDTH 96 0
DWIDTH 26 0
BBX 26 27 0 -1
BITMAP 
00000000
00000000
00000000
00000000
00000000
00000800
1007fc00
1ff80e00
0f000c00
00001c00
00001800
00003000
00006000
0380c000
00e18000
00330000
001e0000
000e0000
00070000
00038000
0001c000
00018000
00000000
00000000
00000000
00000000
00000000
ENDCHAR
STARTCHAR abdf
ENCODING 43999 
SWIDTH 96 0
DWIDTH 26 0
BBX 26 27 0 -1
BITMAP 
00000000
00000000
00000000
00000000
03e00000
003e0000
000f8000
0001e000
00007000
00003000
01e00000
003c0000
000f0000
0003c000
0000e000
00006000
00000000
07e00000
007e0000
000fc000
0001f000
00007800
00001800
00000000
00000000
00000000
00000000
ENDCHAR
STARTCHAR abe0
ENCODING 44000 
SWIDTH 96 0
DWIDTH 26 0
BBX 26 27 0 -1
BITMAP 
00000000
00000000
00000000
00000000
00300000
00180000
001c0000
00180000
00380000
00300000
00300000
00600000
00600000
00604000
00c02000
00c03000
01801800
01001800
0300fc00
121f8c00
1ff80600
0f800600
00000400
00000000
00000000
00000000
00000000
ENDCHAR
STARTCHAR abe1
ENCODING 44001 
SWIDTH 96 0
DWIDTH 26 0
BBX 26 27 0 -1
BITMAP 
00000000
00000000
00000000
00000000
00006000
00003000
00003800
00003000
00007000
01c06000
00706000
001cc000
0006c000
00038000
0001c000
0003e000
00067000
000c3800
00181800
00301800
00e00000
03800000
0e000000
00000000
00000000
00000000
00000000
ENDCHAR
STARTCHAR abe2
ENCODING 44002 
SWIDTH 96 0
DWIDTH 26 0
BBX 26 27 0 -1
BITMAP 
00000000
00000000
00000000
00000000
00002000
0403f000
07fe1800
03300000
00300000
00300000
00301800
1031fc00
1fff0600
0e300000
00300000
00300000
00300000
00300000
00300000
00301000
001ff800
000ff000
00000000
00000000
00000000
00000000
00000000
ENDCHAR
STARTCHAR abe3
ENCODING 44003 
SWIDTH 96 0
DWIDTH 26 0
BBX 26 27 0 -1
BITMAP 
00000000
00000000
00000000
00000000
00000000
00000000
00000000
00000000
00600000
00300000
00301000
0033f800
043e3000
03d03000
01186000
0018c000
00190000
00180000
000c0000
000c0000
000c0000
000c0000
000c0000
00000000
00000000
00000000
00000000
ENDCHAR
STARTCHAR abe4
ENCODING 44004 
SWIDTH 96 0
DWIDTH 26 0
BBX 26 27 0 -1
BITMAP 
00000000
00000000
00000000
01800000
00c00000
00e00000
00c00000
00c00800
00c3fc00
207e0e00
3fe01c00
18601800
00603000
00306000
0030c000
00318000
00300000
00300000
00180000
00180000
00180000
001c0000
00180000
00000000
00000000
00000000
00000000
ENDCHAR
STARTCHAR abe5
ENCODING 44005 
SWIDTH 96 0
DWIDTH 26 0
BBX 26 27 0 -1
BITMAP 
00000000
00000000
00000000
00000000
00000000
00000000
00000000
00000000
00000000
00000000
00000000
02010000
01ff8000
0081c000
00018000
00018000
00018000
00030000
00030000
00032000
0407f000
03fc1800
01000000
00000000
00000000
00000000
00000000
ENDCHAR
STARTCHAR abe6
ENCODING 44006 
SWIDTH 96 0
DWIDTH 26 0
BBX 26 27 0 -1
BITMAP 
00000000
00000000
00000000
00000000
00000000
00000000
00008000
020fc000
03f8e000
0180c000
0000c000
0000c000
0000c000
0001c000
00018000
00018000
00018400
3001fe00
1fff0300
0e000000
00000000
00000000
00000000
00000000
00000000
00000000
00000000
ENDCHAR
STARTCHAR abe7
ENCODING 44007 
SWIDTH 96 0
DWIDTH 26 0
BBX 26 27 0 -1
BITMAP 
00000000
00000000
00000000
00000000
00000000
00000000
00000000
00000000
00000000
01008000
00ffc000
0040e000
0000c000
0000c000
0080c000
007fc000
0020c000
00018000
00018000
00018000
02018000
01ffe000
00800000
00000000
00000000
00000000
00000000
ENDCHAR
STARTCHAR abe8
ENCODING 44008 
SWIDTH 96 0
DWIDTH 26 0
BBX 26 27 0 -1
BITMAP 
00000000
00000000
00000000
00000000
00000000
00002000
0407f000
07fc3800
03003000
00003000
00003000
00003000
0207f000
03fc3000
01807000
00006000
00006000
00006000
00006000
080fe000
0ff86000
07006000
00000000
00000000
00000000
00000000
00000000
ENDCHAR
STARTCHAR abe9
ENCODING 44009 
SWIDTH 96 0
DWIDTH 26 0
BBX 26 27 0 -1
BITMAP 
00000000
00000000
00000000
00004000
040fe000
07f83000
03000000
00000000
00000800
301ffc00
1ff00e00
0e000c00
00001c00
00001800
00003000
00003000
00006000
0000c000
00018000
00030000
000e0000
00380000
01e00000
00000000
00000000
00000000
00000000
ENDCHAR
STARTCHAR abea
ENCODING 44010 
SWIDTH 96 0
DWIDTH 26 0
BBX 26 27 0 -1
BITMAP 
00000000
00000000
00000000
0000c000
03006000
01807000
01c06000
01806000
01806000
01806000
01806000
01806000
01806000
0180e000
0380c000
0180c000
0000c000
00018000
00018000
00030000
00060000
001c0000
00700000
00000000
00000000
00000000
00000000
ENDCHAR
STARTCHAR abeb
ENCODING 44011 
SWIDTH 96 0
DWIDTH 26 0
BBX 26 27 0 -1
BITMAP 
00000000
00000000
00000000
000c0000
00060000
01870000
00c60000
00e60000
00c60000
00c60000
00c60000
00c60200
00c60200
00c60600
01860400
01860c00
01860800
01861800
03063000
03066000
0607c000
0c0f8000
10060000
00000000
00000000
00000000
00000000
ENDCHAR
STARTCHAR abec
ENCODING 44012 
SWIDTH 96 0
DWIDTH 26 0
BBX 26 27 0 -1
BITMAP 
00000000
00000000
00000000
01800000
00c00000
00e00000
00c00000
00c00000
00c00000
00c00200
00c00200
00c00600
00c00400
00c00c00
00c01800
00c03000
00c06000
00c0c000
00c38000
00c70000
00de0000
01f80000
00e00000
00000000
00000000
00000000
00000000
ENDCHAR
STARTCHAR abed
ENCODING 44013 
SWIDTH 96 0
DWIDTH 26 0
BBX 26 27 0 -1
BITMAP 
00000000
00000000
00000000
00000000
00000000
00002000
0407f000
03fc3800
02003000
03003000
03003000
03003000
03003000
03003000
03007000
03006000
03006000
03006000
03006000
0307f800
07fc1000
03000000
00000000
00000000
00000000
00000000
00000000
ENDCHAR
STARTCHAR abee
ENCODING 44014 
SWIDTH 96 0
DWIDTH 26 0
BBX 26 27 0 -1
BITMAP 
00000000
00000000
00000000
00000000
00000000
00000000
00000000
00000000
00002000
040ff000
03f83800
02003000
03003000
03003000
03006000
03006000
00006000
0000c000
0000c000
00018000
00030000
000e0000
00780000
00000000
00000000
00000000
00000000
ENDCHAR
STARTCHAR abef
ENCODING 44015 
SWIDTH 96 0
DWIDTH 26 0
BBX 26 27 0 -1
BITMAP 
00000000
00000000
00000000
00000000
00001000
0807f800
07fc1c00
04001800
06001800
06001800
06003800
06003000
07003000
06006000
00006000
0000c000
0000c000
00018000
00018000
00030000
00060000
001c0000
00700000
00000000
00000000
00000000
00000000
ENDCHAR
STARTCHAR abf0
ENCODING 44016 
SWIDTH 96 0
DWIDTH 26 0
BBX 26 27 0 -1
BITMAP 
00000000
00000000
00000000
00060000
00038000
00030000
00031000
0403f800
07ff0c00
03030000
00030000
01030000
01830000
01830000
01831000
1103fc00
1fff0600
0e030000
00030000
00030000
00030000
00070000
00030000
00000000
00000000
00000000
00000000
ENDCHAR
STARTCHAR abf1
ENCODING 44017 
SWIDTH 96 0
DWIDTH 26 0
BBX 26 27 0 -1
BITMAP 
00000000
00000000
00000000
00000000
00000000
00002000
0407f000
07fc3800
03003000
00007000
00186000
000cc000
000d8000
000e0000
000c0000
000c0000
000c0000
000c0000
000c1800
100ffe00
1ff80300
0e000000
00000000
00000000
00000000
00000000
00000000
ENDCHAR
STARTCHAR abf2
ENCODING 44018 
SWIDTH 96 0
DWIDTH 26 0
BBX 26 27 0 -1
BITMAP 
00000000
00000000
00000000
00000000
00003000
1807f800
0ffc1c00
07801c00
00001800
00001800
00003800
0c03f000
07fe3000
03803000
00006000
00006000
0000c000
00018000
00030000
00060000
000c0000
00380000
00e00000
00000000
00000000
00000000
00000000
ENDCHAR
STARTCHAR abf3
ENCODING 44019 
SWIDTH 96 0
DWIDTH 26 0
BBX 26 27 0 -1
BITMAP 
00000000
00000000
00000000
00000000
0c000000
03000000
01800000
00c00000
00e00800
00700800
00600800
00001800
00001000
00003000
00006000
0000c000
0001c000
00038000
000f0000
003c0000
08f80000
07c00000
03000000
00000000
00000000
00000000
00000000
ENDCHAR
STARTCHAR abf4
ENCODING 44020 
SWIDTH 96 0
DWIDTH 26 0
BBX 26 27 0 -1
BITMAP 
00000000
00000000
00000600
00600300
00381980
00300c00
00304600
203fe000
1ff07000
10006000
18006000
1800e000
1800c000
1800c000
1c01c000
18018000
00018000
00030000
00060000
000c0000
00180000
00700000
01c00000
00000000
00000000
00000000
00000000
ENDCHAR
STARTCHAR abf5
ENCODING 44021 
SWIDTH 96 0
DWIDTH 26 0
BBX 26 27 0 -1
BITMAP 
00000000
00000000
00000000
00000000
00000000
00000000
00000000
00000000
00180000
000c0000
000c2000
040df000
03fe3800
010c3000
00183000
00183000
00183000
00303000
00303000
00606000
00c46000
0183e000
0600c000
00000000
00000000
00000000
00000000
ENDCHAR
STARTCHAR abf6
ENCODING 44022 
SWIDTH 96 0
DWIDTH 26 0
BBX 26 27 0 -1
BITMAP 
00000000
00000000
00000000
00000000
00000000
00000000
00000000
00000000
00c00000
00600000
00602000
00c3f000
00fe1800
01830000
03030000
04030000
00060000
00060000
000c0000
000c0000
00180000
00300000
00c00000
00000000
00000000
00000000
00000000
ENDCHAR
STARTCHAR a5a1
ENCODING 42401 
SWIDTH 96 0
DWIDTH 26 0
BBX 26 27 0 -1
BITMAP 
00000000
00000000
00000000
000c0000
001e0000
000c0000
00000000
00000000
003c0000
000c0000
000c0000
000c0000
000c0000
000c0000
000c0000
000c0000
000c0000
000c0000
000c0000
000c0000
000c0000
000c0000
003f0000
00000000
00000000
00000000
00000000
ENDCHAR
STARTCHAR a5a2
ENCODING 42402 
SWIDTH 96 0
DWIDTH 26 0
BBX 26 27 0 -1
BITMAP 
00000000
00000000
00000000
00618000
00f3c000
00618000
00000000
00000000
01e78000
00618000
00618000
00618000
00618000
00618000
00618000
00618000
00618000
00618000
00618000
00618000
00618000
00618000
01f3e000
00000000
00000000
00000000
00000000
ENDCHAR
STARTCHAR a5a3
ENCODING 42403 
SWIDTH 96 0
DWIDTH 26 0
BBX 26 27 0 -1
BITMAP 
00000000
00000000
00000000
030c3000
079e7800
030c3000
00000000
00000000
0f3cf000
030c3000
030c3000
030c3000
030c3000
030c3000
030c3000
030c3000
030c3000
030c3000
030c3000
030c3000
030c3000
030c3000
0f9e7c00
00000000
00000000
00000000
00000000
ENDCHAR
STARTCHAR a5a4
ENCODING 42404 
SWIDTH 96 0
DWIDTH 26 0
BBX 26 27 0 -1
BITMAP 
00000000
00000000
00000000
03000000
07800000
03000000
00000000
00000000
0f3e3e00
03180800
03180800
03180800
030c0800
030c1000
030c1000
03061000
03062000
03072000
03072000
03034000
03034000
0301c000
0fc18000
00000000
00000000
00000000
00000000
ENDCHAR
STARTCHAR a5a5
ENCODING 42405 
SWIDTH 96 0
DWIDTH 26 0
BBX 26 27 0 -1
BITMAP 
00000000
00000000
00000000
00000000
00000000
00000000
00000000
00000000
03f1f000
00c04000
00c04000
00c04000
00604000
00608000
00608000
00308000
00310000
00310000
00190000
001a0000
001a0000
000e0000
000c0000
00000000
00000000
00000000
00000000
ENDCHAR
STARTCHAR a5a6
ENCODING 42406 
SWIDTH 96 0
DWIDTH 26 0
BBX 26 27 0 -1
BITMAP 
00000000
00000000
00000000
00001800
00003c00
00001800
00000000
00000000
1f873800
06021800
06021800
06021800
03021800
03041800
03041800
01841800
01881800
01881800
00c81800
00d01800
00d01800
00701800
00607e00
00000000
00000000
00000000
00000000
ENDCHAR
STARTCHAR a5a7
ENCODING 42407 
SWIDTH 96 0
DWIDTH 26 0
BBX 26 27 0 -1
BITMAP 
00000000
00000000
00000000
00018c00
0003de00
00018c00
00000000
00000000
7c739c00
18218c00
18218c00
18218c00
18218c00
0c418c00
0c418c00
0c418c00
0c418c00
06818c00
06818c00
06818c00
06818c00
03018c00
03079f00
00000000
00000000
00000000
00000000
ENDCHAR
STARTCHAR a5a8
ENCODING 42408 
SWIDTH 96 0
DWIDTH 26 0
BBX 26 27 0 -1
BITMAP 
00000000
00000000
00000000
000c6300
001ef780
000c6300
00000000
00000000
78ece700
304c6300
304c6300
304c6300
304c6300
188c6300
188c6300
188c6300
188c6300
0d0c6300
0d0c6300
0d0c6300
0d0c6300
060c6300
063ce780
00000000
00000000
00000000
00000000
ENDCHAR
STARTCHAR a5a9
ENCODING 42409 
SWIDTH 96 0
DWIDTH 26 0
BBX 26 27 0 -1
BITMAP 
00000000
00000000
00000000
06000000
0f000000
06000000
00000000
00000000
1e781f00
06300400
06180800
060c1000
06062000
06034000
06018000
06018000
0602c000
06046000
06083000
06101800
06200c00
06400600
1ff81f80
00000000
00000000
00000000
00000000
ENDCHAR
STARTCHAR a5aa
ENCODING 42410 
SWIDTH 96 0
DWIDTH 26 0
BBX 26 27 0 -1
BITMAP 
00000000
00000000
00000000
00000000
00000000
00000000
00000000
00000000
07e0f800
01802000
00c04000
00608000
00310000
001a0000
000c0000
000c0000
00160000
00230000
00418000
0080c000
01006000
02003000
0f80fc00
00000000
00000000
00000000
00000000
ENDCHAR
STARTCHAR a5b0
ENCODING 42416 
SWIDTH 96 0
DWIDTH 26 0
BBX 26 27 0 -1
BITMAP 
00000000
00000000
00000000
007f8000
000c0000
000c0000
000c0000
000c0000
000c0000
000c0000
000c0000
000c0000
000c0000
000c0000
000c0000
000c0000
000c0000
000c0000
000c0000
000c0000
000c0000
000c0000
007f8000
00000000
00000000
00000000
00000000
ENDCHAR
STARTCHAR a5b1
ENCODING 42417 
SWIDTH 96 0
DWIDTH 26 0
BBX 26 27 0 -1
BITMAP 
00000000
00000000
00000000
03f3f000
00c0c000
00c0c000
00c0c000
00c0c000
00c0c000
00c0c000
00c0c000
00c0c000
00c0c000
00c0c000
00c0c000
00c0c000
00c0c000
00c0c000
00c0c000
00c0c000
00c0c000
00c0c000
03f3f000
00000000
00000000
00000000
00000000
ENDCHAR
STARTCHAR a5b2
ENCODING 42418 
SWIDTH 96 0
DWIDTH 26 0
BBX 26 27 0 -1
BITMAP 
00000000
00000000
00000000
0f9e7c00
030c3000
030c3000
030c3000
030c3000
030c3000
030c3000
030c3000
030c3000
030c3000
030c3000
030c3000
030c3000
030c3000
030c3000
030c3000
030c3000
030c3000
030c3000
0f9e7c00
00000000
00000000
00000000
00000000
ENDCHAR
STARTCHAR a5b3
ENCODING 42419 
SWIDTH 96 0
DWIDTH 26 0
BBX 26 27 0 -1
BITMAP 
00000000
00000000
00000000
1f7c0f00
06300200
06300200
06180200
06180400
06180400
060c0400
060c0800
060c0800
06060800
06061000
06061000
06031000
06031000
06032000
0601a000
0601a000
0601a000
0600c000
1f80c000
00000000
00000000
00000000
00000000
ENDCHAR
STARTCHAR a5b4
ENCODING 42420 
SWIDTH 96 0
DWIDTH 26 0
BBX 26 27 0 -1
BITMAP 
00000000
00000000
00000000
0fc0f800
03002000
03002000
01802000
01804000
01804000
00c04000
00c08000
00c08000
00608000
00610000
00610000
00310000
00310000
00320000
001a0000
001a0000
001a0000
000c0000
000c0000
00000000
00000000
00000000
00000000
ENDCHAR
STARTCHAR a5b5
ENCODING 42421 
SWIDTH 96 0
DWIDTH 26 0
BBX 26 27 0 -1
BITMAP 
00000000
00000000
00000000
7e07be00
18011800
18011800
0c011800
0c021800
0c021800
06021800
06041800
06041800
03041800
03041800
03081800
01881800
01881800
01881800
00d01800
00d01800
00d01800
00701800
00607e00
00000000
00000000
00000000
00000000
ENDCHAR
STARTCHAR a5b6
ENCODING 42422 
SWIDTH 96 0
DWIDTH 26 0
BBX 26 27 0 -1
BITMAP 
00000000
00000000
00000000
3e3def00
1808c600
1808c600
1808c600
1808c600
0c10c600
0c10c600
0c10c600
0c10c600
0620c600
0620c600
0620c600
0620c600
0340c600
0340c600
0340c600
0340c600
0340c600
0180c600
0183ef00
00000000
00000000
00000000
00000000
ENDCHAR
STARTCHAR a5b7
ENCODING 42423 
SWIDTH 96 0
DWIDTH 26 0
BBX 26 27 0 -1
BITMAP 
00000000
00000000
00000000
7c7fff80
30133300
30133300
30133300
30133300
18233300
18233300
18233300
18233300
0c433300
0c433300
0c433300
0c433300
06833300
06833300
06833300
06833300
06833300
03033300
030fff80
00000000
00000000
00000000
00000000
ENDCHAR
STARTCHAR a5b8
ENCODING 42424 
SWIDTH 96 0
DWIDTH 26 0
BBX 26 27 0 -1
BITMAP 
00000000
00000000
00000000
3ff80f00
0c300400
0c300800
0c180800
0c0c1000
0c0c2000
0c064000
0c034000
0c018000
0c01c000
0c02c000
0c026000
0c043000
0c081800
0c081800
0c100c00
0c200c00
0c200600
0c400600
3ff81f80
00000000
00000000
00000000
00000000
ENDCHAR
STARTCHAR a5b9
ENCODING 42425 
SWIDTH 96 0
DWIDTH 26 0
BBX 26 27 0 -1
BITMAP 
00000000
00000000
00000000
0fc03e00
03000800
01801000
00c02000
00604000
00608000
00310000
001a0000
000c0000
000e0000
00130000
00218000
00418000
0080c000
01006000
02006000
04003000
08001800
08001800
3e007e00
00000000
00000000
00000000
00000000
ENDCHAR
STARTCHAR a5c1
ENCODING 42433 
SWIDTH 96 0
DWIDTH 26 0
BBX 26 27 0 -1
BITMAP 
00000000
00000000
00000000
000c0000
001e0000
00160000
00330000
00230000
00230000
00618000
00418000
00c0c000
0080c000
0080c000
01806000
01ffe000
03007000
02003000
02003000
06001800
04001800
04001800
1f007e00
00000000
00000000
00000000
00000000
ENDCHAR
STARTCHAR a5c2
ENCODING 42434 
SWIDTH 96 0
DWIDTH 26 0
BBX 26 27 0 -1
BITMAP 
00000000
00000000
00000000
07ff0000
0181c000
01806000
01803000
01803000
01803000
01803000
01806000
0180c000
01ff8000
0180e000
01803000
01801800
01800c00
01800c00
01800c00
01800c00
01801800
01807000
07ffc000
00000000
00000000
00000000
00000000
ENDCHAR
STARTCHAR a5c3
ENCODING 42435 
SWIDTH 96 0
DWIDTH 26 0
BBX 26 27 0 -1
BITMAP 
00000000
00000000
00000000
07fff800
01803800
01801800
01800800
01800800
01800000
01800000
01800000
01800000
01800000
01800000
01800000
01800000
01800000
01800000
01800000
01800000
01800000
01800000
07e00000
00000000
00000000
00000000
00000000
ENDCHAR
STARTCHAR a5c4
ENCODING 42436 
SWIDTH 96 0
DWIDTH 26 0
BBX 26 27 0 -1
BITMAP 
00000000
00000000
00000000
000c0000
001e0000
00160000
00370000
00230000
00638000
00418000
00c1c000
0080c000
0180e000
01006000
03007000
02003000
06003800
04001800
0c001c00
08000c00
18000e00
1ffffe00
1ffffe00
00000000
00000000
00000000
00000000
ENDCHAR
STARTCHAR a5c5
ENCODING 42437 
SWIDTH 96 0
DWIDTH 26 0
BBX 26 27 0 -1
BITMAP 
00000000
00000000
00000000
07fff000
01807000
01803000
01801000
01801000
01800000
01810000
01810000
01830000
01ff0000
01830000
01810000
01810000
01800000
01800000
01801000
01801000
01803000
01807000
07fff000
00000000
00000000
00000000
00000000
ENDCHAR
STARTCHAR a5c6
ENCODING 42438 
SWIDTH 96 0
DWIDTH 26 0
BBX 26 27 0 -1
BITMAP 
00000000
00000000
00000000
07fff800
07003800
06007000
04006000
0400e000
0001c000
00038000
00030000
00070000
000e0000
001c0000
00380000
00700000
00e00000
00c00000
01800400
03800400
07000c00
0e001c00
0ffffc00
00000000
00000000
00000000
00000000
ENDCHAR
STARTCHAR a5c7
ENCODING 42439 
SWIDTH 96 0
DWIDTH 26 0
BBX 26 27 0 -1
BITMAP 
00000000
00000000
00000000
0fc0fc00
03003000
03003000
03003000
03003000
03003000
03003000
03003000
03003000
03fff000
03003000
03003000
03003000
03003000
03003000
03003000
03003000
03003000
03003000
0fc0fc00
00000000
00000000
00000000
00000000
ENDCHAR
STARTCHAR a5c8
ENCODING 42440 
SWIDTH 96 0
DWIDTH 26 0
BBX 26 27 0 -1
BITMAP 
00000000
00000000
00000000
007f0000
01c1c000
03006000
06003000
06003000
06003000
0e003800
0c001800
0c411800
0c7f1800
0c7f1800
0c411800
0c001800
0e003800
06003000
06003000
06003000
03006000
01c1c000
007f0000
00000000
00000000
00000000
00000000
ENDCHAR
STARTCHAR a5c9
ENCODING 42441 
SWIDTH 96 0
DWIDTH 26 0
BBX 26 27 0 -1
BITMAP 
00000000
00000000
00000000
007f8000
000c0000
000c0000
000c0000
000c0000
000c0000
000c0000
000c0000
000c0000
000c0000
000c0000
000c0000
000c0000
000c0000
000c0000
000c0000
000c0000
000c0000
000c0000
007f8000
00000000
00000000
00000000
00000000
ENDCHAR
STARTCHAR a5ca
ENCODING 42442 
SWIDTH 96 0
DWIDTH 26 0
BBX 26 27 0 -1
BITMAP 
00000000
00000000
00000000
0fc1f800
03006000
0300c000
03018000
03030000
03060000
030c0000
03180000
03380000
037c0000
03cc0000
03860000
03030000
03030000
03018000
0300c000
0300c000
03006000
03007000
0fc1fc00
00000000
00000000
00000000
00000000
ENDCHAR
STARTCHAR a5cb
ENCODING 42443 
SWIDTH 96 0
DWIDTH 26 0
BBX 26 27 0 -1
BITMAP 
00000000
00000000
00000000
000c0000
001e0000
001e0000
00330000
00230000
00230000
00618000
00418000
00c0c000
0080c000
0080c000
01806000
01006000
03003000
02003000
02003000
06001800
04001800
04001800
1f007e00
00000000
00000000
00000000
00000000
ENDCHAR
STARTCHAR a5cc
ENCODING 42444 
SWIDTH 96 0
DWIDTH 26 0
BBX 26 27 0 -1
BITMAP 
00000000
00000000
00000000
3e001f00
0f001c00
0b002c00
09802c00
09806c00
08c04c00
08c04c00
08c0cc00
08608c00
08608c00
08618c00
08310c00
08310c00
08330c00
081a0c00
081e0c00
080c0c00
080c0c00
08000c00
3e003f00
00000000
00000000
00000000
00000000
ENDCHAR
STARTCHAR a5cd
ENCODING 42445 
SWIDTH 96 0
DWIDTH 26 0
BBX 26 27 0 -1
BITMAP 
00000000
00000000
00000000
0f807c00
03c01000
02c01000
02e01000
02701000
02301000
02381000
02181000
020c1000
020e1000
02071000
02031000
02039000
02019000
0200d000
0200f000
02007000
02003000
02003000
0f801000
00000000
00000000
00000000
00000000
ENDCHAR
STARTCHAR a5ce
ENCODING 42446 
SWIDTH 96 0
DWIDTH 26 0
BBX 26 27 0 -1
BITMAP 
00000000
00000000
00000000
01fffc00
03fff800
02000800
04001000
00000000
00000000
00000000
00801000
00fff000
01ffe000
01002000
00000000
00000000
00000000
00000000
00000000
02000400
04000800
07fff800
0ffff000
00000000
00000000
00000000
00000000
ENDCHAR
STARTCHAR a5cf
ENCODING 42447 
SWIDTH 96 0
DWIDTH 26 0
BBX 26 27 0 -1
BITMAP 
00000000
00000000
00000000
007f8000
01c0e000
03003000
06001800
06001800
06001800
0e001c00
0c000c00
0c000c00
0c000c00
0c000c00
0c000c00
0c000c00
0e001c00
06001800
06001800
06001800
03003000
01c0e000
007f8000
00000000
00000000
00000000
00000000
ENDCHAR
STARTCHAR a5d0
ENCODING 42448 
SWIDTH 96 0
DWIDTH 26 0
BBX 26 27 0 -1
BITMAP 
00000000
00000000
00000000
0ffffc00
03003000
03003000
03003000
03003000
03003000
03003000
03003000
03003000
03003000
03003000
03003000
03003000
03003000
03003000
03003000
03003000
03003000
03003000
0fc0fc00
00000000
00000000
00000000
00000000
ENDCHAR
STARTCHAR a5d1
ENCODING 42449 
SWIDTH 96 0
DWIDTH 26 0
BBX 26 27 0 -1
BITMAP 
00000000
00000000
00000000
07ff8000
0180e000
01803000
01801800
01801800
01801800
01801800
01801800
01803000
0180e000
01ff8000
01800000
01800000
01800000
01800000
01800000
01800000
01800000
01800000
07e00000
00000000
00000000
00000000
00000000
ENDCHAR
STARTCHAR a5d2
ENCODING 42450 
SWIDTH 96 0
DWIDTH 26 0
BBX 26 27 0 -1
BITMAP 
00000000
00000000
00000000
03fff800
03801800
01c00c00
00c00400
00e00000
00700000
00380000
001c0000
000e0000
00070000
00060000
000c0000
00180000
00300000
00600000
00c00400
00c00400
01800c00
03fff800
07fff800
00000000
00000000
00000000
00000000
ENDCHAR
STARTCHAR a5d3
ENCODING 42451 
SWIDTH 96 0
DWIDTH 26 0
BBX 26 27 0 -1
BITMAP 
00000000
00000000
00000000
07fff800
070c3800
060c1800
040c0800
040c0800
000c0000
000c0000
000c0000
000c0000
000c0000
000c0000
000c0000
000c0000
000c0000
000c0000
000c0000
000c0000
000c0000
000c0000
003f0000
00000000
00000000
00000000
00000000
ENDCHAR
STARTCHAR a5d4
ENCODING 42452 
SWIDTH 96 0
DWIDTH 26 0
BBX 26 27 0 -1
BITMAP 
00000000
00000000
00000000
01e1e000
03f3f000
061e1800
0c0c0c00
080c0400
080c0400
000c0000
000c0000
000c0000
000c0000
000c0000
000c0000
000c0000
000c0000
000c0000
000c0000
000c0000
000c0000
000c0000
003f0000
00000000
00000000
00000000
00000000
ENDCHAR
STARTCHAR a5d5
ENCODING 42453 
SWIDTH 96 0
DWIDTH 26 0
BBX 26 27 0 -1
BITMAP 
00000000
00000000
00000000
003f0000
000c0000
000c0000
007f8000
03ccf000
060c1800
0c0c0c00
0c0c0c00
180c0600
180c0600
180c0600
180c0600
0c0c0c00
0c0c0c00
060c1800
03ccf000
007f8000
000c0000
000c0000
003f0000
00000000
00000000
00000000
00000000
ENDCHAR
STARTCHAR a5d6
ENCODING 42454 
SWIDTH 96 0
DWIDTH 26 0
BBX 26 27 0 -1
BITMAP 
00000000
00000000
00000000
0fc07e00
03801800
01801000
01c03000
00e06000
0060c000
00708000
00398000
001b0000
001e0000
000c0000
001e0000
00370000
00638000
00c1c000
0180c000
0300e000
06007000
06003800
1f80fe00
00000000
00000000
00000000
00000000
ENDCHAR
STARTCHAR a5d7
ENCODING 42455 
SWIDTH 96 0
DWIDTH 26 0
BBX 26 27 0 -1
BITMAP 
00000000
00000000
00000000
1c3f0e00
3e0c1f00
630c3180
030c3000
030c3000
030c3000
030c3000
018c6000
018c6000
018c6000
018c6000
00ccc000
00ccc000
00ccc000
006d8000
001e0000
000c0000
000c0000
000c0000
003f0000
00000000
00000000
00000000
00000000
ENDCHAR
STARTCHAR a5d8
ENCODING 42456 
SWIDTH 96 0
DWIDTH 26 0
BBX 26 27 0 -1
BITMAP 
00000000
00000000
00000000
003f0000
00e1c000
01806000
01806000
03807000
03003000
07003800
07003800
07003800
03003000
03807000
01806000
01806000
00c0c000
00618000
00120000
04120800
04120800
07f3f800
07f3f800
00000000
00000000
00000000
00000000
ENDCHAR
STARTCHAR a5e1
ENCODING 42465 
SWIDTH 96 0
DWIDTH 26 0
BBX 26 27 0 -1
BITMAP 
00000000
00000000
00000000
00000000
00000000
00000000
00000000
00000000
00000000
00000000
001e1800
00733000
00c1b000
0180a000
0180e000
0300c000
0300c000
0300c000
0301c000
03014000
01836000
01866000
00fc3800
00000000
00000000
00000000
00000000
ENDCHAR
STARTCHAR a5e2
ENCODING 42466 
SWIDTH 96 0
DWIDTH 26 0
BBX 26 27 0 -1
BITMAP 
00000000
00000000
00000000
0007c000
000c6000
00183000
00303000
00301800
00603000
00603000
00c76000
00c7c000
00c0c000
01806000
01806000
01803000
03003000
03006000
03806000
07e0c000
063f8000
06000000
0c000000
0c000000
0c000000
00000000
00000000
ENDCHAR
STARTCHAR a5e3
ENCODING 42467 
SWIDTH 96 0
DWIDTH 26 0
BBX 26 27 0 -1
BITMAP 
00000000
00000000
00000000
00000000
00000000
00000000
00000000
00000000
00000000
00000000
00f0c000
01f8c000
03098000
020d8000
02070000
00070000
00060000
00060000
000c0000
000c0000
00180000
00180000
00300000
00000000
00000000
00000000
00000000
ENDCHAR
STARTCHAR a5e4
ENCODING 42468 
SWIDTH 96 0
DWIDTH 26 0
BBX 26 27 0 -1
BITMAP 
00000000
00000000
00000000
001f0000
0030c000
00306000
00183000
000c3000
00070000
00018000
001f8000
0030c000
0060c000
00c06000
00c06000
01806000
01806000
01806000
0180c000
0180c000
00c18000
00c30000
007e0000
00000000
00000000
00000000
00000000
ENDCHAR
STARTCHAR a5e5
ENCODING 42469 
SWIDTH 96 0
DWIDTH 26 0
BBX 26 27 0 -1
BITMAP 
00000000
00000000
00000000
00000000
00000000
00000000
00000000
00000000
00000000
00000000
003f8000
0060e000
00c02000
00c00000
00c00000
007f0000
00ce0000
01800000
01800000
01802000
00e06000
007fc000
001f0000
00000000
00000000
00000000
00000000
ENDCHAR
STARTCHAR a5e6
ENCODING 42470 
SWIDTH 96 0
DWIDTH 26 0
BBX 26 27 0 -1
BITMAP 
00000000
00000000
00000000
00180000
00600000
00c18000
00c38000
00770000
001c0000
00100000
00200000
00600000
00400000
00c00000
00c00000
01800000
01800000
01800000
00f80000
007e0000
00070000
00018000
00c18000
007f0000
00000000
00000000
00000000
ENDCHAR
STARTCHAR a5e7
ENCODING 42471 
SWIDTH 96 0
DWIDTH 26 0
BBX 26 27 0 -1
BITMAP 
00000000
00000000
00000000
00000000
00000000
00000000
00000000
00000000
00000000
00000000
01c78000
025cc000
00706000
00606000
00606000
00c06000
00c0c000
00c0c000
00c0c000
0180c000
0180c000
01818000
01818000
00018000
00018000
00000000
00000000
ENDCHAR
STARTCHAR a5e8
ENCODING 42472 
SWIDTH 96 0
DWIDTH 26 0
BBX 26 27 0 -1
BITMAP 
00000000
00000000
00000000
000f0000
0039c000
0060c000
00c0e000
00c06000
01806000
01806000
01806000
01806000
03ffe000
0300e000
0300c000
0300c000
0300c000
0300c000
03018000
03818000
01830000
01ce0000
00780000
00000000
00000000
00000000
00000000
ENDCHAR
STARTCHAR a5e9
ENCODING 42473 
SWIDTH 96 0
DWIDTH 26 0
BBX 26 27 0 -1
BITMAP 
00000000
00000000
00000000
00000000
00000000
00000000
00000000
00000000
00000000
00000000
000c0000
001c0000
00180000
00300000
00300000
00600000
00600000
00600000
00c00000
00c10000
00c10000
00fe0000
00780000
00000000
00000000
00000000
00000000
ENDCHAR
STARTCHAR a5ea
ENCODING 42474 
SWIDTH 96 0
DWIDTH 26 0
BBX 26 27 0 -1
BITMAP 
00000000
00000000
00000000
00000000
00000000
00000000
00000000
00000000
00000000
00000000
01e0c000
0261c000
00630000
00c60000
00cc0000
00dc0000
01b40000
01a60000
01e60000
01c61000
03861000
0303e000
0301c000
00000000
00000000
00000000
00000000
ENDCHAR
STARTCHAR a5eb
ENCODING 42475 
SWIDTH 96 0
DWIDTH 26 0
BBX 26 27 0 -1
BITMAP 
00000000
00000000
00000000
00300000
00380000
000c0000
000c0000
00040000
00060000
00020000
00020000
00060000
000a0000
001a0000
00130000
00330000
00210000
00618000
00618000
00c0c000
00c0c000
01c07800
01803800
00000000
00000000
00000000
00000000
ENDCHAR
STARTCHAR a5ec
ENCODING 42476 
SWIDTH 96 0
DWIDTH 26 0
BBX 26 27 0 -1
BITMAP 
00000000
00000000
00000000
00000000
00000000
00000000
00000000
00000000
00000000
00000000
00202000
00606000
00606000
00606000
00e0e000
00c0c000
00c0c000
00c18000
01818000
01818000
01c19000
0167d000
033c6000
03000000
03000000
00000000
00000000
ENDCHAR
STARTCHAR a5ed
ENCODING 42477 
SWIDTH 96 0
DWIDTH 26 0
BBX 26 27 0 -1
BITMAP 
00000000
00000000
00000000
00000000
00000000
00000000
00000000
00000000
00000000
00000000
00c02000
00e02000
00602000
00706000
00304000
00304000
0030c000
00208000
00218000
00630000
004e0000
007c0000
00f00000
00000000
00000000
00000000
00000000
ENDCHAR
STARTCHAR a5ee
ENCODING 42478 
SWIDTH 96 0
DWIDTH 26 0
BBX 26 27 0 -1
BITMAP 
00000000
00000000
00070000
00080000
00180000
001fe000
0031c000
00600000
00600000
00600000
00380000
001fe000
0021c000
00600000
00c00000
00c00000
01800000
01c00000
00f80000
003f0000
00078000
0000c000
0030c000
003f8000
00000000
00000000
00000000
ENDCHAR
STARTCHAR a5ef
ENCODING 42479 
SWIDTH 96 0
DWIDTH 26 0
BBX 26 27 0 -1
BITMAP 
00000000
00000000
00000000
00000000
00000000
00000000
00000000
00000000
00000000
00000000
001f8000
0030c000
0060c000
00c06000
00c06000
01806000
01806000
01806000
0180c000
0180c000
00c18000
00c30000
007e0000
00000000
00000000
00000000
00000000
ENDCHAR
STARTCHAR a5f0
ENCODING 42480 
SWIDTH 96 0
DWIDTH 26 0
BBX 26 27 0 -1
BITMAP 
00000000
00000000
00000000
00000000
00000000
00000000
00000000
00000000
00000000
00001000
00ffe000
01ffc000
02218000
00218000
00618000
00430000
00430000
00c30000
00c60000
01c60000
01862000
0387c000
03038000
00000000
00000000
00000000
00000000
ENDCHAR
STARTCHAR a5f1
ENCODING 42481 
SWIDTH 96 0
DWIDTH 26 0
BBX 26 27 0 -1
BITMAP 
00000000
00000000
00000000
00000000
00000000
00000000
00000000
00000000
00000000
00000000
001f8000
0030c000
0060e000
00606000
00c06000
00c06000
00c06000
01c06000
01c0c000
01e0c000
01a18000
033f0000
03000000
03000000
03000000
00000000
00000000
ENDCHAR
STARTCHAR a5f2
ENCODING 42482 
SWIDTH 96 0
DWIDTH 26 0
BBX 26 27 0 -1
BITMAP 
00000000
00000000
00000000
00000000
00000000
00000000
00000000
00000000
00000000
00000400
003f7c00
0061b800
00c08000
0180c000
0180c000
0300c000
0300c000
0300c000
03018000
03018000
01830000
01860000
00fc0000
00000000
00000000
00000000
00000000
ENDCHAR
STARTCHAR a5f3
ENCODING 42483 
SWIDTH 96 0
DWIDTH 26 0
BBX 26 27 0 -1
BITMAP 
00000000
00000000
00000000
00000000
00000000
00000000
00000000
00000000
00000000
00004000
00ff8000
01ff0000
02180000
00380000
00300000
00700000
00600000
00600000
00c00000
00c10000
00c10000
00fe0000
00780000
00000000
00000000
00000000
00000000
ENDCHAR
STARTCHAR a5f4
ENCODING 42484 
SWIDTH 96 0
DWIDTH 26 0
BBX 26 27 0 -1
BITMAP 
00000000
00000000
00000000
00000000
00000000
00000000
00000000
00000000
00000000
00000000
00c0c000
00e04000
00606000
00606000
00606000
00406000
00c0e000
0080c000
0080c000
00808000
00c18000
00630000
003e0000
00000000
00000000
00000000
00000000
ENDCHAR
STARTCHAR a5f5
ENCODING 42485 
SWIDTH 96 0
DWIDTH 26 0
BBX 26 27 0 -1
BITMAP 
00000000
00000000
00000000
00018000
00018000
00030000
00030000
00030000
00060000
001f8000
0076c000
00c66000
01866000
01843000
030c3000
030c3000
030c6000
01886000
0198c000
00db8000
007e0000
00300000
00300000
00600000
00600000
00000000
00000000
ENDCHAR
STARTCHAR a5f6
ENCODING 42486 
SWIDTH 96 0
DWIDTH 26 0
BBX 26 27 0 -1
BITMAP 
00000000
00000000
00000000
00000000
00000000
00000000
00000000
00000000
00000000
00000000
00603000
00f07000
01106000
0018c000
00088000
000c8000
00050000
00060000
000a0000
00320000
00620000
00c30000
01830800
0381f000
0300e000
00000000
00000000
ENDCHAR
STARTCHAR a5f7
ENCODING 42487 
SWIDTH 96 0
DWIDTH 26 0
BBX 26 27 0 -1
BITMAP 
00000000
00000000
00000000
00018000
00018000
00038000
00030000
00030000
00030000
00020000
00662000
00c67000
01863000
01843000
030c3000
030c3000
030c6000
03086000
0198c000
0198c000
00d98000
007f0000
00300000
00700000
00600000
00000000
00000000
ENDCHAR
STARTCHAR a5f8
ENCODING 42488 
SWIDTH 96 0
DWIDTH 26 0
BBX 26 27 0 -1
BITMAP 
00000000
00000000
00000000
00000000
00000000
00000000
00000000
00000000
00000000
00000000
00701000
00c00800
01800800
03020c00
03060c00
06060c00
060e0c00
060c0c00
060c1800
03041800
030c3000
019a6000
00f38000
00000000
00000000
00000000
00000000
ENDCHAR
STARTCHAR a6a1
ENCODING 42657 
SWIDTH 96 0
DWIDTH 26 0
BBX 26 27 0 -1
BITMAP 
00000000
00000000
00000000
00000000
00000000
00000000
00000000
00000000
00000000
00000000
00000000
00000000
7fffff80
00000000
00000000
00000000
00000000
00000000
00000000
00000000
00000000
00000000
00000000
00000000
00000000
00000000
00000000
ENDCHAR
STARTCHAR a6a2
ENCODING 42658 
SWIDTH 96 0
DWIDTH 26 0
BBX 26 27 0 -1
BITMAP 
00000000
00080000
00080000
00080000
00080000
00080000
00080000
00080000
00080000
00080000
00080000
00080000
00080000
00080000
00080000
00080000
00080000
00080000
00080000
00080000
00080000
00080000
00080000
00080000
00080000
00000000
00000000
ENDCHAR
STARTCHAR a6a3
ENCODING 42659 
SWIDTH 96 0
DWIDTH 26 0
BBX 26 27 0 -1
BITMAP 
00000000
00000000
00000000
00000000
00000000
00000000
00000000
00000000
00000000
00000000
00000000
00000000
000fff80
00080000
00080000
00080000
00080000
00080000
00080000
00080000
00080000
00080000
00080000
00080000
00080000
00000000
00000000
ENDCHAR
STARTCHAR a6a4
ENCODING 42660 
SWIDTH 96 0
DWIDTH 26 0
BBX 26 27 0 -1
BITMAP 
00000000
00000000
00000000
00000000
00000000
00000000
00000000
00000000
00000000
00000000
00000000
00000000
7ff80000
00080000
00080000
00080000
00080000
00080000
00080000
00080000
00080000
00080000
00080000
00080000
00080000
00000000
00000000
ENDCHAR
STARTCHAR a6a5
ENCODING 42661 
SWIDTH 96 0
DWIDTH 26 0
BBX 26 27 0 -1
BITMAP 
00000000
00080000
00080000
00080000
00080000
00080000
00080000
00080000
00080000
00080000
00080000
00080000
7ff80000
00000000
00000000
00000000
00000000
00000000
00000000
00000000
00000000
00000000
00000000
00000000
00000000
00000000
00000000
ENDCHAR
STARTCHAR a6a6
ENCODING 42662 
SWIDTH 96 0
DWIDTH 26 0
BBX 26 27 0 -1
BITMAP 
00000000
00080000
00080000
00080000
00080000
00080000
00080000
00080000
00080000
00080000
00080000
00080000
000fff80
00000000
00000000
00000000
00000000
00000000
00000000
00000000
00000000
00000000
00000000
00000000
00000000
00000000
00000000
ENDCHAR
STARTCHAR a6a7
ENCODING 42663 
SWIDTH 96 0
DWIDTH 26 0
BBX 26 27 0 -1
BITMAP 
00000000
00080000
00080000
00080000
00080000
00080000
00080000
00080000
00080000
00080000
00080000
00080000
000fff80
00080000
00080000
00080000
00080000
00080000
00080000
00080000
00080000
00080000
00080000
00080000
00080000
00000000
00000000
ENDCHAR
STARTCHAR a6a8
ENCODING 42664 
SWIDTH 96 0
DWIDTH 26 0
BBX 26 27 0 -1
BITMAP 
00000000
00000000
00000000
00000000
00000000
00000000
00000000
00000000
00000000
00000000
00000000
00000000
7fffff80
00080000
00080000
00080000
00080000
00080000
00080000
00080000
00080000
00080000
00080000
00080000
00080000
00000000
00000000
ENDCHAR
STARTCHAR a6a9
ENCODING 42665 
SWIDTH 96 0
DWIDTH 26 0
BBX 26 27 0 -1
BITMAP 
00000000
00080000
00080000
00080000
00080000
00080000
00080000
00080000
00080000
00080000
00080000
00080000
7ff80000
00080000
00080000
00080000
00080000
00080000
00080000
00080000
00080000
00080000
00080000
00080000
00080000
00000000
00000000
ENDCHAR
STARTCHAR a6aa
ENCODING 42666 
SWIDTH 96 0
DWIDTH 26 0
BBX 26 27 0 -1
BITMAP 
00000000
00080000
00080000
00080000
00080000
00080000
00080000
00080000
00080000
00080000
00080000
00080000
7fffff80
00000000
00000000
00000000
00000000
00000000
00000000
00000000
00000000
00000000
00000000
00000000
00000000
00000000
00000000
ENDCHAR
STARTCHAR a6ab
ENCODING 42667 
SWIDTH 96 0
DWIDTH 26 0
BBX 26 27 0 -1
BITMAP 
00000000
00080000
00080000
00080000
00080000
00080000
00080000
00080000
00080000
00080000
00080000
00080000
7fffff80
00080000
00080000
00080000
00080000
00080000
00080000
00080000
00080000
00080000
00080000
00080000
00080000
00000000
00000000
ENDCHAR
STARTCHAR a6ac
ENCODING 42668 
SWIDTH 96 0
DWIDTH 26 0
BBX 26 27 0 -1
BITMAP 
00000000
00000000
00000000
00000000
00000000
00000000
00000000
00000000
00000000
00000000
00000000
00000000
7fffff80
7fffff80
00000000
00000000
00000000
00000000
00000000
00000000
00000000
00000000
00000000
00000000
00000000
00000000
00000000
ENDCHAR
STARTCHAR a6ad
ENCODING 42669 
SWIDTH 96 0
DWIDTH 26 0
BBX 26 27 0 -1
BITMAP 
00000000
000c0000
000c0000
000c0000
000c0000
000c0000
000c0000
000c0000
000c0000
000c0000
000c0000
000c0000
000c0000
000c0000
000c0000
000c0000
000c0000
000c0000
000c0000
000c0000
000c0000
000c0000
000c0000
000c0000
000c0000
00000000
00000000
ENDCHAR
STARTCHAR a6ae
ENCODING 42670 
SWIDTH 96 0
DWIDTH 26 0
BBX 26 27 0 -1
BITMAP 
00000000
00000000
00000000
00000000
00000000
00000000
00000000
00000000
00000000
00000000
00000000
00000000
000fff80
000fff80
000c0000
000c0000
000c0000
000c0000
000c0000
000c0000
000c0000
000c0000
000c0000
000c0000
000c0000
00000000
00000000
ENDCHAR
STARTCHAR a6af
ENCODING 42671 
SWIDTH 96 0
DWIDTH 26 0
BBX 26 27 0 -1
BITMAP 
00000000
00000000
00000000
00000000
00000000
00000000
00000000
00000000
00000000
00000000
00000000
00000000
7ffc0000
7ffc0000
000c0000
000c0000
000c0000
000c0000
000c0000
000c0000
000c0000
000c0000
000c0000
000c0000
000c0000
00000000
00000000
ENDCHAR
STARTCHAR a6b0
ENCODING 42672 
SWIDTH 96 0
DWIDTH 26 0
BBX 26 27 0 -1
BITMAP 
00000000
000c0000
000c0000
000c0000
000c0000
000c0000
000c0000
000c0000
000c0000
000c0000
000c0000
000c0000
7ffc0000
7ffc0000
00000000
00000000
00000000
00000000
00000000
00000000
00000000
00000000
00000000
00000000
00000000
00000000
00000000
ENDCHAR
STARTCHAR a6b1
ENCODING 42673 
SWIDTH 96 0
DWIDTH 26 0
BBX 26 27 0 -1
BITMAP 
00000000
000c0000
000c0000
000c0000
000c0000
000c0000
000c0000
000c0000
000c0000
000c0000
000c0000
000c0000
000fff80
000fff80
00000000
00000000
00000000
00000000
00000000
00000000
00000000
00000000
00000000
00000000
00000000
00000000
00000000
ENDCHAR
STARTCHAR a6b2
ENCODING 42674 
SWIDTH 96 0
DWIDTH 26 0
BBX 26 27 0 -1
BITMAP 
00000000
000c0000
000c0000
000c0000
000c0000
000c0000
000c0000
000c0000
000c0000
000c0000
000c0000
000c0000
000fff80
000fff80
000c0000
000c0000
000c0000
000c0000
000c0000
000c0000
000c0000
000c0000
000c0000
000c0000
000c0000
00000000
00000000
ENDCHAR
STARTCHAR a6b3
ENCODING 42675 
SWIDTH 96 0
DWIDTH 26 0
BBX 26 27 0 -1
BITMAP 
00000000
00000000
00000000
00000000
00000000
00000000
00000000
00000000
00000000
00000000
00000000
00000000
7fffff80
7fffff80
000c0000
000c0000
000c0000
000c0000
000c0000
000c0000
000c0000
000c0000
000c0000
000c0000
000c0000
00000000
00000000
ENDCHAR
STARTCHAR a6b4
ENCODING 42676 
SWIDTH 96 0
DWIDTH 26 0
BBX 26 27 0 -1
BITMAP 
00000000
000c0000
000c0000
000c0000
000c0000
000c0000
000c0000
000c0000
000c0000
000c0000
000c0000
000c0000
7ffc0000
7ffc0000
000c0000
000c0000
000c0000
000c0000
000c0000
000c0000
000c0000
000c0000
000c0000
000c0000
000c0000
00000000
00000000
ENDCHAR
STARTCHAR a6b5
ENCODING 42677 
SWIDTH 96 0
DWIDTH 26 0
BBX 26 27 0 -1
BITMAP 
00000000
000c0000
000c0000
000c0000
000c0000
000c0000
000c0000
000c0000
000c0000
000c0000
000c0000
000c0000
7fffff80
7fffff80
00000000
00000000
00000000
00000000
00000000
00000000
00000000
00000000
00000000
00000000
00000000
00000000
00000000
ENDCHAR
STARTCHAR a6b6
ENCODING 42678 
SWIDTH 96 0
DWIDTH 26 0
BBX 26 27 0 -1
BITMAP 
00000000
000c0000
000c0000
000c0000
000c0000
000c0000
000c0000
000c0000
000c0000
000c0000
000c0000
000c0000
7fffff80
7fffff80
000c0000
000c0000
000c0000
000c0000
000c0000
000c0000
000c0000
000c0000
000c0000
000c0000
000c0000
00000000
00000000
ENDCHAR
STARTCHAR a6b7
ENCODING 42679 
SWIDTH 96 0
DWIDTH 26 0
BBX 26 27 0 -1
BITMAP 
00000000
000c0000
000c0000
000c0000
000c0000
000c0000
000c0000
000c0000
000c0000
000c0000
000c0000
000c0000
000fff80
000c0000
000c0000
000c0000
000c0000
000c0000
000c0000
000c0000
000c0000
000c0000
000c0000
000c0000
000c0000
00000000
00000000
ENDCHAR
STARTCHAR a6b8
ENCODING 42680 
SWIDTH 96 0
DWIDTH 26 0
BBX 26 27 0 -1
BITMAP 
00000000
00000000
00000000
00000000
00000000
00000000
00000000
00000000
00000000
00000000
00000000
00000000
7fffff80
7fffff80
00080000
00080000
00080000
00080000
00080000
00080000
00080000
00080000
00080000
00080000
00080000
00000000
00000000
ENDCHAR
STARTCHAR a6b9
ENCODING 42681 
SWIDTH 96 0
DWIDTH 26 0
BBX 26 27 0 -1
BITMAP 
00000000
000c0000
000c0000
000c0000
000c0000
000c0000
000c0000
000c0000
000c0000
000c0000
000c0000
000c0000
7ffc0000
000c0000
000c0000
000c0000
000c0000
000c0000
000c0000
000c0000
000c0000
000c0000
000c0000
000c0000
000c0000
00000000
00000000
ENDCHAR
STARTCHAR a6ba
ENCODING 42682 
SWIDTH 96 0
DWIDTH 26 0
BBX 26 27 0 -1
BITMAP 
00000000
00080000
00080000
00080000
00080000
00080000
00080000
00080000
00080000
00080000
00080000
00080000
7fffff80
7fffff80
00000000
00000000
00000000
00000000
00000000
00000000
00000000
00000000
00000000
00000000
00000000
00000000
00000000
ENDCHAR
STARTCHAR a6bb
ENCODING 42683 
SWIDTH 96 0
DWIDTH 26 0
BBX 26 27 0 -1
BITMAP 
00000000
00080000
00080000
00080000
00080000
00080000
00080000
00080000
00080000
00080000
00080000
00080000
7fffff80
7fffff80
00080000
00080000
00080000
00080000
00080000
00080000
00080000
00080000
00080000
00080000
00080000
00000000
00000000
ENDCHAR
STARTCHAR a6bc
ENCODING 42684 
SWIDTH 96 0
DWIDTH 26 0
BBX 26 27 0 -1
BITMAP 
00000000
00080000
00080000
00080000
00080000
00080000
00080000
00080000
00080000
00080000
00080000
00080000
000fff80
000fff80
00080000
00080000
00080000
00080000
00080000
00080000
00080000
00080000
00080000
00080000
00080000
00000000
00000000
ENDCHAR
STARTCHAR a6bd
ENCODING 42685 
SWIDTH 96 0
DWIDTH 26 0
BBX 26 27 0 -1
BITMAP 
00000000
00000000
00000000
00000000
00000000
00000000
00000000
00000000
00000000
00000000
00000000
00000000
7fffff80
000c0000
000c0000
000c0000
000c0000
000c0000
000c0000
000c0000
000c0000
000c0000
000c0000
000c0000
000c0000
00000000
00000000
ENDCHAR
STARTCHAR a6be
ENCODING 42686 
SWIDTH 96 0
DWIDTH 26 0
BBX 26 27 0 -1
BITMAP 
00000000
00080000
00080000
00080000
00080000
00080000
00080000
00080000
00080000
00080000
00080000
00080000
7ff80000
7ff80000
00080000
00080000
00080000
00080000
00080000
00080000
00080000
00080000
00080000
00080000
00080000
00000000
00000000
ENDCHAR
STARTCHAR a6bf
ENCODING 42687 
SWIDTH 96 0
DWIDTH 26 0
BBX 26 27 0 -1
BITMAP 
00000000
000c0000
000c0000
000c0000
000c0000
000c0000
000c0000
000c0000
000c0000
000c0000
000c0000
000c0000
7fffff80
00000000
00000000
00000000
00000000
00000000
00000000
00000000
00000000
00000000
00000000
00000000
00000000
00000000
00000000
ENDCHAR
STARTCHAR a6c0
ENCODING 42688 
SWIDTH 96 0
DWIDTH 26 0
BBX 26 27 0 -1
BITMAP 
00000000
000c0000
000c0000
000c0000
000c0000
000c0000
000c0000
000c0000
000c0000
000c0000
000c0000
000c0000
7fffff80
000c0000
000c0000
000c0000
000c0000
000c0000
000c0000
000c0000
000c0000
000c0000
000c0000
000c0000
000c0000
00000000
00000000
ENDCHAR
STARTCHAR a6c1
ENCODING 42689 
SWIDTH 96 0
DWIDTH 26 0
BBX 26 27 0 -1
BITMAP 
00000000
00000000
00000000
00000000
00000000
00000000
00000000
00000000
00000000
00000000
00000000
00000000
7ffc0000
000c0000
000c0000
000c0000
000c0000
000c0000
000c0000
000c0000
000c0000
000c0000
000c0000
000c0000
000c0000
00000000
00000000
ENDCHAR
STARTCHAR a6c2
ENCODING 42690 
SWIDTH 96 0
DWIDTH 26 0
BBX 26 27 0 -1
BITMAP 
00000000
00000000
00000000
00000000
00000000
00000000
00000000
00000000
00000000
00000000
00000000
00000000
7ff80000
7ff80000
00080000
00080000
00080000
00080000
00080000
00080000
00080000
00080000
00080000
00080000
00080000
00000000
00000000
ENDCHAR
STARTCHAR a6c3
ENCODING 42691 
SWIDTH 96 0
DWIDTH 26 0
BBX 26 27 0 -1
BITMAP 
00000000
000c0000
000c0000
000c0000
000c0000
000c0000
000c0000
000c0000
000c0000
000c0000
000c0000
000c0000
7ffc0000
00000000
00000000
00000000
00000000
00000000
00000000
00000000
00000000
00000000
00000000
00000000
00000000
00000000
00000000
ENDCHAR
STARTCHAR a6c4
ENCODING 42692 
SWIDTH 96 0
DWIDTH 26 0
BBX 26 27 0 -1
BITMAP 
00000000
00080000
00080000
00080000
00080000
00080000
00080000
00080000
00080000
00080000
00080000
00080000
7ff80000
7ff80000
00000000
00000000
00000000
00000000
00000000
00000000
00000000
00000000
00000000
00000000
00000000
00000000
00000000
ENDCHAR
STARTCHAR a6c5
ENCODING 42693 
SWIDTH 96 0
DWIDTH 26 0
BBX 26 27 0 -1
BITMAP 
00000000
000c0000
000c0000
000c0000
000c0000
000c0000
000c0000
000c0000
000c0000
000c0000
000c0000
000c0000
000fff80
00000000
00000000
00000000
00000000
00000000
00000000
00000000
00000000
00000000
00000000
00000000
00000000
00000000
00000000
ENDCHAR
STARTCHAR a6c6
ENCODING 42694 
SWIDTH 96 0
DWIDTH 26 0
BBX 26 27 0 -1
BITMAP 
00000000
00080000
00080000
00080000
00080000
00080000
00080000
00080000
00080000
00080000
00080000
00080000
000fff80
000fff80
00000000
00000000
00000000
00000000
00000000
00000000
00000000
00000000
00000000
00000000
00000000
00000000
00000000
ENDCHAR
STARTCHAR a6c7
ENCODING 42695 
SWIDTH 96 0
DWIDTH 26 0
BBX 26 27 0 -1
BITMAP 
00000000
00000000
00000000
00000000
00000000
00000000
00000000
00000000
00000000
00000000
00000000
00000000
000fff80
000c0000
000c0000
000c0000
000c0000
000c0000
000c0000
000c0000
000c0000
000c0000
000c0000
000c0000
000c0000
00000000
00000000
ENDCHAR
STARTCHAR a6c8
ENCODING 42696 
SWIDTH 96 0
DWIDTH 26 0
BBX 26 27 0 -1
BITMAP 
00000000
00000000
00000000
00000000
00000000
00000000
00000000
00000000
00000000
00000000
00000000
00000000
000fff80
000fff80
00080000
00080000
00080000
00080000
00080000
00080000
00080000
00080000
00080000
00080000
00080000
00000000
00000000
ENDCHAR
STARTCHAR a6c9
ENCODING 42697 
SWIDTH 96 0
DWIDTH 26 0
BBX 26 27 0 -1
BITMAP 
00000000
000c0000
000c0000
000c0000
000c0000
000c0000
000c0000
000c0000
000c0000
000c0000
000c0000
000c0000
000fff80
00080000
00080000
00080000
00080000
00080000
00080000
00080000
00080000
00080000
00080000
00080000
00080000
00000000
00000000
ENDCHAR
STARTCHAR a6ca
ENCODING 42698 
SWIDTH 96 0
DWIDTH 26 0
BBX 26 27 0 -1
BITMAP 
00000000
00080000
00080000
00080000
00080000
00080000
00080000
00080000
00080000
00080000
00080000
00080000
000fff80
000c0000
000c0000
000c0000
000c0000
000c0000
000c0000
000c0000
000c0000
000c0000
000c0000
000c0000
000c0000
00000000
00000000
ENDCHAR
STARTCHAR a6cb
ENCODING 42699 
SWIDTH 96 0
DWIDTH 26 0
BBX 26 27 0 -1
BITMAP 
00000000
000c0000
000c0000
000c0000
000c0000
000c0000
000c0000
000c0000
000c0000
000c0000
000c0000
000c0000
000fff80
000fff80
00080000
00080000
00080000
00080000
00080000
00080000
00080000
00080000
00080000
00080000
00080000
00000000
00000000
ENDCHAR
STARTCHAR a6cc
ENCODING 42700 
SWIDTH 96 0
DWIDTH 26 0
BBX 26 27 0 -1
BITMAP 
00000000
00080000
00080000
00080000
00080000
00080000
00080000
00080000
00080000
00080000
00080000
00080000
000fff80
000fff80
000c0000
000c0000
000c0000
000c0000
000c0000
000c0000
000c0000
000c0000
000c0000
000c0000
000c0000
00000000
00000000
ENDCHAR
STARTCHAR a6cd
ENCODING 42701 
SWIDTH 96 0
DWIDTH 26 0
BBX 26 27 0 -1
BITMAP 
00000000
000c0000
000c0000
000c0000
000c0000
000c0000
000c0000
000c0000
000c0000
000c0000
000c0000
000c0000
7ffc0000
00080000
00080000
00080000
00080000
00080000
00080000
00080000
00080000
00080000
00080000
00080000
00080000
00000000
00000000
ENDCHAR
STARTCHAR a6ce
ENCODING 42702 
SWIDTH 96 0
DWIDTH 26 0
BBX 26 27 0 -1
BITMAP 
00000000
00080000
00080000
00080000
00080000
00080000
00080000
00080000
00080000
00080000
00080000
00080000
7ffc0000
000c0000
000c0000
000c0000
000c0000
000c0000
000c0000
000c0000
000c0000
000c0000
000c0000
000c0000
000c0000
00000000
00000000
ENDCHAR
STARTCHAR a6cf
ENCODING 42703 
SWIDTH 96 0
DWIDTH 26 0
BBX 26 27 0 -1
BITMAP 
00000000
000c0000
000c0000
000c0000
000c0000
000c0000
000c0000
000c0000
000c0000
000c0000
000c0000
000c0000
7ffc0000
7ffc0000
00080000
00080000
00080000
00080000
00080000
00080000
00080000
00080000
00080000
00080000
00080000
00000000
00000000
ENDCHAR
STARTCHAR a6d0
ENCODING 42704 
SWIDTH 96 0
DWIDTH 26 0
BBX 26 27 0 -1
BITMAP 
00000000
00080000
00080000
00080000
00080000
00080000
00080000
00080000
00080000
00080000
00080000
00080000
7ffc0000
7ffc0000
000c0000
000c0000
000c0000
000c0000
000c0000
000c0000
000c0000
000c0000
000c0000
000c0000
000c0000
00000000
00000000
ENDCHAR
STARTCHAR a6d1
ENCODING 42705 
SWIDTH 96 0
DWIDTH 26 0
BBX 26 27 0 -1
BITMAP 
00000000
00000000
00000000
00000000
00000000
00000000
00000000
00000000
00000000
00000000
00000000
00000000
7fffff80
7ff80000
00080000
00080000
00080000
00080000
00080000
00080000
00080000
00080000
00080000
00080000
00080000
00000000
00000000
ENDCHAR
STARTCHAR a6d2
ENCODING 42706 
SWIDTH 96 0
DWIDTH 26 0
BBX 26 27 0 -1
BITMAP 
00000000
00000000
00000000
00000000
00000000
00000000
00000000
00000000
00000000
00000000
00000000
00000000
7fffff80
000fff80
00080000
00080000
00080000
00080000
00080000
00080000
00080000
00080000
00080000
00080000
00080000
00000000
00000000
ENDCHAR
STARTCHAR a6d3
ENCODING 42707 
SWIDTH 96 0
DWIDTH 26 0
BBX 26 27 0 -1
BITMAP 
00000000
00000000
00000000
00000000
00000000
00000000
00000000
00000000
00000000
00000000
00000000
00000000
7fffff80
7ffc0000
000c0000
000c0000
000c0000
000c0000
000c0000
000c0000
000c0000
000c0000
000c0000
000c0000
000c0000
00000000
00000000
ENDCHAR
STARTCHAR a6d4
ENCODING 42708 
SWIDTH 96 0
DWIDTH 26 0
BBX 26 27 0 -1
BITMAP 
00000000
00000000
00000000
00000000
00000000
00000000
00000000
00000000
00000000
00000000
00000000
00000000
7fffff80
000fff80
000c0000
000c0000
000c0000
000c0000
000c0000
000c0000
000c0000
000c0000
000c0000
000c0000
000c0000
00000000
00000000
ENDCHAR
STARTCHAR a6d5
ENCODING 42709 
SWIDTH 96 0
DWIDTH 26 0
BBX 26 27 0 -1
BITMAP 
00000000
00080000
00080000
00080000
00080000
00080000
00080000
00080000
00080000
00080000
00080000
00080000
7ff80000
7fffff80
00000000
00000000
00000000
00000000
00000000
00000000
00000000
00000000
00000000
00000000
00000000
00000000
00000000
ENDCHAR
STARTCHAR a6d6
ENCODING 42710 
SWIDTH 96 0
DWIDTH 26 0
BBX 26 27 0 -1
BITMAP 
00000000
00080000
00080000
00080000
00080000
00080000
00080000
00080000
00080000
00080000
00080000
00080000
000fff80
7fffff80
00000000
00000000
00000000
00000000
00000000
00000000
00000000
00000000
00000000
00000000
00000000
00000000
00000000
ENDCHAR
STARTCHAR a6d7
ENCODING 42711 
SWIDTH 96 0
DWIDTH 26 0
BBX 26 27 0 -1
BITMAP 
00000000
000c0000
000c0000
000c0000
000c0000
000c0000
000c0000
000c0000
000c0000
000c0000
000c0000
000c0000
7ffc0000
7fffff80
00000000
00000000
00000000
00000000
00000000
00000000
00000000
00000000
00000000
00000000
00000000
00000000
00000000
ENDCHAR
STARTCHAR a6d8
ENCODING 42712 
SWIDTH 96 0
DWIDTH 26 0
BBX 26 27 0 -1
BITMAP 
00000000
000c0000
000c0000
000c0000
000c0000
000c0000
000c0000
000c0000
000c0000
000c0000
000c0000
000fff80
7fffff80
00000000
00000000
00000000
00000000
00000000
00000000
00000000
00000000
00000000
00000000
00000000
00000000
00000000
00000000
ENDCHAR
STARTCHAR a6d9
ENCODING 42713 
SWIDTH 96 0
DWIDTH 26 0
BBX 26 27 0 -1
BITMAP 
00000000
00080000
00080000
00080000
00080000
00080000
00080000
00080000
00080000
00080000
00080000
00080000
7fffff80
7ff80000
00080000
00080000
00080000
00080000
00080000
00080000
00080000
00080000
00080000
00080000
00080000
00000000
00000000
ENDCHAR
STARTCHAR a6da
ENCODING 42714 
SWIDTH 96 0
DWIDTH 26 0
BBX 26 27 0 -1
BITMAP 
00000000
00080000
00080000
00080000
00080000
00080000
00080000
00080000
00080000
00080000
00080000
00080000
7fffff80
000fff80
00080000
00080000
00080000
00080000
00080000
00080000
00080000
00080000
00080000
00080000
00080000
00000000
00000000
ENDCHAR
STARTCHAR a6db
ENCODING 42715 
SWIDTH 96 0
DWIDTH 26 0
BBX 26 27 0 -1
BITMAP 
00000000
000c0000
000c0000
000c0000
000c0000
000c0000
000c0000
000c0000
000c0000
000c0000
000c0000
000c0000
7fffff80
00080000
00080000
00080000
00080000
00080000
00080000
00080000
00080000
00080000
00080000
00080000
00080000
00000000
00000000
ENDCHAR
STARTCHAR a6dc
ENCODING 42716 
SWIDTH 96 0
DWIDTH 26 0
BBX 26 27 0 -1
BITMAP 
00000000
00080000
00080000
00080000
00080000
00080000
00080000
00080000
00080000
00080000
00080000
00080000
7fffff80
000c0000
000c0000
000c0000
000c0000
000c0000
000c0000
000c0000
000c0000
000c0000
000c0000
000c0000
000c0000
00000000
00000000
ENDCHAR
STARTCHAR a6dd
ENCODING 42717 
SWIDTH 96 0
DWIDTH 26 0
BBX 26 27 0 -1
BITMAP 
00000000
000c0000
000c0000
000c0000
000c0000
000c0000
000c0000
000c0000
000c0000
000c0000
000c0000
000c0000
7fffff80
7ffc0000
00080000
00080000
00080000
00080000
00080000
00080000
00080000
00080000
00080000
00080000
00080000
00000000
00000000
ENDCHAR
STARTCHAR a6de
ENCODING 42718 
SWIDTH 96 0
DWIDTH 26 0
BBX 26 27 0 -1
BITMAP 
00000000
000c0000
000c0000
000c0000
000c0000
000c0000
000c0000
000c0000
000c0000
000c0000
000c0000
000c0000
7fffff80
000fff80
00080000
00080000
00080000
00080000
00080000
00080000
00080000
00080000
00080000
00080000
00080000
00000000
00000000
ENDCHAR
STARTCHAR a6df
ENCODING 42719 
SWIDTH 96 0
DWIDTH 26 0
BBX 26 27 0 -1
BITMAP 
00000000
00080000
00080000
00080000
00080000
00080000
00080000
00080000
00080000
00080000
00080000
00080000
7fffff80
7ffc0000
000c0000
000c0000
000c0000
000c0000
000c0000
000c0000
000c0000
000c0000
000c0000
000c0000
000c0000
00000000
00000000
ENDCHAR
STARTCHAR a6e0
ENCODING 42720 
SWIDTH 96 0
DWIDTH 26 0
BBX 26 27 0 -1
BITMAP 
00000000
00080000
00080000
00080000
00080000
00080000
00080000
00080000
00080000
00080000
00080000
00080000
7fffff80
000fff80
000c0000
000c0000
000c0000
000c0000
000c0000
000c0000
000c0000
000c0000
000c0000
000c0000
000c0000
00000000
00000000
ENDCHAR
STARTCHAR a6e1
ENCODING 42721 
SWIDTH 96 0
DWIDTH 26 0
BBX 26 27 0 -1
BITMAP 
00000000
000c0000
000c0000
000c0000
000c0000
000c0000
000c0000
000c0000
000c0000
000c0000
000c0000
000c0000
7fffff80
7fffff80
00080000
00080000
00080000
00080000
00080000
00080000
00080000
00080000
00080000
00080000
00080000
00000000
00000000
ENDCHAR
STARTCHAR a6e2
ENCODING 42722 
SWIDTH 96 0
DWIDTH 26 0
BBX 26 27 0 -1
BITMAP 
00000000
00080000
00080000
00080000
00080000
00080000
00080000
00080000
00080000
00080000
00080000
00080000
7fffff80
7fffff80
000c0000
000c0000
000c0000
000c0000
000c0000
000c0000
000c0000
000c0000
000c0000
000c0000
000c0000
00000000
00000000
ENDCHAR
STARTCHAR a6e3
ENCODING 42723 
SWIDTH 96 0
DWIDTH 26 0
BBX 26 27 0 -1
BITMAP 
00000000
000c0000
000c0000
000c0000
000c0000
000c0000
000c0000
000c0000
000c0000
000c0000
000c0000
000c0000
7fffff80
7ffc0000
000c0000
000c0000
000c0000
000c0000
000c0000
000c0000
000c0000
000c0000
000c0000
000c0000
000c0000
00000000
00000000
ENDCHAR
STARTCHAR a6e4
ENCODING 42724 
SWIDTH 96 0
DWIDTH 26 0
BBX 26 27 0 -1
BITMAP 
00000000
000c0000
000c0000
000c0000
000c0000
000c0000
000c0000
000c0000
000c0000
000c0000
000c0000
000c0000
7fffff80
000fff80
000c0000
000c0000
000c0000
000c0000
000c0000
000c0000
000c0000
000c0000
000c0000
000c0000
000c0000
00000000
00000000
ENDCHAR
STARTCHAR a7a1
ENCODING 42913 
SWIDTH 96 0
DWIDTH 26 0
BBX 26 27 0 -1
BITMAP 
00000000
00000000
00003800
00006c00
0000cc00
0000cc00
0000cc00
00018c00
00018c00
10618c00
18618c00
18618c00
18619800
18619800
18619800
18619000
1861b000
1860e100
1cf0c300
3f91a600
301b3c00
300e1800
30000000
30000000
30000000
00000000
00000000
ENDCHAR
STARTCHAR a7a5
ENCODING 42917 
SWIDTH 96 0
DWIDTH 26 0
BBX 26 27 0 -1
BITMAP 
00000000
00000000
00003800
00006c00
0000cc00
3000cc00
3000cc00
30018c00
30018c00
30018c00
30018c00
30618c00
30c19800
31819800
33019800
36019000
3c01b000
3c00e000
3600c100
3301c300
31816600
30c33c00
30661800
30380000
00000000
00000000
00000000
ENDCHAR
STARTCHAR a7a7
ENCODING 42919 
SWIDTH 96 0
DWIDTH 26 0
BBX 26 27 0 -1
BITMAP 
00000000
00000700
00000880
00000880
00000080
00000300
00000080
00000880
00000880
00000700
00000000
4d84d800
32632600
32632600
32632600
32632600
32632600
32632600
32632600
32632600
32632600
32632600
32632600
32632600
77777700
00000000
00000000
ENDCHAR
STARTCHAR a7a8
ENCODING 42920 
SWIDTH 96 0
DWIDTH 26 0
BBX 26 27 0 -1
BITMAP 
00000000
00000000
00000700
00000880
00000880
00000080
00000300
00000080
00000880
00000880
00000700
07000000
18c73800
30d8c400
6018c600
6018c600
6018c600
6018c600
6018c600
6018c600
6018c600
6018c600
3018c600
18d8c600
079def00
00000000
00000000
ENDCHAR
STARTCHAR a7a9
ENCODING 42921 
SWIDTH 96 0
DWIDTH 26 0
BBX 26 27 0 -1
BITMAP 
00000000
00000000
00000700
00000880
00000880
00000080
00000300
00000080
00000880
00000880
00000700
0071c000
06fbe000
030c3000
030c3000
030c3000
030c3000
030c3000
030c3000
030c3000
030c3000
030c3000
030c3000
030c3000
079e7800
00000000
00000000
ENDCHAR
STARTCHAR a7aa
ENCODING 42922 
SWIDTH 96 0
DWIDTH 26 0
BBX 26 27 0 -1
BITMAP 
00000000
00000000
00000700
00000880
00000880
30000080
30000300
30000080
30000880
30000880
30000700
30000000
30573c00
30d8c600
3198c600
3318c600
3618c600
3c18c600
3818c600
3c18c600
3618c600
3318c600
3198c600
30d8c600
305def00
00000000
00000000
ENDCHAR
STARTCHAR a7ab
ENCODING 42923 
SWIDTH 96 0
DWIDTH 26 0
BBX 26 27 0 -1
BITMAP 
00000000
00000000
01e00000
03100000
02180000
06180000
06180000
06000000
06000000
06000000
06000000
3fc10800
06139c00
060c6200
060c6300
060c6300
060c6300
060c6300
060c6300
060c6300
060c6300
060c6300
060c6300
060c6300
0f1ef780
00000000
00000000
ENDCHAR
STARTCHAR a7ac
ENCODING 42924 
SWIDTH 96 0
DWIDTH 26 0
BBX 26 27 0 -1
BITMAP 
00000000
00000000
00000000
00000000
00000000
00000000
00000000
00000000
00000000
04010800
4e139c00
310c6200
318c6300
318c6300
318c6300
318c6300
318c6300
318c6300
318c6300
318c6300
318c6300
318c6300
318c6300
7bdef780
00000000
00000000
00000000
ENDCHAR
STARTCHAR a7ad
ENCODING 42925 
SWIDTH 96 0
DWIDTH 26 0
BBX 26 27 0 -1
BITMAP 
00000000
00000000
00000000
00000000
00000000
00000000
00000000
00010800
0013dc00
20cc6200
30cc6300
30cc6300
30cc6300
30cc6300
30cc6300
30cc6300
30cc6300
30cc6300
39ec6300
7f3c6300
600c6300
601ef780
60000000
60000000
60000000
00000000
00000000
ENDCHAR
STARTCHAR a7b1
ENCODING 42929 
SWIDTH 96 0
DWIDTH 26 0
BBX 26 27 0 -1
BITMAP 
00000000
00000000
00000e00
00001100
00001100
00000100
00000200
00000400
00000800
00001f80
00000000
4d84d800
32632600
32632600
32632600
32632600
32632600
32632600
32632600
32632600
32632600
32632600
32632600
32632600
77777700
00000000
00000000
ENDCHAR
STARTCHAR a7b2
ENCODING 42930 
SWIDTH 96 0
DWIDTH 26 0
BBX 26 27 0 -1
BITMAP 
00000000
00000000
00000e00
00001100
00001100
00000100
00000200
00000400
00000800
00001f80
00000000
07821800
18d73c00
30d8c600
6018c600
6018c600
6018c600
6018c600
6018c600
6018c600
6018c600
6018c600
3018c600
18d8c600
0799ef00
00000000
00000000
ENDCHAR
STARTCHAR a7b3
ENCODING 42931 
SWIDTH 96 0
DWIDTH 26 0
BBX 26 27 0 -1
BITMAP 
00000000
00000000
00007000
00008800
00008800
00000800
00001000
00002000
00004000
0000fc00
00c60000
19ef0000
06318000
06318000
06318000
06318000
06318000
06318000
06318000
06318000
06318000
06318000
06318000
06318000
0f7bc000
00000000
00000000
ENDCHAR
STARTCHAR a7b4
ENCODING 42932 
SWIDTH 96 0
DWIDTH 26 0
BBX 26 27 0 -1
BITMAP 
00000000
00000000
00000e00
00001100
00001100
30000100
30000200
30000400
30000800
30001f80
30000000
30573c00
30d8c600
3198c600
3318c600
3618c600
3c18c600
3818c600
3c18c600
3618c600
3318c600
3198c600
30d8c600
305def00
00000000
00000000
00000000
ENDCHAR
STARTCHAR a7b5
ENCODING 42933 
SWIDTH 96 0
DWIDTH 26 0
BBX 26 27 0 -1
BITMAP 
00000000
00000000
38000000
18000000
18000000
18000000
18000000
18000000
18000000
18000000
18000000
19e07000
1a308c00
1c198600
18198600
18180600
18180600
18187e00
1818c600
18198600
181b0600
181b0600
181b0600
18190e00
7e7ef380
00000000
00000000
ENDCHAR
STARTCHAR a7b6
ENCODING 42934 
SWIDTH 96 0
DWIDTH 26 0
BBX 26 27 0 -1
BITMAP 
00000000
00000000
00000000
00000000
00000000
00000000
0000f880
00018d00
00030700
20c30600
30c30600
30c18c00
30c0f800
30c10000
30c1f000
30c31e00
30c60700
30c60380
39ec0180
7f2c0180
60060180
60030300
6001fc00
60000000
60000000
00000000
00000000
ENDCHAR
STARTCHAR a7b9
ENCODING 42937 
SWIDTH 96 0
DWIDTH 26 0
BBX 26 27 0 -1
BITMAP 
00000000
00000000
00000000
00000000
00018000
18018000
18018000
18018000
18018000
18018000
180ffc00
18118000
18318000
18618000
18c18000
19818000
1b018000
1e018000
1e018000
1b018000
19818000
18c18200
18618600
1830cc00
18187800
00000000
00000000
ENDCHAR
STARTCHAR a7ba
ENCODING 42938 
SWIDTH 96 0
DWIDTH 26 0
BBX 26 27 0 -1
BITMAP 
00000000
00000000
00000700
00000300
00000300
00000300
00000300
00000300
00000300
00000300
00000300
07070300
18c8c300
30d86300
60186300
60006300
60006300
6007e300
600c6300
60186300
60306300
60306300
30306300
18d0e300
078f3780
00000000
00000000
ENDCHAR
STARTCHAR a7bb
ENCODING 42939 
SWIDTH 96 0
DWIDTH 26 0
BBX 26 27 0 -1
BITMAP 
00000000
00000000
00000380
00000180
00000180
60000180
60000180
60000180
60000180
60000180
60000180
6038e180
6365b180
66cd9980
66c01980
6cc01980
6cc01980
78c0f980
70c19980
78c31980
6cc31980
6cc31980
66c71980
66451d80
6338e580
00000000
00000000
ENDCHAR
STARTCHAR a7bc
ENCODING 42940 
SWIDTH 96 0
DWIDTH 26 0
BBX 26 27 0 -1
BITMAP 
00000000
00000000
00f7f000
00331800
00330c00
00330300
00330300
00330300
00330300
00330300
0f330600
18f30800
3073f000
30331800
60330c00
60330600
60330300
60330300
60330300
60330300
30330600
30730c00
18b31800
0f17f000
00000000
00000000
00000000
ENDCHAR
STARTCHAR a7bd
ENCODING 42941 
SWIDTH 96 0
DWIDTH 26 0
BBX 26 27 0 -1
BITMAP 
00000000
00000080
4ce00100
33300200
33300400
33300800
33301000
33302000
33304000
33308000
33310000
33320000
0004e000
00091000
00131800
00231800
00430000
00818000
01007000
02001800
04061800
08041800
10021000
2001e000
40000000
00000000
00000000
ENDCHAR
STARTCHAR a7be
ENCODING 42942 
SWIDTH 96 0
DWIDTH 26 0
BBX 26 27 0 -1
BITMAP 
00000000
00000080
4ce00100
33300200
33300400
33300800
33301100
33302280
33304080
33308100
33310200
77720380
0004e000
00091000
00131800
00231800
00430000
00818000
01007000
02001800
04061800
08041800
10021000
2001e000
40000000
00000000
00000000
ENDCHAR
STARTCHAR a7bf
ENCODING 42943 
SWIDTH 96 0
DWIDTH 26 0
BBX 26 27 0 -1
BITMAP 
00000000
00000000
00000000
00000000
00000000
00000000
00000000
3de03c00
0f306200
0c18c300
0c18c300
0c0cc000
0c0cc000
0c0c6000
0c0c3800
0c180e00
0e180300
0f300180
0de0c180
0c00c180
0c004300
0c003e00
0c000000
0c000000
1e000000
00000000
00000000
ENDCHAR
STARTCHAR a7c0
ENCODING 42944 
SWIDTH 96 0
DWIDTH 26 0
BBX 26 27 0 -1
BITMAP 
00000000
00000000
00000000
00000000
00000000
00000000
00000000
00000000
00000000
00000000
0180f000
37c18800
18630c00
18630c00
18630000
18630000
18618000
1860e000
18603800
18600c00
18600600
18630600
18630600
18610c00
3cf0f800
00000000
00000000
ENDCHAR
ENDFONT
